G04 #@! TF.GenerationSoftware,KiCad,Pcbnew,9.0.7*
G04 #@! TF.CreationDate,2026-06-04T16:29:51-05:00*
G04 #@! TF.ProjectId,RP2040_minimal_r2,52503230-3430-45f6-9d69-6e696d616c5f,REV2*
G04 #@! TF.SameCoordinates,Original*
G04 #@! TF.FileFunction,Soldermask,Bot*
G04 #@! TF.FilePolarity,Negative*
%FSLAX46Y46*%
G04 Gerber Fmt 4.6, Leading zero omitted, Abs format (unit mm)*
G04 Created by KiCad (PCBNEW 9.0.7) date 2026-06-04 16:29:51*
%MOMM*%
%LPD*%
G01*
G04 APERTURE LIST*
G04 APERTURE END LIST*
G36*
X76038937Y-136104919D02*
G01*
X76055482Y-136115975D01*
X76066538Y-136132520D01*
X76070420Y-136152037D01*
X76070420Y-137852037D01*
X76066538Y-137871554D01*
X76055482Y-137888099D01*
X76038937Y-137899155D01*
X76019420Y-137903037D01*
X74319420Y-137903037D01*
X74299903Y-137899155D01*
X74283358Y-137888099D01*
X74272302Y-137871554D01*
X74268420Y-137852037D01*
X74268420Y-136152037D01*
X74272302Y-136132520D01*
X74283358Y-136115975D01*
X74299903Y-136104919D01*
X74319420Y-136101037D01*
X76019420Y-136101037D01*
X76038937Y-136104919D01*
G37*
G36*
X77970966Y-136139834D02*
G01*
X78134148Y-136207426D01*
X78281008Y-136305555D01*
X78405902Y-136430449D01*
X78504031Y-136577309D01*
X78571623Y-136740491D01*
X78606081Y-136913724D01*
X78606081Y-137090350D01*
X78571623Y-137263583D01*
X78504031Y-137426765D01*
X78405902Y-137573625D01*
X78281008Y-137698519D01*
X78134148Y-137796648D01*
X77970966Y-137864240D01*
X77797733Y-137898698D01*
X77621107Y-137898698D01*
X77447874Y-137864240D01*
X77284692Y-137796648D01*
X77137832Y-137698519D01*
X77012938Y-137573625D01*
X76914809Y-137426765D01*
X76847217Y-137263583D01*
X76812759Y-137090350D01*
X76812759Y-136913724D01*
X76847217Y-136740491D01*
X76914809Y-136577309D01*
X77012938Y-136430449D01*
X77137832Y-136305555D01*
X77284692Y-136207426D01*
X77447874Y-136139834D01*
X77621107Y-136105376D01*
X77797733Y-136105376D01*
X77970966Y-136139834D01*
G37*
G36*
X80510966Y-136139834D02*
G01*
X80674148Y-136207426D01*
X80821008Y-136305555D01*
X80945902Y-136430449D01*
X81044031Y-136577309D01*
X81111623Y-136740491D01*
X81146081Y-136913724D01*
X81146081Y-137090350D01*
X81111623Y-137263583D01*
X81044031Y-137426765D01*
X80945902Y-137573625D01*
X80821008Y-137698519D01*
X80674148Y-137796648D01*
X80510966Y-137864240D01*
X80337733Y-137898698D01*
X80161107Y-137898698D01*
X79987874Y-137864240D01*
X79824692Y-137796648D01*
X79677832Y-137698519D01*
X79552938Y-137573625D01*
X79454809Y-137426765D01*
X79387217Y-137263583D01*
X79352759Y-137090350D01*
X79352759Y-136913724D01*
X79387217Y-136740491D01*
X79454809Y-136577309D01*
X79552938Y-136430449D01*
X79677832Y-136305555D01*
X79824692Y-136207426D01*
X79987874Y-136139834D01*
X80161107Y-136105376D01*
X80337733Y-136105376D01*
X80510966Y-136139834D01*
G37*
G36*
X83050966Y-136139834D02*
G01*
X83214148Y-136207426D01*
X83361008Y-136305555D01*
X83485902Y-136430449D01*
X83584031Y-136577309D01*
X83651623Y-136740491D01*
X83686081Y-136913724D01*
X83686081Y-137090350D01*
X83651623Y-137263583D01*
X83584031Y-137426765D01*
X83485902Y-137573625D01*
X83361008Y-137698519D01*
X83214148Y-137796648D01*
X83050966Y-137864240D01*
X82877733Y-137898698D01*
X82701107Y-137898698D01*
X82527874Y-137864240D01*
X82364692Y-137796648D01*
X82217832Y-137698519D01*
X82092938Y-137573625D01*
X81994809Y-137426765D01*
X81927217Y-137263583D01*
X81892759Y-137090350D01*
X81892759Y-136913724D01*
X81927217Y-136740491D01*
X81994809Y-136577309D01*
X82092938Y-136430449D01*
X82217832Y-136305555D01*
X82364692Y-136207426D01*
X82527874Y-136139834D01*
X82701107Y-136105376D01*
X82877733Y-136105376D01*
X83050966Y-136139834D01*
G37*
G36*
X85590966Y-136139834D02*
G01*
X85754148Y-136207426D01*
X85901008Y-136305555D01*
X86025902Y-136430449D01*
X86124031Y-136577309D01*
X86191623Y-136740491D01*
X86226081Y-136913724D01*
X86226081Y-137090350D01*
X86191623Y-137263583D01*
X86124031Y-137426765D01*
X86025902Y-137573625D01*
X85901008Y-137698519D01*
X85754148Y-137796648D01*
X85590966Y-137864240D01*
X85417733Y-137898698D01*
X85241107Y-137898698D01*
X85067874Y-137864240D01*
X84904692Y-137796648D01*
X84757832Y-137698519D01*
X84632938Y-137573625D01*
X84534809Y-137426765D01*
X84467217Y-137263583D01*
X84432759Y-137090350D01*
X84432759Y-136913724D01*
X84467217Y-136740491D01*
X84534809Y-136577309D01*
X84632938Y-136430449D01*
X84757832Y-136305555D01*
X84904692Y-136207426D01*
X85067874Y-136139834D01*
X85241107Y-136105376D01*
X85417733Y-136105376D01*
X85590966Y-136139834D01*
G37*
G36*
X88130966Y-136139834D02*
G01*
X88294148Y-136207426D01*
X88441008Y-136305555D01*
X88565902Y-136430449D01*
X88664031Y-136577309D01*
X88731623Y-136740491D01*
X88766081Y-136913724D01*
X88766081Y-137090350D01*
X88731623Y-137263583D01*
X88664031Y-137426765D01*
X88565902Y-137573625D01*
X88441008Y-137698519D01*
X88294148Y-137796648D01*
X88130966Y-137864240D01*
X87957733Y-137898698D01*
X87781107Y-137898698D01*
X87607874Y-137864240D01*
X87444692Y-137796648D01*
X87297832Y-137698519D01*
X87172938Y-137573625D01*
X87074809Y-137426765D01*
X87007217Y-137263583D01*
X86972759Y-137090350D01*
X86972759Y-136913724D01*
X87007217Y-136740491D01*
X87074809Y-136577309D01*
X87172938Y-136430449D01*
X87297832Y-136305555D01*
X87444692Y-136207426D01*
X87607874Y-136139834D01*
X87781107Y-136105376D01*
X87957733Y-136105376D01*
X88130966Y-136139834D01*
G37*
G36*
X90670966Y-136139834D02*
G01*
X90834148Y-136207426D01*
X90981008Y-136305555D01*
X91105902Y-136430449D01*
X91204031Y-136577309D01*
X91271623Y-136740491D01*
X91306081Y-136913724D01*
X91306081Y-137090350D01*
X91271623Y-137263583D01*
X91204031Y-137426765D01*
X91105902Y-137573625D01*
X90981008Y-137698519D01*
X90834148Y-137796648D01*
X90670966Y-137864240D01*
X90497733Y-137898698D01*
X90321107Y-137898698D01*
X90147874Y-137864240D01*
X89984692Y-137796648D01*
X89837832Y-137698519D01*
X89712938Y-137573625D01*
X89614809Y-137426765D01*
X89547217Y-137263583D01*
X89512759Y-137090350D01*
X89512759Y-136913724D01*
X89547217Y-136740491D01*
X89614809Y-136577309D01*
X89712938Y-136430449D01*
X89837832Y-136305555D01*
X89984692Y-136207426D01*
X90147874Y-136139834D01*
X90321107Y-136105376D01*
X90497733Y-136105376D01*
X90670966Y-136139834D01*
G37*
G36*
X93210966Y-136139834D02*
G01*
X93374148Y-136207426D01*
X93521008Y-136305555D01*
X93645902Y-136430449D01*
X93744031Y-136577309D01*
X93811623Y-136740491D01*
X93846081Y-136913724D01*
X93846081Y-137090350D01*
X93811623Y-137263583D01*
X93744031Y-137426765D01*
X93645902Y-137573625D01*
X93521008Y-137698519D01*
X93374148Y-137796648D01*
X93210966Y-137864240D01*
X93037733Y-137898698D01*
X92861107Y-137898698D01*
X92687874Y-137864240D01*
X92524692Y-137796648D01*
X92377832Y-137698519D01*
X92252938Y-137573625D01*
X92154809Y-137426765D01*
X92087217Y-137263583D01*
X92052759Y-137090350D01*
X92052759Y-136913724D01*
X92087217Y-136740491D01*
X92154809Y-136577309D01*
X92252938Y-136430449D01*
X92377832Y-136305555D01*
X92524692Y-136207426D01*
X92687874Y-136139834D01*
X92861107Y-136105376D01*
X93037733Y-136105376D01*
X93210966Y-136139834D01*
G37*
G36*
X95750966Y-136139834D02*
G01*
X95914148Y-136207426D01*
X96061008Y-136305555D01*
X96185902Y-136430449D01*
X96284031Y-136577309D01*
X96351623Y-136740491D01*
X96386081Y-136913724D01*
X96386081Y-137090350D01*
X96351623Y-137263583D01*
X96284031Y-137426765D01*
X96185902Y-137573625D01*
X96061008Y-137698519D01*
X95914148Y-137796648D01*
X95750966Y-137864240D01*
X95577733Y-137898698D01*
X95401107Y-137898698D01*
X95227874Y-137864240D01*
X95064692Y-137796648D01*
X94917832Y-137698519D01*
X94792938Y-137573625D01*
X94694809Y-137426765D01*
X94627217Y-137263583D01*
X94592759Y-137090350D01*
X94592759Y-136913724D01*
X94627217Y-136740491D01*
X94694809Y-136577309D01*
X94792938Y-136430449D01*
X94917832Y-136305555D01*
X95064692Y-136207426D01*
X95227874Y-136139834D01*
X95401107Y-136105376D01*
X95577733Y-136105376D01*
X95750966Y-136139834D01*
G37*
G36*
X98290966Y-136139834D02*
G01*
X98454148Y-136207426D01*
X98601008Y-136305555D01*
X98725902Y-136430449D01*
X98824031Y-136577309D01*
X98891623Y-136740491D01*
X98926081Y-136913724D01*
X98926081Y-137090350D01*
X98891623Y-137263583D01*
X98824031Y-137426765D01*
X98725902Y-137573625D01*
X98601008Y-137698519D01*
X98454148Y-137796648D01*
X98290966Y-137864240D01*
X98117733Y-137898698D01*
X97941107Y-137898698D01*
X97767874Y-137864240D01*
X97604692Y-137796648D01*
X97457832Y-137698519D01*
X97332938Y-137573625D01*
X97234809Y-137426765D01*
X97167217Y-137263583D01*
X97132759Y-137090350D01*
X97132759Y-136913724D01*
X97167217Y-136740491D01*
X97234809Y-136577309D01*
X97332938Y-136430449D01*
X97457832Y-136305555D01*
X97604692Y-136207426D01*
X97767874Y-136139834D01*
X97941107Y-136105376D01*
X98117733Y-136105376D01*
X98290966Y-136139834D01*
G37*
G36*
X100830966Y-136139834D02*
G01*
X100994148Y-136207426D01*
X101141008Y-136305555D01*
X101265902Y-136430449D01*
X101364031Y-136577309D01*
X101431623Y-136740491D01*
X101466081Y-136913724D01*
X101466081Y-137090350D01*
X101431623Y-137263583D01*
X101364031Y-137426765D01*
X101265902Y-137573625D01*
X101141008Y-137698519D01*
X100994148Y-137796648D01*
X100830966Y-137864240D01*
X100657733Y-137898698D01*
X100481107Y-137898698D01*
X100307874Y-137864240D01*
X100144692Y-137796648D01*
X99997832Y-137698519D01*
X99872938Y-137573625D01*
X99774809Y-137426765D01*
X99707217Y-137263583D01*
X99672759Y-137090350D01*
X99672759Y-136913724D01*
X99707217Y-136740491D01*
X99774809Y-136577309D01*
X99872938Y-136430449D01*
X99997832Y-136305555D01*
X100144692Y-136207426D01*
X100307874Y-136139834D01*
X100481107Y-136105376D01*
X100657733Y-136105376D01*
X100830966Y-136139834D01*
G37*
G36*
X103370966Y-136139834D02*
G01*
X103534148Y-136207426D01*
X103681008Y-136305555D01*
X103805902Y-136430449D01*
X103904031Y-136577309D01*
X103971623Y-136740491D01*
X104006081Y-136913724D01*
X104006081Y-137090350D01*
X103971623Y-137263583D01*
X103904031Y-137426765D01*
X103805902Y-137573625D01*
X103681008Y-137698519D01*
X103534148Y-137796648D01*
X103370966Y-137864240D01*
X103197733Y-137898698D01*
X103021107Y-137898698D01*
X102847874Y-137864240D01*
X102684692Y-137796648D01*
X102537832Y-137698519D01*
X102412938Y-137573625D01*
X102314809Y-137426765D01*
X102247217Y-137263583D01*
X102212759Y-137090350D01*
X102212759Y-136913724D01*
X102247217Y-136740491D01*
X102314809Y-136577309D01*
X102412938Y-136430449D01*
X102537832Y-136305555D01*
X102684692Y-136207426D01*
X102847874Y-136139834D01*
X103021107Y-136105376D01*
X103197733Y-136105376D01*
X103370966Y-136139834D01*
G37*
G36*
X105910966Y-136139834D02*
G01*
X106074148Y-136207426D01*
X106221008Y-136305555D01*
X106345902Y-136430449D01*
X106444031Y-136577309D01*
X106511623Y-136740491D01*
X106546081Y-136913724D01*
X106546081Y-137090350D01*
X106511623Y-137263583D01*
X106444031Y-137426765D01*
X106345902Y-137573625D01*
X106221008Y-137698519D01*
X106074148Y-137796648D01*
X105910966Y-137864240D01*
X105737733Y-137898698D01*
X105561107Y-137898698D01*
X105387874Y-137864240D01*
X105224692Y-137796648D01*
X105077832Y-137698519D01*
X104952938Y-137573625D01*
X104854809Y-137426765D01*
X104787217Y-137263583D01*
X104752759Y-137090350D01*
X104752759Y-136913724D01*
X104787217Y-136740491D01*
X104854809Y-136577309D01*
X104952938Y-136430449D01*
X105077832Y-136305555D01*
X105224692Y-136207426D01*
X105387874Y-136139834D01*
X105561107Y-136105376D01*
X105737733Y-136105376D01*
X105910966Y-136139834D01*
G37*
G36*
X108450966Y-136139834D02*
G01*
X108614148Y-136207426D01*
X108761008Y-136305555D01*
X108885902Y-136430449D01*
X108984031Y-136577309D01*
X109051623Y-136740491D01*
X109086081Y-136913724D01*
X109086081Y-137090350D01*
X109051623Y-137263583D01*
X108984031Y-137426765D01*
X108885902Y-137573625D01*
X108761008Y-137698519D01*
X108614148Y-137796648D01*
X108450966Y-137864240D01*
X108277733Y-137898698D01*
X108101107Y-137898698D01*
X107927874Y-137864240D01*
X107764692Y-137796648D01*
X107617832Y-137698519D01*
X107492938Y-137573625D01*
X107394809Y-137426765D01*
X107327217Y-137263583D01*
X107292759Y-137090350D01*
X107292759Y-136913724D01*
X107327217Y-136740491D01*
X107394809Y-136577309D01*
X107492938Y-136430449D01*
X107617832Y-136305555D01*
X107764692Y-136207426D01*
X107927874Y-136139834D01*
X108101107Y-136105376D01*
X108277733Y-136105376D01*
X108450966Y-136139834D01*
G37*
G36*
X110990966Y-136139834D02*
G01*
X111154148Y-136207426D01*
X111301008Y-136305555D01*
X111425902Y-136430449D01*
X111524031Y-136577309D01*
X111591623Y-136740491D01*
X111626081Y-136913724D01*
X111626081Y-137090350D01*
X111591623Y-137263583D01*
X111524031Y-137426765D01*
X111425902Y-137573625D01*
X111301008Y-137698519D01*
X111154148Y-137796648D01*
X110990966Y-137864240D01*
X110817733Y-137898698D01*
X110641107Y-137898698D01*
X110467874Y-137864240D01*
X110304692Y-137796648D01*
X110157832Y-137698519D01*
X110032938Y-137573625D01*
X109934809Y-137426765D01*
X109867217Y-137263583D01*
X109832759Y-137090350D01*
X109832759Y-136913724D01*
X109867217Y-136740491D01*
X109934809Y-136577309D01*
X110032938Y-136430449D01*
X110157832Y-136305555D01*
X110304692Y-136207426D01*
X110467874Y-136139834D01*
X110641107Y-136105376D01*
X110817733Y-136105376D01*
X110990966Y-136139834D01*
G37*
G36*
X113530966Y-136139834D02*
G01*
X113694148Y-136207426D01*
X113841008Y-136305555D01*
X113965902Y-136430449D01*
X114064031Y-136577309D01*
X114131623Y-136740491D01*
X114166081Y-136913724D01*
X114166081Y-137090350D01*
X114131623Y-137263583D01*
X114064031Y-137426765D01*
X113965902Y-137573625D01*
X113841008Y-137698519D01*
X113694148Y-137796648D01*
X113530966Y-137864240D01*
X113357733Y-137898698D01*
X113181107Y-137898698D01*
X113007874Y-137864240D01*
X112844692Y-137796648D01*
X112697832Y-137698519D01*
X112572938Y-137573625D01*
X112474809Y-137426765D01*
X112407217Y-137263583D01*
X112372759Y-137090350D01*
X112372759Y-136913724D01*
X112407217Y-136740491D01*
X112474809Y-136577309D01*
X112572938Y-136430449D01*
X112697832Y-136305555D01*
X112844692Y-136207426D01*
X113007874Y-136139834D01*
X113181107Y-136105376D01*
X113357733Y-136105376D01*
X113530966Y-136139834D01*
G37*
G36*
X68828068Y-134133497D02*
G01*
X68897977Y-134156212D01*
X69037801Y-134201643D01*
X69230676Y-134299918D01*
X69234284Y-134301757D01*
X69412690Y-134431377D01*
X69568623Y-134587310D01*
X69698243Y-134765716D01*
X69723731Y-134815739D01*
X69798356Y-134962198D01*
X69820189Y-135029395D01*
X69866503Y-135171932D01*
X69901000Y-135389739D01*
X69901000Y-135610261D01*
X69866503Y-135828068D01*
X69808831Y-136005559D01*
X69798356Y-136037801D01*
X69758524Y-136115975D01*
X69698243Y-136234284D01*
X69568623Y-136412690D01*
X69412690Y-136568623D01*
X69234284Y-136698243D01*
X69151239Y-136740556D01*
X69037801Y-136798356D01*
X69005559Y-136808831D01*
X68828068Y-136866503D01*
X68610261Y-136901000D01*
X68389739Y-136901000D01*
X68171932Y-136866503D01*
X68029395Y-136820189D01*
X67962198Y-136798356D01*
X67815739Y-136723731D01*
X67765716Y-136698243D01*
X67587310Y-136568623D01*
X67431377Y-136412690D01*
X67301757Y-136234284D01*
X67288072Y-136207426D01*
X67201643Y-136037801D01*
X67156212Y-135897977D01*
X67133497Y-135828068D01*
X67099000Y-135610261D01*
X67099000Y-135389739D01*
X67133497Y-135171932D01*
X67144854Y-135136977D01*
X67201643Y-134962198D01*
X67301755Y-134765719D01*
X67431378Y-134587308D01*
X67587308Y-134431378D01*
X67765719Y-134301755D01*
X67962198Y-134201643D01*
X68136977Y-134144854D01*
X68171932Y-134133497D01*
X68389739Y-134099000D01*
X68610261Y-134099000D01*
X68828068Y-134133497D01*
G37*
G36*
X137578068Y-134133497D02*
G01*
X137647977Y-134156212D01*
X137787801Y-134201643D01*
X137980676Y-134299918D01*
X137984284Y-134301757D01*
X138162690Y-134431377D01*
X138318623Y-134587310D01*
X138448243Y-134765716D01*
X138473731Y-134815739D01*
X138548356Y-134962198D01*
X138570189Y-135029395D01*
X138616503Y-135171932D01*
X138651000Y-135389739D01*
X138651000Y-135610261D01*
X138616503Y-135828068D01*
X138558831Y-136005559D01*
X138548356Y-136037801D01*
X138508524Y-136115975D01*
X138448243Y-136234284D01*
X138318623Y-136412690D01*
X138162690Y-136568623D01*
X137984284Y-136698243D01*
X137901239Y-136740556D01*
X137787801Y-136798356D01*
X137755559Y-136808831D01*
X137578068Y-136866503D01*
X137360261Y-136901000D01*
X137139739Y-136901000D01*
X136921932Y-136866503D01*
X136779395Y-136820189D01*
X136712198Y-136798356D01*
X136565739Y-136723731D01*
X136515716Y-136698243D01*
X136337310Y-136568623D01*
X136181377Y-136412690D01*
X136051757Y-136234284D01*
X136038072Y-136207426D01*
X135951643Y-136037801D01*
X135906212Y-135897977D01*
X135883497Y-135828068D01*
X135849000Y-135610261D01*
X135849000Y-135389739D01*
X135883497Y-135171932D01*
X135894854Y-135136977D01*
X135951643Y-134962198D01*
X136051755Y-134765719D01*
X136181378Y-134587308D01*
X136337308Y-134431378D01*
X136515719Y-134301755D01*
X136712198Y-134201643D01*
X136886977Y-134144854D01*
X136921932Y-134133497D01*
X137139739Y-134099000D01*
X137360261Y-134099000D01*
X137578068Y-134133497D01*
G37*
G36*
X70112490Y-107746098D02*
G01*
X70122436Y-107746098D01*
X70161301Y-107753828D01*
X70264736Y-107770211D01*
X70298008Y-107781021D01*
X70324509Y-107786293D01*
X70361902Y-107801781D01*
X70421571Y-107821169D01*
X70477474Y-107849653D01*
X70514858Y-107865138D01*
X70537316Y-107880144D01*
X70568490Y-107896028D01*
X70653219Y-107957588D01*
X70686167Y-107979603D01*
X70693200Y-107986636D01*
X70701900Y-107992957D01*
X70818499Y-108109556D01*
X70824819Y-108118255D01*
X70831854Y-108125290D01*
X70853872Y-108158242D01*
X70915428Y-108242966D01*
X70931310Y-108274137D01*
X70946319Y-108296599D01*
X70961805Y-108333987D01*
X70990287Y-108389885D01*
X71009672Y-108449547D01*
X71025164Y-108486948D01*
X71030436Y-108513454D01*
X71041245Y-108546720D01*
X71057626Y-108650147D01*
X71065359Y-108689021D01*
X71065359Y-108698967D01*
X71067041Y-108709587D01*
X71067041Y-108874486D01*
X71065359Y-108885105D01*
X71065359Y-108895053D01*
X71057625Y-108933930D01*
X71041245Y-109037353D01*
X71030436Y-109070617D01*
X71025164Y-109097126D01*
X71009670Y-109134530D01*
X70990287Y-109194188D01*
X70961808Y-109250081D01*
X70946319Y-109287475D01*
X70931308Y-109309939D01*
X70915428Y-109341107D01*
X70853880Y-109425819D01*
X70831854Y-109458784D01*
X70824817Y-109465820D01*
X70818499Y-109474517D01*
X70701900Y-109591116D01*
X70693203Y-109597434D01*
X70686167Y-109604471D01*
X70653202Y-109626497D01*
X70568490Y-109688045D01*
X70537322Y-109703925D01*
X70514858Y-109718936D01*
X70477464Y-109734425D01*
X70421571Y-109762904D01*
X70361913Y-109782287D01*
X70324509Y-109797781D01*
X70298000Y-109803053D01*
X70264736Y-109813862D01*
X70161310Y-109830243D01*
X70122436Y-109837976D01*
X70112489Y-109837976D01*
X70101870Y-109839658D01*
X69936970Y-109839658D01*
X69926350Y-109837976D01*
X69916404Y-109837976D01*
X69877530Y-109830243D01*
X69774103Y-109813862D01*
X69740837Y-109803053D01*
X69714331Y-109797781D01*
X69676930Y-109782289D01*
X69617268Y-109762904D01*
X69561370Y-109734422D01*
X69523982Y-109718936D01*
X69501520Y-109703927D01*
X69470349Y-109688045D01*
X69385625Y-109626489D01*
X69352673Y-109604471D01*
X69345638Y-109597436D01*
X69336939Y-109591116D01*
X69220340Y-109474517D01*
X69214019Y-109465817D01*
X69206986Y-109458784D01*
X69184971Y-109425836D01*
X69123411Y-109341107D01*
X69107527Y-109309933D01*
X69092521Y-109287475D01*
X69077036Y-109250091D01*
X69048552Y-109194188D01*
X69029164Y-109134519D01*
X69013676Y-109097126D01*
X69008404Y-109070625D01*
X68997594Y-109037353D01*
X68981212Y-108933921D01*
X68973481Y-108895053D01*
X68973481Y-108885105D01*
X68971799Y-108874486D01*
X68971799Y-108709587D01*
X68973481Y-108698967D01*
X68973481Y-108689021D01*
X68981211Y-108650156D01*
X68997594Y-108546720D01*
X69008405Y-108513446D01*
X69013676Y-108486948D01*
X69029163Y-108449558D01*
X69048552Y-108389885D01*
X69077038Y-108333977D01*
X69092521Y-108296599D01*
X69107525Y-108274143D01*
X69123411Y-108242966D01*
X69184979Y-108158225D01*
X69206986Y-108125290D01*
X69214016Y-108118259D01*
X69220340Y-108109556D01*
X69336939Y-107992957D01*
X69345642Y-107986633D01*
X69352673Y-107979603D01*
X69385608Y-107957596D01*
X69470349Y-107896028D01*
X69501526Y-107880142D01*
X69523982Y-107865138D01*
X69561360Y-107849655D01*
X69617268Y-107821169D01*
X69676941Y-107801780D01*
X69714331Y-107786293D01*
X69740829Y-107781022D01*
X69774103Y-107770211D01*
X69877539Y-107753828D01*
X69916404Y-107746098D01*
X69926350Y-107746098D01*
X69936970Y-107744416D01*
X70101870Y-107744416D01*
X70112490Y-107746098D01*
G37*
G36*
X77612490Y-107726098D02*
G01*
X77622436Y-107726098D01*
X77661301Y-107733828D01*
X77764736Y-107750211D01*
X77798008Y-107761021D01*
X77824509Y-107766293D01*
X77861902Y-107781781D01*
X77921571Y-107801169D01*
X77977474Y-107829653D01*
X78014858Y-107845138D01*
X78037316Y-107860144D01*
X78068490Y-107876028D01*
X78153219Y-107937588D01*
X78186167Y-107959603D01*
X78193200Y-107966636D01*
X78201900Y-107972957D01*
X78318499Y-108089556D01*
X78324819Y-108098255D01*
X78331854Y-108105290D01*
X78353872Y-108138242D01*
X78415428Y-108222966D01*
X78431310Y-108254137D01*
X78446319Y-108276599D01*
X78461805Y-108313987D01*
X78490287Y-108369885D01*
X78509672Y-108429547D01*
X78525164Y-108466948D01*
X78530436Y-108493454D01*
X78541245Y-108526720D01*
X78557626Y-108630147D01*
X78565359Y-108669021D01*
X78565359Y-108678967D01*
X78567041Y-108689587D01*
X78567041Y-108854486D01*
X78565359Y-108865105D01*
X78565359Y-108875053D01*
X78557625Y-108913930D01*
X78541245Y-109017353D01*
X78530436Y-109050617D01*
X78525164Y-109077126D01*
X78509670Y-109114530D01*
X78490287Y-109174188D01*
X78461808Y-109230081D01*
X78446319Y-109267475D01*
X78431308Y-109289939D01*
X78415428Y-109321107D01*
X78353880Y-109405819D01*
X78331854Y-109438784D01*
X78324817Y-109445820D01*
X78318499Y-109454517D01*
X78201900Y-109571116D01*
X78193203Y-109577434D01*
X78186167Y-109584471D01*
X78153202Y-109606497D01*
X78068490Y-109668045D01*
X78037322Y-109683925D01*
X78014858Y-109698936D01*
X77977464Y-109714425D01*
X77921571Y-109742904D01*
X77861913Y-109762287D01*
X77824509Y-109777781D01*
X77798000Y-109783053D01*
X77764736Y-109793862D01*
X77661310Y-109810243D01*
X77622436Y-109817976D01*
X77612489Y-109817976D01*
X77601870Y-109819658D01*
X77436970Y-109819658D01*
X77426350Y-109817976D01*
X77416404Y-109817976D01*
X77377530Y-109810243D01*
X77274103Y-109793862D01*
X77240837Y-109783053D01*
X77214331Y-109777781D01*
X77176930Y-109762289D01*
X77117268Y-109742904D01*
X77061370Y-109714422D01*
X77023982Y-109698936D01*
X77001520Y-109683927D01*
X76970349Y-109668045D01*
X76885625Y-109606489D01*
X76852673Y-109584471D01*
X76845638Y-109577436D01*
X76836939Y-109571116D01*
X76720340Y-109454517D01*
X76714019Y-109445817D01*
X76706986Y-109438784D01*
X76684971Y-109405836D01*
X76623411Y-109321107D01*
X76607527Y-109289933D01*
X76592521Y-109267475D01*
X76577036Y-109230091D01*
X76548552Y-109174188D01*
X76529164Y-109114519D01*
X76513676Y-109077126D01*
X76508404Y-109050625D01*
X76497594Y-109017353D01*
X76481212Y-108913921D01*
X76473481Y-108875053D01*
X76473481Y-108865105D01*
X76471799Y-108854486D01*
X76471799Y-108689587D01*
X76473481Y-108678967D01*
X76473481Y-108669021D01*
X76481211Y-108630156D01*
X76497594Y-108526720D01*
X76508405Y-108493446D01*
X76513676Y-108466948D01*
X76529163Y-108429558D01*
X76548552Y-108369885D01*
X76577038Y-108313977D01*
X76592521Y-108276599D01*
X76607525Y-108254143D01*
X76623411Y-108222966D01*
X76684979Y-108138225D01*
X76706986Y-108105290D01*
X76714016Y-108098259D01*
X76720340Y-108089556D01*
X76836939Y-107972957D01*
X76845642Y-107966633D01*
X76852673Y-107959603D01*
X76885608Y-107937596D01*
X76970349Y-107876028D01*
X77001526Y-107860142D01*
X77023982Y-107845138D01*
X77061360Y-107829655D01*
X77117268Y-107801169D01*
X77176941Y-107781780D01*
X77214331Y-107766293D01*
X77240829Y-107761022D01*
X77274103Y-107750211D01*
X77377539Y-107733828D01*
X77416404Y-107726098D01*
X77426350Y-107726098D01*
X77436970Y-107724416D01*
X77601870Y-107724416D01*
X77612490Y-107726098D01*
G37*
G36*
X70112490Y-103156098D02*
G01*
X70122436Y-103156098D01*
X70161301Y-103163828D01*
X70264736Y-103180211D01*
X70298008Y-103191021D01*
X70324509Y-103196293D01*
X70361902Y-103211781D01*
X70421571Y-103231169D01*
X70477474Y-103259653D01*
X70514858Y-103275138D01*
X70537316Y-103290144D01*
X70568490Y-103306028D01*
X70653219Y-103367588D01*
X70686167Y-103389603D01*
X70693200Y-103396636D01*
X70701900Y-103402957D01*
X70818499Y-103519556D01*
X70824819Y-103528255D01*
X70831854Y-103535290D01*
X70853872Y-103568242D01*
X70915428Y-103652966D01*
X70931310Y-103684137D01*
X70946319Y-103706599D01*
X70961805Y-103743987D01*
X70990287Y-103799885D01*
X71009672Y-103859547D01*
X71025164Y-103896948D01*
X71030436Y-103923454D01*
X71041245Y-103956720D01*
X71057626Y-104060147D01*
X71065359Y-104099021D01*
X71065359Y-104108967D01*
X71067041Y-104119587D01*
X71067041Y-104284486D01*
X71065359Y-104295105D01*
X71065359Y-104305053D01*
X71057625Y-104343930D01*
X71041245Y-104447353D01*
X71030436Y-104480617D01*
X71025164Y-104507126D01*
X71009670Y-104544530D01*
X70990287Y-104604188D01*
X70961808Y-104660081D01*
X70946319Y-104697475D01*
X70931308Y-104719939D01*
X70915428Y-104751107D01*
X70853880Y-104835819D01*
X70831854Y-104868784D01*
X70824817Y-104875820D01*
X70818499Y-104884517D01*
X70701900Y-105001116D01*
X70693203Y-105007434D01*
X70686167Y-105014471D01*
X70653202Y-105036497D01*
X70568490Y-105098045D01*
X70537322Y-105113925D01*
X70514858Y-105128936D01*
X70477464Y-105144425D01*
X70421571Y-105172904D01*
X70361913Y-105192287D01*
X70324509Y-105207781D01*
X70298000Y-105213053D01*
X70264736Y-105223862D01*
X70161310Y-105240243D01*
X70122436Y-105247976D01*
X70112489Y-105247976D01*
X70101870Y-105249658D01*
X69936970Y-105249658D01*
X69926350Y-105247976D01*
X69916404Y-105247976D01*
X69877530Y-105240243D01*
X69774103Y-105223862D01*
X69740837Y-105213053D01*
X69714331Y-105207781D01*
X69676930Y-105192289D01*
X69617268Y-105172904D01*
X69561370Y-105144422D01*
X69523982Y-105128936D01*
X69501520Y-105113927D01*
X69470349Y-105098045D01*
X69385625Y-105036489D01*
X69352673Y-105014471D01*
X69345638Y-105007436D01*
X69336939Y-105001116D01*
X69220340Y-104884517D01*
X69214019Y-104875817D01*
X69206986Y-104868784D01*
X69184971Y-104835836D01*
X69123411Y-104751107D01*
X69107527Y-104719933D01*
X69092521Y-104697475D01*
X69077036Y-104660091D01*
X69048552Y-104604188D01*
X69029164Y-104544519D01*
X69013676Y-104507126D01*
X69008404Y-104480625D01*
X68997594Y-104447353D01*
X68981212Y-104343921D01*
X68973481Y-104305053D01*
X68973481Y-104295105D01*
X68971799Y-104284486D01*
X68971799Y-104119587D01*
X68973481Y-104108967D01*
X68973481Y-104099021D01*
X68981211Y-104060156D01*
X68997594Y-103956720D01*
X69008405Y-103923446D01*
X69013676Y-103896948D01*
X69029163Y-103859558D01*
X69048552Y-103799885D01*
X69077038Y-103743977D01*
X69092521Y-103706599D01*
X69107525Y-103684143D01*
X69123411Y-103652966D01*
X69184979Y-103568225D01*
X69206986Y-103535290D01*
X69214016Y-103528259D01*
X69220340Y-103519556D01*
X69336939Y-103402957D01*
X69345642Y-103396633D01*
X69352673Y-103389603D01*
X69385608Y-103367596D01*
X69470349Y-103306028D01*
X69501526Y-103290142D01*
X69523982Y-103275138D01*
X69561360Y-103259655D01*
X69617268Y-103231169D01*
X69676941Y-103211780D01*
X69714331Y-103196293D01*
X69740829Y-103191022D01*
X69774103Y-103180211D01*
X69877539Y-103163828D01*
X69916404Y-103156098D01*
X69926350Y-103156098D01*
X69936970Y-103154416D01*
X70101870Y-103154416D01*
X70112490Y-103156098D01*
G37*
G36*
X77612490Y-103136098D02*
G01*
X77622436Y-103136098D01*
X77661301Y-103143828D01*
X77764736Y-103160211D01*
X77798008Y-103171021D01*
X77824509Y-103176293D01*
X77861902Y-103191781D01*
X77921571Y-103211169D01*
X77977474Y-103239653D01*
X78014858Y-103255138D01*
X78037316Y-103270144D01*
X78068490Y-103286028D01*
X78153219Y-103347588D01*
X78186167Y-103369603D01*
X78193200Y-103376636D01*
X78201900Y-103382957D01*
X78318499Y-103499556D01*
X78324819Y-103508255D01*
X78331854Y-103515290D01*
X78353872Y-103548242D01*
X78415428Y-103632966D01*
X78431310Y-103664137D01*
X78446319Y-103686599D01*
X78461805Y-103723987D01*
X78490287Y-103779885D01*
X78509672Y-103839547D01*
X78525164Y-103876948D01*
X78530436Y-103903454D01*
X78541245Y-103936720D01*
X78557626Y-104040147D01*
X78565359Y-104079021D01*
X78565359Y-104088967D01*
X78567041Y-104099587D01*
X78567041Y-104264486D01*
X78565359Y-104275105D01*
X78565359Y-104285053D01*
X78557625Y-104323930D01*
X78541245Y-104427353D01*
X78530436Y-104460617D01*
X78525164Y-104487126D01*
X78509670Y-104524530D01*
X78490287Y-104584188D01*
X78461808Y-104640081D01*
X78446319Y-104677475D01*
X78431308Y-104699939D01*
X78415428Y-104731107D01*
X78353880Y-104815819D01*
X78331854Y-104848784D01*
X78324817Y-104855820D01*
X78318499Y-104864517D01*
X78201900Y-104981116D01*
X78193203Y-104987434D01*
X78186167Y-104994471D01*
X78153202Y-105016497D01*
X78068490Y-105078045D01*
X78037322Y-105093925D01*
X78014858Y-105108936D01*
X77977464Y-105124425D01*
X77921571Y-105152904D01*
X77861913Y-105172287D01*
X77824509Y-105187781D01*
X77798000Y-105193053D01*
X77764736Y-105203862D01*
X77661310Y-105220243D01*
X77622436Y-105227976D01*
X77612489Y-105227976D01*
X77601870Y-105229658D01*
X77436970Y-105229658D01*
X77426350Y-105227976D01*
X77416404Y-105227976D01*
X77377530Y-105220243D01*
X77274103Y-105203862D01*
X77240837Y-105193053D01*
X77214331Y-105187781D01*
X77176930Y-105172289D01*
X77117268Y-105152904D01*
X77061370Y-105124422D01*
X77023982Y-105108936D01*
X77001520Y-105093927D01*
X76970349Y-105078045D01*
X76885625Y-105016489D01*
X76852673Y-104994471D01*
X76845638Y-104987436D01*
X76836939Y-104981116D01*
X76720340Y-104864517D01*
X76714019Y-104855817D01*
X76706986Y-104848784D01*
X76684971Y-104815836D01*
X76623411Y-104731107D01*
X76607527Y-104699933D01*
X76592521Y-104677475D01*
X76577036Y-104640091D01*
X76548552Y-104584188D01*
X76529164Y-104524519D01*
X76513676Y-104487126D01*
X76508404Y-104460625D01*
X76497594Y-104427353D01*
X76481212Y-104323921D01*
X76473481Y-104285053D01*
X76473481Y-104275105D01*
X76471799Y-104264486D01*
X76471799Y-104099587D01*
X76473481Y-104088967D01*
X76473481Y-104079021D01*
X76481211Y-104040156D01*
X76497594Y-103936720D01*
X76508405Y-103903446D01*
X76513676Y-103876948D01*
X76529163Y-103839558D01*
X76548552Y-103779885D01*
X76577038Y-103723977D01*
X76592521Y-103686599D01*
X76607525Y-103664143D01*
X76623411Y-103632966D01*
X76684979Y-103548225D01*
X76706986Y-103515290D01*
X76714016Y-103508259D01*
X76720340Y-103499556D01*
X76836939Y-103382957D01*
X76845642Y-103376633D01*
X76852673Y-103369603D01*
X76885608Y-103347596D01*
X76970349Y-103286028D01*
X77001526Y-103270142D01*
X77023982Y-103255138D01*
X77061360Y-103239655D01*
X77117268Y-103211169D01*
X77176941Y-103191780D01*
X77214331Y-103176293D01*
X77240829Y-103171022D01*
X77274103Y-103160211D01*
X77377539Y-103143828D01*
X77416404Y-103136098D01*
X77426350Y-103136098D01*
X77436970Y-103134416D01*
X77601870Y-103134416D01*
X77612490Y-103136098D01*
G37*
G36*
X70112490Y-98566098D02*
G01*
X70122436Y-98566098D01*
X70161301Y-98573828D01*
X70264736Y-98590211D01*
X70298008Y-98601021D01*
X70324509Y-98606293D01*
X70361902Y-98621781D01*
X70421571Y-98641169D01*
X70477474Y-98669653D01*
X70514858Y-98685138D01*
X70537316Y-98700144D01*
X70568490Y-98716028D01*
X70653219Y-98777588D01*
X70686167Y-98799603D01*
X70693200Y-98806636D01*
X70701900Y-98812957D01*
X70818499Y-98929556D01*
X70824819Y-98938255D01*
X70831854Y-98945290D01*
X70853872Y-98978242D01*
X70915428Y-99062966D01*
X70931310Y-99094137D01*
X70946319Y-99116599D01*
X70961805Y-99153987D01*
X70990287Y-99209885D01*
X71009672Y-99269547D01*
X71025164Y-99306948D01*
X71030436Y-99333454D01*
X71041245Y-99366720D01*
X71057626Y-99470147D01*
X71065359Y-99509021D01*
X71065359Y-99518967D01*
X71067041Y-99529587D01*
X71067041Y-99694486D01*
X71065359Y-99705105D01*
X71065359Y-99715053D01*
X71057625Y-99753930D01*
X71041245Y-99857353D01*
X71030436Y-99890617D01*
X71025164Y-99917126D01*
X71009670Y-99954530D01*
X70990287Y-100014188D01*
X70961808Y-100070081D01*
X70946319Y-100107475D01*
X70931308Y-100129939D01*
X70915428Y-100161107D01*
X70853880Y-100245819D01*
X70831854Y-100278784D01*
X70824817Y-100285820D01*
X70818499Y-100294517D01*
X70701900Y-100411116D01*
X70693203Y-100417434D01*
X70686167Y-100424471D01*
X70653202Y-100446497D01*
X70568490Y-100508045D01*
X70537322Y-100523925D01*
X70514858Y-100538936D01*
X70477464Y-100554425D01*
X70421571Y-100582904D01*
X70361913Y-100602287D01*
X70324509Y-100617781D01*
X70298000Y-100623053D01*
X70264736Y-100633862D01*
X70161310Y-100650243D01*
X70122436Y-100657976D01*
X70112489Y-100657976D01*
X70101870Y-100659658D01*
X69936970Y-100659658D01*
X69926350Y-100657976D01*
X69916404Y-100657976D01*
X69877530Y-100650243D01*
X69774103Y-100633862D01*
X69740837Y-100623053D01*
X69714331Y-100617781D01*
X69676930Y-100602289D01*
X69617268Y-100582904D01*
X69561370Y-100554422D01*
X69523982Y-100538936D01*
X69501520Y-100523927D01*
X69470349Y-100508045D01*
X69385625Y-100446489D01*
X69352673Y-100424471D01*
X69345638Y-100417436D01*
X69336939Y-100411116D01*
X69220340Y-100294517D01*
X69214019Y-100285817D01*
X69206986Y-100278784D01*
X69184971Y-100245836D01*
X69123411Y-100161107D01*
X69107527Y-100129933D01*
X69092521Y-100107475D01*
X69077036Y-100070091D01*
X69048552Y-100014188D01*
X69029164Y-99954519D01*
X69013676Y-99917126D01*
X69008404Y-99890625D01*
X68997594Y-99857353D01*
X68981212Y-99753921D01*
X68973481Y-99715053D01*
X68973481Y-99705105D01*
X68971799Y-99694486D01*
X68971799Y-99529587D01*
X68973481Y-99518967D01*
X68973481Y-99509021D01*
X68981211Y-99470156D01*
X68997594Y-99366720D01*
X69008405Y-99333446D01*
X69013676Y-99306948D01*
X69029163Y-99269558D01*
X69048552Y-99209885D01*
X69077038Y-99153977D01*
X69092521Y-99116599D01*
X69107525Y-99094143D01*
X69123411Y-99062966D01*
X69184979Y-98978225D01*
X69206986Y-98945290D01*
X69214016Y-98938259D01*
X69220340Y-98929556D01*
X69336939Y-98812957D01*
X69345642Y-98806633D01*
X69352673Y-98799603D01*
X69385608Y-98777596D01*
X69470349Y-98716028D01*
X69501526Y-98700142D01*
X69523982Y-98685138D01*
X69561360Y-98669655D01*
X69617268Y-98641169D01*
X69676941Y-98621780D01*
X69714331Y-98606293D01*
X69740829Y-98601022D01*
X69774103Y-98590211D01*
X69877539Y-98573828D01*
X69916404Y-98566098D01*
X69926350Y-98566098D01*
X69936970Y-98564416D01*
X70101870Y-98564416D01*
X70112490Y-98566098D01*
G37*
G36*
X77612490Y-98546098D02*
G01*
X77622436Y-98546098D01*
X77661301Y-98553828D01*
X77764736Y-98570211D01*
X77798008Y-98581021D01*
X77824509Y-98586293D01*
X77861902Y-98601781D01*
X77921571Y-98621169D01*
X77977474Y-98649653D01*
X78014858Y-98665138D01*
X78037316Y-98680144D01*
X78068490Y-98696028D01*
X78153219Y-98757588D01*
X78186167Y-98779603D01*
X78193200Y-98786636D01*
X78201900Y-98792957D01*
X78318499Y-98909556D01*
X78324819Y-98918255D01*
X78331854Y-98925290D01*
X78353872Y-98958242D01*
X78415428Y-99042966D01*
X78431310Y-99074137D01*
X78446319Y-99096599D01*
X78461805Y-99133987D01*
X78490287Y-99189885D01*
X78509672Y-99249547D01*
X78525164Y-99286948D01*
X78530436Y-99313454D01*
X78541245Y-99346720D01*
X78557626Y-99450147D01*
X78565359Y-99489021D01*
X78565359Y-99498967D01*
X78567041Y-99509587D01*
X78567041Y-99674486D01*
X78565359Y-99685105D01*
X78565359Y-99695053D01*
X78557625Y-99733930D01*
X78541245Y-99837353D01*
X78530436Y-99870617D01*
X78525164Y-99897126D01*
X78509670Y-99934530D01*
X78490287Y-99994188D01*
X78461808Y-100050081D01*
X78446319Y-100087475D01*
X78431308Y-100109939D01*
X78415428Y-100141107D01*
X78353880Y-100225819D01*
X78331854Y-100258784D01*
X78324817Y-100265820D01*
X78318499Y-100274517D01*
X78201900Y-100391116D01*
X78193203Y-100397434D01*
X78186167Y-100404471D01*
X78153202Y-100426497D01*
X78068490Y-100488045D01*
X78037322Y-100503925D01*
X78014858Y-100518936D01*
X77977464Y-100534425D01*
X77921571Y-100562904D01*
X77861913Y-100582287D01*
X77824509Y-100597781D01*
X77798000Y-100603053D01*
X77764736Y-100613862D01*
X77661310Y-100630243D01*
X77622436Y-100637976D01*
X77612489Y-100637976D01*
X77601870Y-100639658D01*
X77436970Y-100639658D01*
X77426350Y-100637976D01*
X77416404Y-100637976D01*
X77377530Y-100630243D01*
X77274103Y-100613862D01*
X77240837Y-100603053D01*
X77214331Y-100597781D01*
X77176930Y-100582289D01*
X77117268Y-100562904D01*
X77061370Y-100534422D01*
X77023982Y-100518936D01*
X77001520Y-100503927D01*
X76970349Y-100488045D01*
X76885625Y-100426489D01*
X76852673Y-100404471D01*
X76845638Y-100397436D01*
X76836939Y-100391116D01*
X76720340Y-100274517D01*
X76714019Y-100265817D01*
X76706986Y-100258784D01*
X76684971Y-100225836D01*
X76623411Y-100141107D01*
X76607527Y-100109933D01*
X76592521Y-100087475D01*
X76577036Y-100050091D01*
X76548552Y-99994188D01*
X76529164Y-99934519D01*
X76513676Y-99897126D01*
X76508404Y-99870625D01*
X76497594Y-99837353D01*
X76481212Y-99733921D01*
X76473481Y-99695053D01*
X76473481Y-99685105D01*
X76471799Y-99674486D01*
X76471799Y-99509587D01*
X76473481Y-99498967D01*
X76473481Y-99489021D01*
X76481211Y-99450156D01*
X76497594Y-99346720D01*
X76508405Y-99313446D01*
X76513676Y-99286948D01*
X76529163Y-99249558D01*
X76548552Y-99189885D01*
X76577038Y-99133977D01*
X76592521Y-99096599D01*
X76607525Y-99074143D01*
X76623411Y-99042966D01*
X76684979Y-98958225D01*
X76706986Y-98925290D01*
X76714016Y-98918259D01*
X76720340Y-98909556D01*
X76836939Y-98792957D01*
X76845642Y-98786633D01*
X76852673Y-98779603D01*
X76885608Y-98757596D01*
X76970349Y-98696028D01*
X77001526Y-98680142D01*
X77023982Y-98665138D01*
X77061360Y-98649655D01*
X77117268Y-98621169D01*
X77176941Y-98601780D01*
X77214331Y-98586293D01*
X77240829Y-98581022D01*
X77274103Y-98570211D01*
X77377539Y-98553828D01*
X77416404Y-98546098D01*
X77426350Y-98546098D01*
X77436970Y-98544416D01*
X77601870Y-98544416D01*
X77612490Y-98546098D01*
G37*
G36*
X70112490Y-93976098D02*
G01*
X70122436Y-93976098D01*
X70161301Y-93983828D01*
X70264736Y-94000211D01*
X70298008Y-94011021D01*
X70324509Y-94016293D01*
X70361902Y-94031781D01*
X70421571Y-94051169D01*
X70477474Y-94079653D01*
X70514858Y-94095138D01*
X70537316Y-94110144D01*
X70568490Y-94126028D01*
X70653219Y-94187588D01*
X70686167Y-94209603D01*
X70693200Y-94216636D01*
X70701900Y-94222957D01*
X70818499Y-94339556D01*
X70824819Y-94348255D01*
X70831854Y-94355290D01*
X70853872Y-94388242D01*
X70915428Y-94472966D01*
X70931310Y-94504137D01*
X70946319Y-94526599D01*
X70961805Y-94563987D01*
X70990287Y-94619885D01*
X71009672Y-94679547D01*
X71025164Y-94716948D01*
X71030436Y-94743454D01*
X71041245Y-94776720D01*
X71057626Y-94880147D01*
X71065359Y-94919021D01*
X71065359Y-94928967D01*
X71067041Y-94939587D01*
X71067041Y-95104486D01*
X71065359Y-95115105D01*
X71065359Y-95125053D01*
X71057625Y-95163930D01*
X71041245Y-95267353D01*
X71030436Y-95300617D01*
X71025164Y-95327126D01*
X71009670Y-95364530D01*
X70990287Y-95424188D01*
X70961808Y-95480081D01*
X70946319Y-95517475D01*
X70931308Y-95539939D01*
X70915428Y-95571107D01*
X70853880Y-95655819D01*
X70831854Y-95688784D01*
X70824817Y-95695820D01*
X70818499Y-95704517D01*
X70701900Y-95821116D01*
X70693203Y-95827434D01*
X70686167Y-95834471D01*
X70653202Y-95856497D01*
X70568490Y-95918045D01*
X70537322Y-95933925D01*
X70514858Y-95948936D01*
X70477464Y-95964425D01*
X70421571Y-95992904D01*
X70361913Y-96012287D01*
X70324509Y-96027781D01*
X70298000Y-96033053D01*
X70264736Y-96043862D01*
X70161310Y-96060243D01*
X70122436Y-96067976D01*
X70112489Y-96067976D01*
X70101870Y-96069658D01*
X69936970Y-96069658D01*
X69926350Y-96067976D01*
X69916404Y-96067976D01*
X69877530Y-96060243D01*
X69774103Y-96043862D01*
X69740837Y-96033053D01*
X69714331Y-96027781D01*
X69676930Y-96012289D01*
X69617268Y-95992904D01*
X69561370Y-95964422D01*
X69523982Y-95948936D01*
X69501520Y-95933927D01*
X69470349Y-95918045D01*
X69385625Y-95856489D01*
X69352673Y-95834471D01*
X69345638Y-95827436D01*
X69336939Y-95821116D01*
X69220340Y-95704517D01*
X69214019Y-95695817D01*
X69206986Y-95688784D01*
X69184971Y-95655836D01*
X69123411Y-95571107D01*
X69107527Y-95539933D01*
X69092521Y-95517475D01*
X69077036Y-95480091D01*
X69048552Y-95424188D01*
X69029164Y-95364519D01*
X69013676Y-95327126D01*
X69008404Y-95300625D01*
X68997594Y-95267353D01*
X68981212Y-95163921D01*
X68973481Y-95125053D01*
X68973481Y-95115105D01*
X68971799Y-95104486D01*
X68971799Y-94939587D01*
X68973481Y-94928967D01*
X68973481Y-94919021D01*
X68981211Y-94880156D01*
X68997594Y-94776720D01*
X69008405Y-94743446D01*
X69013676Y-94716948D01*
X69029163Y-94679558D01*
X69048552Y-94619885D01*
X69077038Y-94563977D01*
X69092521Y-94526599D01*
X69107525Y-94504143D01*
X69123411Y-94472966D01*
X69184979Y-94388225D01*
X69206986Y-94355290D01*
X69214016Y-94348259D01*
X69220340Y-94339556D01*
X69336939Y-94222957D01*
X69345642Y-94216633D01*
X69352673Y-94209603D01*
X69385608Y-94187596D01*
X69470349Y-94126028D01*
X69501526Y-94110142D01*
X69523982Y-94095138D01*
X69561360Y-94079655D01*
X69617268Y-94051169D01*
X69676941Y-94031780D01*
X69714331Y-94016293D01*
X69740829Y-94011022D01*
X69774103Y-94000211D01*
X69877539Y-93983828D01*
X69916404Y-93976098D01*
X69926350Y-93976098D01*
X69936970Y-93974416D01*
X70101870Y-93974416D01*
X70112490Y-93976098D01*
G37*
G36*
X77612490Y-93956098D02*
G01*
X77622436Y-93956098D01*
X77661301Y-93963828D01*
X77764736Y-93980211D01*
X77798008Y-93991021D01*
X77824509Y-93996293D01*
X77861902Y-94011781D01*
X77921571Y-94031169D01*
X77977474Y-94059653D01*
X78014858Y-94075138D01*
X78037316Y-94090144D01*
X78068490Y-94106028D01*
X78153219Y-94167588D01*
X78186167Y-94189603D01*
X78193200Y-94196636D01*
X78201900Y-94202957D01*
X78318499Y-94319556D01*
X78324819Y-94328255D01*
X78331854Y-94335290D01*
X78353872Y-94368242D01*
X78415428Y-94452966D01*
X78431310Y-94484137D01*
X78446319Y-94506599D01*
X78461805Y-94543987D01*
X78490287Y-94599885D01*
X78509672Y-94659547D01*
X78525164Y-94696948D01*
X78530436Y-94723454D01*
X78541245Y-94756720D01*
X78557626Y-94860147D01*
X78565359Y-94899021D01*
X78565359Y-94908967D01*
X78567041Y-94919587D01*
X78567041Y-95084486D01*
X78565359Y-95095105D01*
X78565359Y-95105053D01*
X78557625Y-95143930D01*
X78541245Y-95247353D01*
X78530436Y-95280617D01*
X78525164Y-95307126D01*
X78509670Y-95344530D01*
X78490287Y-95404188D01*
X78461808Y-95460081D01*
X78446319Y-95497475D01*
X78431308Y-95519939D01*
X78415428Y-95551107D01*
X78353880Y-95635819D01*
X78331854Y-95668784D01*
X78324817Y-95675820D01*
X78318499Y-95684517D01*
X78201900Y-95801116D01*
X78193203Y-95807434D01*
X78186167Y-95814471D01*
X78153202Y-95836497D01*
X78068490Y-95898045D01*
X78037322Y-95913925D01*
X78014858Y-95928936D01*
X77977464Y-95944425D01*
X77921571Y-95972904D01*
X77861913Y-95992287D01*
X77824509Y-96007781D01*
X77798000Y-96013053D01*
X77764736Y-96023862D01*
X77661310Y-96040243D01*
X77622436Y-96047976D01*
X77612489Y-96047976D01*
X77601870Y-96049658D01*
X77436970Y-96049658D01*
X77426350Y-96047976D01*
X77416404Y-96047976D01*
X77377530Y-96040243D01*
X77274103Y-96023862D01*
X77240837Y-96013053D01*
X77214331Y-96007781D01*
X77176930Y-95992289D01*
X77117268Y-95972904D01*
X77061370Y-95944422D01*
X77023982Y-95928936D01*
X77001520Y-95913927D01*
X76970349Y-95898045D01*
X76885625Y-95836489D01*
X76852673Y-95814471D01*
X76845638Y-95807436D01*
X76836939Y-95801116D01*
X76720340Y-95684517D01*
X76714019Y-95675817D01*
X76706986Y-95668784D01*
X76684971Y-95635836D01*
X76623411Y-95551107D01*
X76607527Y-95519933D01*
X76592521Y-95497475D01*
X76577036Y-95460091D01*
X76548552Y-95404188D01*
X76529164Y-95344519D01*
X76513676Y-95307126D01*
X76508404Y-95280625D01*
X76497594Y-95247353D01*
X76481212Y-95143921D01*
X76473481Y-95105053D01*
X76473481Y-95095105D01*
X76471799Y-95084486D01*
X76471799Y-94919587D01*
X76473481Y-94908967D01*
X76473481Y-94899021D01*
X76481211Y-94860156D01*
X76497594Y-94756720D01*
X76508405Y-94723446D01*
X76513676Y-94696948D01*
X76529163Y-94659558D01*
X76548552Y-94599885D01*
X76577038Y-94543977D01*
X76592521Y-94506599D01*
X76607525Y-94484143D01*
X76623411Y-94452966D01*
X76684979Y-94368225D01*
X76706986Y-94335290D01*
X76714016Y-94328259D01*
X76720340Y-94319556D01*
X76836939Y-94202957D01*
X76845642Y-94196633D01*
X76852673Y-94189603D01*
X76885608Y-94167596D01*
X76970349Y-94106028D01*
X77001526Y-94090142D01*
X77023982Y-94075138D01*
X77061360Y-94059655D01*
X77117268Y-94031169D01*
X77176941Y-94011780D01*
X77214331Y-93996293D01*
X77240829Y-93991022D01*
X77274103Y-93980211D01*
X77377539Y-93963828D01*
X77416404Y-93956098D01*
X77426350Y-93956098D01*
X77436970Y-93954416D01*
X77601870Y-93954416D01*
X77612490Y-93956098D01*
G37*
G36*
X133504987Y-93277557D02*
G01*
X133689033Y-93353792D01*
X133854670Y-93464467D01*
X133995533Y-93605330D01*
X134106208Y-93770967D01*
X134182443Y-93955013D01*
X134221307Y-94150395D01*
X134221307Y-94349605D01*
X134182443Y-94544987D01*
X134106208Y-94729033D01*
X133995533Y-94894670D01*
X133854670Y-95035533D01*
X133689033Y-95146208D01*
X133504987Y-95222443D01*
X133309605Y-95261307D01*
X133110395Y-95261307D01*
X132915013Y-95222443D01*
X132730967Y-95146208D01*
X132565330Y-95035533D01*
X132424467Y-94894670D01*
X132313792Y-94729033D01*
X132237557Y-94544987D01*
X132198693Y-94349605D01*
X132198693Y-94150395D01*
X132237557Y-93955013D01*
X132313792Y-93770967D01*
X132424467Y-93605330D01*
X132565330Y-93464467D01*
X132730967Y-93353792D01*
X132915013Y-93277557D01*
X133110395Y-93238693D01*
X133309605Y-93238693D01*
X133504987Y-93277557D01*
G37*
G36*
X138584987Y-93277557D02*
G01*
X138769033Y-93353792D01*
X138934670Y-93464467D01*
X139075533Y-93605330D01*
X139186208Y-93770967D01*
X139262443Y-93955013D01*
X139301307Y-94150395D01*
X139301307Y-94349605D01*
X139262443Y-94544987D01*
X139186208Y-94729033D01*
X139075533Y-94894670D01*
X138934670Y-95035533D01*
X138769033Y-95146208D01*
X138584987Y-95222443D01*
X138389605Y-95261307D01*
X138190395Y-95261307D01*
X137995013Y-95222443D01*
X137810967Y-95146208D01*
X137645330Y-95035533D01*
X137504467Y-94894670D01*
X137393792Y-94729033D01*
X137317557Y-94544987D01*
X137278693Y-94349605D01*
X137278693Y-94150395D01*
X137317557Y-93955013D01*
X137393792Y-93770967D01*
X137504467Y-93605330D01*
X137645330Y-93464467D01*
X137810967Y-93353792D01*
X137995013Y-93277557D01*
X138190395Y-93238693D01*
X138389605Y-93238693D01*
X138584987Y-93277557D01*
G37*
G36*
X105004987Y-63777557D02*
G01*
X105189033Y-63853792D01*
X105354670Y-63964467D01*
X105495533Y-64105330D01*
X105606208Y-64270967D01*
X105682443Y-64455013D01*
X105721307Y-64650395D01*
X105721307Y-64849605D01*
X105682443Y-65044987D01*
X105606208Y-65229033D01*
X105495533Y-65394670D01*
X105354670Y-65535533D01*
X105189033Y-65646208D01*
X105004987Y-65722443D01*
X104809605Y-65761307D01*
X104610395Y-65761307D01*
X104415013Y-65722443D01*
X104230967Y-65646208D01*
X104065330Y-65535533D01*
X103924467Y-65394670D01*
X103813792Y-65229033D01*
X103737557Y-65044987D01*
X103698693Y-64849605D01*
X103698693Y-64650395D01*
X103737557Y-64455013D01*
X103813792Y-64270967D01*
X103924467Y-64105330D01*
X104065330Y-63964467D01*
X104230967Y-63853792D01*
X104415013Y-63777557D01*
X104610395Y-63738693D01*
X104809605Y-63738693D01*
X105004987Y-63777557D01*
G37*
G36*
X110084987Y-63777557D02*
G01*
X110269033Y-63853792D01*
X110434670Y-63964467D01*
X110575533Y-64105330D01*
X110686208Y-64270967D01*
X110762443Y-64455013D01*
X110801307Y-64650395D01*
X110801307Y-64849605D01*
X110762443Y-65044987D01*
X110686208Y-65229033D01*
X110575533Y-65394670D01*
X110434670Y-65535533D01*
X110269033Y-65646208D01*
X110084987Y-65722443D01*
X109889605Y-65761307D01*
X109690395Y-65761307D01*
X109495013Y-65722443D01*
X109310967Y-65646208D01*
X109145330Y-65535533D01*
X109004467Y-65394670D01*
X108893792Y-65229033D01*
X108817557Y-65044987D01*
X108778693Y-64849605D01*
X108778693Y-64650395D01*
X108817557Y-64455013D01*
X108893792Y-64270967D01*
X109004467Y-64105330D01*
X109145330Y-63964467D01*
X109310967Y-63853792D01*
X109495013Y-63777557D01*
X109690395Y-63738693D01*
X109889605Y-63738693D01*
X110084987Y-63777557D01*
G37*
G36*
X117348102Y-64060965D02*
G01*
X117357103Y-64060965D01*
X117383037Y-64067914D01*
X117449057Y-64081046D01*
X117480215Y-64093952D01*
X117502346Y-64099882D01*
X117522188Y-64111337D01*
X117553344Y-64124243D01*
X117609303Y-64161634D01*
X117632567Y-64175065D01*
X117638934Y-64181432D01*
X117647192Y-64186950D01*
X117727006Y-64266764D01*
X117732523Y-64275021D01*
X117738892Y-64281390D01*
X117752325Y-64304656D01*
X117789713Y-64360612D01*
X117802617Y-64391765D01*
X117814075Y-64411611D01*
X117820005Y-64433745D01*
X117832910Y-64464899D01*
X117846040Y-64530909D01*
X117852992Y-64556854D01*
X117853872Y-64570283D01*
X117855146Y-64576687D01*
X117857702Y-64628720D01*
X117857920Y-64632037D01*
X117857920Y-65032037D01*
X117857702Y-65035356D01*
X117855146Y-65087386D01*
X117853872Y-65093789D01*
X117852992Y-65107220D01*
X117846039Y-65133167D01*
X117832910Y-65199174D01*
X117820006Y-65230325D01*
X117814075Y-65252463D01*
X117802615Y-65272311D01*
X117789713Y-65303461D01*
X117752329Y-65359409D01*
X117738892Y-65382684D01*
X117732521Y-65389054D01*
X117727006Y-65397309D01*
X117647192Y-65477123D01*
X117638937Y-65482638D01*
X117632567Y-65489009D01*
X117609292Y-65502446D01*
X117553344Y-65539830D01*
X117522194Y-65552732D01*
X117502346Y-65564192D01*
X117480208Y-65570123D01*
X117449057Y-65583027D01*
X117383043Y-65596158D01*
X117357103Y-65603109D01*
X117348102Y-65603109D01*
X117338359Y-65605047D01*
X117225481Y-65605047D01*
X117215738Y-65603109D01*
X117206737Y-65603109D01*
X117180797Y-65596158D01*
X117114782Y-65583027D01*
X117083628Y-65570122D01*
X117061494Y-65564192D01*
X117041648Y-65552734D01*
X117010495Y-65539830D01*
X116954539Y-65502442D01*
X116931273Y-65489009D01*
X116924904Y-65482640D01*
X116916647Y-65477123D01*
X116836833Y-65397309D01*
X116831315Y-65389051D01*
X116824948Y-65382684D01*
X116811517Y-65359420D01*
X116774126Y-65303461D01*
X116761220Y-65272305D01*
X116749765Y-65252463D01*
X116743835Y-65230332D01*
X116730929Y-65199174D01*
X116717796Y-65133153D01*
X116710848Y-65107220D01*
X116709968Y-65093796D01*
X116708693Y-65087386D01*
X116706137Y-65035352D01*
X116705920Y-65032037D01*
X116705920Y-64632037D01*
X116706137Y-64628724D01*
X116708693Y-64576687D01*
X116709968Y-64570275D01*
X116710848Y-64556854D01*
X116717795Y-64530923D01*
X116730929Y-64464899D01*
X116743836Y-64433738D01*
X116749765Y-64411611D01*
X116761219Y-64391771D01*
X116774126Y-64360612D01*
X116811521Y-64304645D01*
X116824948Y-64281390D01*
X116831313Y-64275024D01*
X116836833Y-64266764D01*
X116916647Y-64186950D01*
X116924907Y-64181430D01*
X116931273Y-64175065D01*
X116954528Y-64161638D01*
X117010495Y-64124243D01*
X117041654Y-64111336D01*
X117061494Y-64099882D01*
X117083621Y-64093953D01*
X117114782Y-64081046D01*
X117180803Y-64067913D01*
X117206737Y-64060965D01*
X117215738Y-64060965D01*
X117225481Y-64059027D01*
X117338359Y-64059027D01*
X117348102Y-64060965D01*
G37*
G36*
X122198102Y-64060965D02*
G01*
X122207103Y-64060965D01*
X122233037Y-64067914D01*
X122299057Y-64081046D01*
X122330215Y-64093952D01*
X122352346Y-64099882D01*
X122372188Y-64111337D01*
X122403344Y-64124243D01*
X122459303Y-64161634D01*
X122482567Y-64175065D01*
X122488934Y-64181432D01*
X122497192Y-64186950D01*
X122577006Y-64266764D01*
X122582523Y-64275021D01*
X122588892Y-64281390D01*
X122602325Y-64304656D01*
X122639713Y-64360612D01*
X122652617Y-64391765D01*
X122664075Y-64411611D01*
X122670005Y-64433745D01*
X122682910Y-64464899D01*
X122696040Y-64530909D01*
X122702992Y-64556854D01*
X122703872Y-64570283D01*
X122705146Y-64576687D01*
X122707702Y-64628720D01*
X122707920Y-64632037D01*
X122707920Y-65032037D01*
X122707702Y-65035356D01*
X122705146Y-65087386D01*
X122703872Y-65093789D01*
X122702992Y-65107220D01*
X122696039Y-65133167D01*
X122682910Y-65199174D01*
X122670006Y-65230325D01*
X122664075Y-65252463D01*
X122652615Y-65272311D01*
X122639713Y-65303461D01*
X122602329Y-65359409D01*
X122588892Y-65382684D01*
X122582521Y-65389054D01*
X122577006Y-65397309D01*
X122497192Y-65477123D01*
X122488937Y-65482638D01*
X122482567Y-65489009D01*
X122459292Y-65502446D01*
X122403344Y-65539830D01*
X122372194Y-65552732D01*
X122352346Y-65564192D01*
X122330208Y-65570123D01*
X122299057Y-65583027D01*
X122233043Y-65596158D01*
X122207103Y-65603109D01*
X122198102Y-65603109D01*
X122188359Y-65605047D01*
X122075481Y-65605047D01*
X122065738Y-65603109D01*
X122056737Y-65603109D01*
X122030797Y-65596158D01*
X121964782Y-65583027D01*
X121933628Y-65570122D01*
X121911494Y-65564192D01*
X121891648Y-65552734D01*
X121860495Y-65539830D01*
X121804539Y-65502442D01*
X121781273Y-65489009D01*
X121774904Y-65482640D01*
X121766647Y-65477123D01*
X121686833Y-65397309D01*
X121681315Y-65389051D01*
X121674948Y-65382684D01*
X121661517Y-65359420D01*
X121624126Y-65303461D01*
X121611220Y-65272305D01*
X121599765Y-65252463D01*
X121593835Y-65230332D01*
X121580929Y-65199174D01*
X121567796Y-65133153D01*
X121560848Y-65107220D01*
X121559968Y-65093796D01*
X121558693Y-65087386D01*
X121556137Y-65035352D01*
X121555920Y-65032037D01*
X121555920Y-64632037D01*
X121556137Y-64628724D01*
X121558693Y-64576687D01*
X121559968Y-64570275D01*
X121560848Y-64556854D01*
X121567795Y-64530923D01*
X121580929Y-64464899D01*
X121593836Y-64433738D01*
X121599765Y-64411611D01*
X121611219Y-64391771D01*
X121624126Y-64360612D01*
X121661521Y-64304645D01*
X121674948Y-64281390D01*
X121681313Y-64275024D01*
X121686833Y-64266764D01*
X121766647Y-64186950D01*
X121774907Y-64181430D01*
X121781273Y-64175065D01*
X121804528Y-64161638D01*
X121860495Y-64124243D01*
X121891654Y-64111336D01*
X121911494Y-64099882D01*
X121933621Y-64093953D01*
X121964782Y-64081046D01*
X122030803Y-64067913D01*
X122056737Y-64060965D01*
X122065738Y-64060965D01*
X122075481Y-64059027D01*
X122188359Y-64059027D01*
X122198102Y-64060965D01*
G37*
G36*
X95484606Y-64473950D02*
G01*
X95552656Y-64513238D01*
X95608218Y-64568800D01*
X95647506Y-64636850D01*
X95667843Y-64712749D01*
X95667843Y-64791325D01*
X95647506Y-64867224D01*
X95608218Y-64935274D01*
X95552656Y-64990836D01*
X95484606Y-65030124D01*
X95408707Y-65050461D01*
X95330131Y-65050461D01*
X95254232Y-65030124D01*
X95186182Y-64990836D01*
X95130620Y-64935274D01*
X95091332Y-64867224D01*
X95070995Y-64791325D01*
X95070995Y-64712749D01*
X95091332Y-64636850D01*
X95130620Y-64568800D01*
X95186182Y-64513238D01*
X95254232Y-64473950D01*
X95330131Y-64453613D01*
X95408707Y-64453613D01*
X95484606Y-64473950D01*
G37*
G36*
X96284604Y-64473950D02*
G01*
X96352654Y-64513238D01*
X96408216Y-64568800D01*
X96447504Y-64636850D01*
X96467841Y-64712749D01*
X96467841Y-64791325D01*
X96447504Y-64867224D01*
X96408216Y-64935274D01*
X96352654Y-64990836D01*
X96284604Y-65030124D01*
X96208705Y-65050461D01*
X96130129Y-65050461D01*
X96054230Y-65030124D01*
X95986180Y-64990836D01*
X95930618Y-64935274D01*
X95891330Y-64867224D01*
X95870993Y-64791325D01*
X95870993Y-64712749D01*
X95891330Y-64636850D01*
X95930618Y-64568800D01*
X95986180Y-64513238D01*
X96054230Y-64473950D01*
X96130129Y-64453613D01*
X96208705Y-64453613D01*
X96284604Y-64473950D01*
G37*
G36*
X68828068Y-62133497D02*
G01*
X68897977Y-62156212D01*
X69037801Y-62201643D01*
X69230676Y-62299918D01*
X69234284Y-62301757D01*
X69412690Y-62431377D01*
X69568623Y-62587310D01*
X69698243Y-62765716D01*
X69723731Y-62815739D01*
X69798356Y-62962198D01*
X69820189Y-63029395D01*
X69866503Y-63171932D01*
X69901000Y-63389739D01*
X69901000Y-63610261D01*
X69866503Y-63828068D01*
X69822129Y-63964634D01*
X69798356Y-64037801D01*
X69763948Y-64105330D01*
X69698243Y-64234284D01*
X69568623Y-64412690D01*
X69412690Y-64568623D01*
X69234284Y-64698243D01*
X69136040Y-64748300D01*
X69037801Y-64798356D01*
X69005559Y-64808831D01*
X68828068Y-64866503D01*
X68610261Y-64901000D01*
X68389739Y-64901000D01*
X68171932Y-64866503D01*
X68029395Y-64820189D01*
X67962198Y-64798356D01*
X67794186Y-64712749D01*
X67765716Y-64698243D01*
X67587310Y-64568623D01*
X67431377Y-64412690D01*
X67301757Y-64234284D01*
X67277639Y-64186950D01*
X67201643Y-64037801D01*
X67141918Y-63853984D01*
X67133497Y-63828068D01*
X67099000Y-63610261D01*
X67099000Y-63389739D01*
X67133497Y-63171932D01*
X67144854Y-63136977D01*
X67201643Y-62962198D01*
X67301755Y-62765719D01*
X67431378Y-62587308D01*
X67587308Y-62431378D01*
X67765719Y-62301755D01*
X67962198Y-62201643D01*
X68136977Y-62144854D01*
X68171932Y-62133497D01*
X68389739Y-62099000D01*
X68610261Y-62099000D01*
X68828068Y-62133497D01*
G37*
G36*
X137578068Y-62133497D02*
G01*
X137647977Y-62156212D01*
X137787801Y-62201643D01*
X137980676Y-62299918D01*
X137984284Y-62301757D01*
X138162690Y-62431377D01*
X138318623Y-62587310D01*
X138448243Y-62765716D01*
X138473731Y-62815739D01*
X138548356Y-62962198D01*
X138570189Y-63029395D01*
X138616503Y-63171932D01*
X138651000Y-63389739D01*
X138651000Y-63610261D01*
X138616503Y-63828068D01*
X138572129Y-63964634D01*
X138548356Y-64037801D01*
X138513948Y-64105330D01*
X138448243Y-64234284D01*
X138318623Y-64412690D01*
X138162690Y-64568623D01*
X137984284Y-64698243D01*
X137886040Y-64748300D01*
X137787801Y-64798356D01*
X137755559Y-64808831D01*
X137578068Y-64866503D01*
X137360261Y-64901000D01*
X137139739Y-64901000D01*
X136921932Y-64866503D01*
X136779395Y-64820189D01*
X136712198Y-64798356D01*
X136544186Y-64712749D01*
X136515716Y-64698243D01*
X136337310Y-64568623D01*
X136181377Y-64412690D01*
X136051757Y-64234284D01*
X136027639Y-64186950D01*
X135951643Y-64037801D01*
X135891918Y-63853984D01*
X135883497Y-63828068D01*
X135849000Y-63610261D01*
X135849000Y-63389739D01*
X135883497Y-63171932D01*
X135894854Y-63136977D01*
X135951643Y-62962198D01*
X136051755Y-62765719D01*
X136181378Y-62587308D01*
X136337308Y-62431378D01*
X136515719Y-62301755D01*
X136712198Y-62201643D01*
X136886977Y-62144854D01*
X136921932Y-62133497D01*
X137139739Y-62099000D01*
X137360261Y-62099000D01*
X137578068Y-62133497D01*
G37*
G36*
X117185410Y-60881222D02*
G01*
X117312369Y-60933810D01*
X117426630Y-61010157D01*
X117523800Y-61107327D01*
X117600147Y-61221588D01*
X117652735Y-61348547D01*
X117679544Y-61483327D01*
X117682920Y-61552037D01*
X117682920Y-62052037D01*
X117679544Y-62120747D01*
X117652735Y-62255527D01*
X117600147Y-62382486D01*
X117523800Y-62496747D01*
X117426630Y-62593917D01*
X117312369Y-62670264D01*
X117185410Y-62722852D01*
X117050630Y-62749661D01*
X116913210Y-62749661D01*
X116778430Y-62722852D01*
X116651471Y-62670264D01*
X116537210Y-62593917D01*
X116440040Y-62496747D01*
X116363693Y-62382486D01*
X116311105Y-62255527D01*
X116284296Y-62120747D01*
X116280920Y-62052037D01*
X116280920Y-61552037D01*
X116284296Y-61483327D01*
X116311105Y-61348547D01*
X116363693Y-61221588D01*
X116440040Y-61107327D01*
X116537210Y-61010157D01*
X116651471Y-60933810D01*
X116778430Y-60881222D01*
X116913210Y-60854413D01*
X117050630Y-60854413D01*
X117185410Y-60881222D01*
G37*
G36*
X122635410Y-60881222D02*
G01*
X122762369Y-60933810D01*
X122876630Y-61010157D01*
X122973800Y-61107327D01*
X123050147Y-61221588D01*
X123102735Y-61348547D01*
X123129544Y-61483327D01*
X123132920Y-61552037D01*
X123132920Y-62052037D01*
X123129544Y-62120747D01*
X123102735Y-62255527D01*
X123050147Y-62382486D01*
X122973800Y-62496747D01*
X122876630Y-62593917D01*
X122762369Y-62670264D01*
X122635410Y-62722852D01*
X122500630Y-62749661D01*
X122363210Y-62749661D01*
X122228430Y-62722852D01*
X122101471Y-62670264D01*
X121987210Y-62593917D01*
X121890040Y-62496747D01*
X121813693Y-62382486D01*
X121761105Y-62255527D01*
X121734296Y-62120747D01*
X121730920Y-62052037D01*
X121730920Y-61552037D01*
X121734296Y-61483327D01*
X121761105Y-61348547D01*
X121813693Y-61221588D01*
X121890040Y-61107327D01*
X121987210Y-61010157D01*
X122101471Y-60933810D01*
X122228430Y-60881222D01*
X122363210Y-60854413D01*
X122500630Y-60854413D01*
X122635410Y-60881222D01*
G37*
M02*
