M48
; DRILL file {KiCad 9.0.7} date 2026-06-04T16:29:48-0500
; FORMAT={-:-/ absolute / metric / decimal}
; #@! TF.CreationDate,2026-06-04T16:29:48-05:00
; #@! TF.GenerationSoftware,Kicad,Pcbnew,9.0.7
; #@! TF.FileFunction,Plated,1,2,PTH
FMAT,2
METRIC
; #@! TA.AperFunction,Plated,PTH,ComponentDrill
T1C0.203
; #@! TA.AperFunction,Plated,PTH,ViaDrill
T2C0.350
; #@! TA.AperFunction,Plated,PTH,ComponentDrill
T3C0.350
; #@! TA.AperFunction,Plated,PTH,ComponentDrill
T4C0.650
; #@! TA.AperFunction,Plated,PTH,ComponentDrill
T5C0.700
; #@! TA.AperFunction,Plated,PTH,ComponentDrill
T6C1.000
; #@! TA.AperFunction,Plated,PTH,ComponentDrill
T7C1.016
%
G90
G05
T1
X95.369Y-64.752
X96.169Y-64.752
T2
X80.459Y-77.462
X80.859Y-119.232
X80.879Y-114.532
X81.009Y-104.562
X81.029Y-91.782
X82.519Y-71.252
X82.519Y-86.103
X82.519Y-101.103
X82.519Y-116.103
X83.519Y-71.752
X83.519Y-86.603
X83.519Y-101.603
X83.519Y-116.603
X84.519Y-72.252
X84.519Y-87.103
X84.519Y-102.103
X84.519Y-117.103
X85.519Y-72.752
X85.519Y-87.603
X85.519Y-102.603
X85.519Y-117.603
X86.519Y-73.252
X86.519Y-88.103
X86.519Y-103.103
X86.519Y-118.103
X87.519Y-73.752
X87.519Y-88.603
X87.519Y-103.603
X87.519Y-118.603
X88.519Y-74.252
X88.519Y-89.103
X88.519Y-104.103
X88.519Y-119.103
X89.519Y-74.752
X89.519Y-89.603
X89.519Y-104.603
X89.519Y-119.603
X89.619Y-66.662
X90.769Y-80.752
X90.769Y-96.752
X90.769Y-111.752
X90.769Y-126.752
X92.019Y-84.252
X92.019Y-99.002
X92.019Y-114.252
X92.519Y-131.502
X94.769Y-93.752
X94.769Y-108.752
X94.769Y-123.752
X95.519Y-78.002
X96.019Y-62.552
X97.261Y-74.011
X98.019Y-81.752
X98.019Y-96.752
X98.269Y-112.002
X98.269Y-126.752
X99.019Y-121.977
X99.32Y-91.977
X99.32Y-106.977
X100.019Y-76.502
X100.019Y-82.852
X100.019Y-97.852
X100.019Y-112.852
X100.019Y-127.703
X101.019Y-83.352
X101.019Y-98.352
X101.019Y-113.352
X101.019Y-128.203
X101.419Y-63.152
X102.019Y-83.852
X102.019Y-98.852
X102.019Y-113.852
X102.019Y-128.703
X103.019Y-84.352
X103.019Y-99.352
X103.019Y-114.352
X103.019Y-129.203
X104.019Y-84.852
X104.019Y-99.852
X104.019Y-114.852
X104.019Y-129.703
X105.019Y-85.352
X105.019Y-100.352
X105.019Y-115.352
X105.019Y-130.203
X106.019Y-85.852
X106.019Y-100.852
X106.019Y-115.852
X106.019Y-130.703
X107.019Y-86.352
X107.019Y-101.352
X107.019Y-116.352
X107.019Y-131.203
X107.6Y-93.9
X108.25Y-69.25
X110.569Y-79.952
X112.75Y-87.75
X113.869Y-63.702
X117.25Y-99.017
X117.569Y-73.552
X118.0Y-99.75
X119.5Y-81.0
X119.55Y-85.35
X120.129Y-85.983
X120.369Y-92.852
X120.519Y-95.231
X121.069Y-88.652
X121.5Y-108.85
X122.0Y-85.25
X122.094Y-95.25
X123.3Y-80.1
X123.75Y-102.0
X124.25Y-81.0
X124.669Y-63.252
X125.75Y-100.75
X126.5Y-81.75
X127.3Y-108.85
X127.5Y-79.2
X127.5Y-93.5
X128.75Y-83.5
X133.75Y-70.75
X133.75Y-84.75
X135.75Y-70.65
X137.75Y-81.25
X138.75Y-91.5
T3
X118.494Y-89.477
X118.494Y-90.752
X118.494Y-92.027
X119.769Y-89.477
X119.769Y-90.752
X119.769Y-92.027
X121.044Y-89.477
X121.044Y-90.752
X121.044Y-92.027
T6
X70.019Y-95.022
X70.019Y-99.612
X70.019Y-104.202
X70.019Y-108.792
X75.169Y-137.002
X77.519Y-95.002
X77.519Y-99.592
X77.519Y-104.182
X77.519Y-108.772
X77.709Y-137.002
X80.249Y-137.002
X82.789Y-137.002
X85.329Y-137.002
X87.869Y-137.002
X90.409Y-137.002
X92.949Y-137.002
X95.489Y-137.002
X98.029Y-137.002
X100.569Y-137.002
X103.109Y-137.002
X105.649Y-137.002
X108.189Y-137.002
X110.729Y-137.002
X113.269Y-137.002
T7
X104.71Y-64.75
X109.79Y-64.75
X133.21Y-94.25
X138.29Y-94.25
T4
X117.282Y-64.632G85X117.282Y-65.032
G05
X122.132Y-64.632G85X122.132Y-65.032
G05
T5
X116.982Y-61.552G85X116.982Y-62.052
G05
X122.432Y-61.552G85X122.432Y-62.052
G05
M30
