G04 #@! TF.GenerationSoftware,KiCad,Pcbnew,9.0.7*
G04 #@! TF.CreationDate,2026-06-04T16:29:51-05:00*
G04 #@! TF.ProjectId,RP2040_minimal_r2,52503230-3430-45f6-9d69-6e696d616c5f,REV2*
G04 #@! TF.SameCoordinates,Original*
G04 #@! TF.FileFunction,Copper,L2,Bot*
G04 #@! TF.FilePolarity,Positive*
%FSLAX46Y46*%
G04 Gerber Fmt 4.6, Leading zero omitted, Abs format (unit mm)*
G04 Created by KiCad (PCBNEW 9.0.7) date 2026-06-04 16:29:51*
%MOMM*%
%LPD*%
G01*
G04 APERTURE LIST*
G04 #@! TA.AperFunction,ComponentPad*
%ADD10O,1.300000X1.800000*%
G04 #@! TD*
G04 #@! TA.AperFunction,ComponentPad*
%ADD11O,1.050000X1.450000*%
G04 #@! TD*
G04 #@! TA.AperFunction,ComponentPad*
%ADD12C,0.600000*%
G04 #@! TD*
G04 #@! TA.AperFunction,ComponentPad*
%ADD13C,0.499999*%
G04 #@! TD*
G04 #@! TA.AperFunction,ComponentPad*
%ADD14C,2.000000*%
G04 #@! TD*
G04 #@! TA.AperFunction,ComponentPad*
%ADD15C,1.930400*%
G04 #@! TD*
G04 #@! TA.AperFunction,ComponentPad*
%ADD16R,1.700000X1.700000*%
G04 #@! TD*
G04 #@! TA.AperFunction,ComponentPad*
%ADD17C,1.700000*%
G04 #@! TD*
G04 #@! TA.AperFunction,ViaPad*
%ADD18C,0.600000*%
G04 #@! TD*
G04 #@! TA.AperFunction,Conductor*
%ADD19C,0.150000*%
G04 #@! TD*
G04 #@! TA.AperFunction,Conductor*
%ADD20C,0.200000*%
G04 #@! TD*
G04 #@! TA.AperFunction,Conductor*
%ADD21C,0.220000*%
G04 #@! TD*
G04 APERTURE END LIST*
D10*
X122431920Y-61802037D03*
D11*
X122131920Y-64832037D03*
X117281920Y-64832037D03*
D10*
X116981920Y-61802037D03*
D12*
X118494420Y-89477037D03*
X118494420Y-90752037D03*
X118494420Y-92027037D03*
X119769420Y-89477037D03*
X119769420Y-90752037D03*
X119769420Y-92027037D03*
X121044420Y-89477037D03*
X121044420Y-90752037D03*
X121044420Y-92027037D03*
D13*
X96169417Y-64752037D03*
X95369419Y-64752037D03*
D14*
X77519420Y-108772037D03*
X77519420Y-99592037D03*
X77519420Y-95002037D03*
D15*
X104710000Y-64750000D03*
X109790000Y-64750000D03*
D14*
X70019420Y-104202037D03*
D16*
X75169420Y-137002037D03*
D17*
X77709420Y-137002037D03*
X80249420Y-137002037D03*
X82789420Y-137002037D03*
X85329420Y-137002037D03*
X87869420Y-137002037D03*
X90409420Y-137002037D03*
X92949420Y-137002037D03*
X95489420Y-137002037D03*
X98029420Y-137002037D03*
X100569420Y-137002037D03*
X103109420Y-137002037D03*
X105649420Y-137002037D03*
X108189420Y-137002037D03*
X110729420Y-137002037D03*
X113269420Y-137002037D03*
D14*
X70019420Y-95022037D03*
X70019420Y-108792037D03*
X77519420Y-104182037D03*
D15*
X133210000Y-94250000D03*
X138290000Y-94250000D03*
D14*
X70019420Y-99612037D03*
D18*
X127500000Y-79200000D03*
X123300000Y-80100000D03*
X133750000Y-70750000D03*
X113869420Y-63702037D03*
X108250000Y-69250000D03*
X119550000Y-85350000D03*
X122094420Y-95250000D03*
X118000000Y-99750000D03*
X125750000Y-100750000D03*
X123750000Y-102000000D03*
X120519483Y-95230517D03*
X138750000Y-91500000D03*
X127500000Y-93500000D03*
X133750000Y-84750000D03*
X124250000Y-81000000D03*
X126500000Y-81750000D03*
X128750000Y-83500000D03*
X120129420Y-85982748D03*
X122000000Y-85250000D03*
X119500000Y-81000000D03*
X137750000Y-81250000D03*
X112750000Y-87750000D03*
X121500000Y-108850000D03*
X96019421Y-62552037D03*
X81009420Y-104562037D03*
X98269420Y-126752037D03*
X92019420Y-114252037D03*
X92519420Y-131502037D03*
X117569420Y-73552037D03*
X98269420Y-112002037D03*
X107600000Y-93900000D03*
X92019420Y-99002037D03*
X92019420Y-84252037D03*
X80459420Y-77462037D03*
X80879420Y-114532037D03*
X80859420Y-119232037D03*
X81029420Y-91782037D03*
X110569420Y-79952037D03*
X98019420Y-81752037D03*
X89619421Y-66662037D03*
X117250000Y-99017383D03*
X98019420Y-96752037D03*
X135750000Y-70650000D03*
X124669420Y-63252037D03*
X101419421Y-63152037D03*
X90769420Y-80752037D03*
X90769420Y-126752037D03*
X90769420Y-111752037D03*
X97260729Y-74010729D03*
X90769420Y-96752037D03*
X121069420Y-88652037D03*
X120369390Y-92852037D03*
X99019420Y-121977037D03*
X100019420Y-76502037D03*
X99320420Y-106977037D03*
X99320420Y-91977037D03*
X94769420Y-93752037D03*
X95519420Y-78002037D03*
X94769420Y-123752037D03*
X94769420Y-108752037D03*
X100019420Y-112851737D03*
X100019420Y-97851737D03*
X100019420Y-82851737D03*
X100019421Y-127703094D03*
X85519421Y-117603394D03*
X85519420Y-72752037D03*
X85519421Y-102603394D03*
X85519421Y-87603394D03*
X88519421Y-104103394D03*
X88519420Y-74252037D03*
X88519421Y-89103394D03*
X88519421Y-119103394D03*
X107019421Y-131203094D03*
X107019420Y-116351737D03*
X107019420Y-101351737D03*
X107019420Y-86351737D03*
X87519421Y-118603394D03*
X87519421Y-88603394D03*
X87519421Y-103603394D03*
X87519420Y-73752037D03*
X83519421Y-116603394D03*
X83519421Y-86603394D03*
X83519421Y-101603394D03*
X83519420Y-71752037D03*
X101019421Y-128203094D03*
X101019420Y-83351737D03*
X101019420Y-113351737D03*
X101019420Y-98351737D03*
X104019420Y-99851737D03*
X104019420Y-84851737D03*
X104019420Y-114851737D03*
X104019421Y-129703094D03*
X86519421Y-103103394D03*
X86519420Y-73252037D03*
X86519421Y-118103394D03*
X86519421Y-88103394D03*
X106019420Y-115851737D03*
X106019421Y-130703094D03*
X106019420Y-85851737D03*
X106019420Y-100851737D03*
X105019421Y-130203094D03*
X105019420Y-115351737D03*
X105019420Y-100351737D03*
X105019420Y-85351737D03*
X103019421Y-129203094D03*
X103019420Y-99351737D03*
X103019420Y-84351737D03*
X103019420Y-114351737D03*
X82519421Y-101103394D03*
X82519420Y-71252037D03*
X82519421Y-86103394D03*
X82519421Y-116103394D03*
X84519421Y-117103394D03*
X84519421Y-102103394D03*
X84519421Y-87103394D03*
X84519420Y-72252037D03*
X89519421Y-104603394D03*
X89519421Y-89603394D03*
X89519420Y-74752037D03*
X89519421Y-119603394D03*
X102019421Y-128703094D03*
X102019420Y-98851737D03*
X102019420Y-83851737D03*
X102019420Y-113851737D03*
X127300000Y-108850000D03*
D19*
X120129420Y-85982748D02*
X120129420Y-83270580D01*
X120129420Y-83270580D02*
X123300000Y-80100000D01*
X120129420Y-85982748D02*
X120146672Y-85982748D01*
X120146672Y-85982748D02*
X120879420Y-85250000D01*
X120879420Y-85250000D02*
X122000000Y-85250000D01*
D20*
X108250000Y-69250000D02*
X109247963Y-68252037D01*
X113869420Y-63652037D02*
X113869420Y-63702037D01*
X109269420Y-68252037D02*
X113869420Y-63652037D01*
X109247963Y-68252037D02*
X109269420Y-68252037D01*
X133750000Y-70750000D02*
X127400000Y-64400000D01*
X124003037Y-63503037D02*
X114068420Y-63503037D01*
X124900000Y-64400000D02*
X124003037Y-63503037D01*
X127400000Y-64400000D02*
X124900000Y-64400000D01*
X114068420Y-63503037D02*
X113869420Y-63702037D01*
D21*
X120102037Y-88652037D02*
X121069420Y-88652037D01*
X119550000Y-85350000D02*
X119550000Y-88100000D01*
X119550000Y-88100000D02*
X120102037Y-88652037D01*
D19*
X122094420Y-95655580D02*
X118000000Y-99750000D01*
X122094420Y-95250000D02*
X122094420Y-95655580D01*
D20*
X120369390Y-92852037D02*
X120369390Y-95080424D01*
X120369390Y-95080424D02*
X120369420Y-95080454D01*
X124569420Y-63152037D02*
X124669420Y-63252037D01*
X101419421Y-63152037D02*
X124569420Y-63152037D01*
X91519420Y-80002037D02*
X92519420Y-80002037D01*
X90769420Y-126042037D02*
X90769420Y-126752037D01*
X97260729Y-74010729D02*
X93019420Y-78252037D01*
X92519420Y-80002037D02*
X93019420Y-79502037D01*
X91839420Y-124972037D02*
X90769420Y-126042037D01*
X90769420Y-80752037D02*
X91519420Y-80002037D01*
X93019420Y-79502037D02*
X93019420Y-78252037D01*
X90769420Y-111752037D02*
X93019420Y-109502037D01*
X93019420Y-94752037D02*
X93019420Y-124432037D01*
X92479420Y-124972037D02*
X91839420Y-124972037D01*
X93019420Y-93752037D02*
X93019420Y-94752037D01*
X93019420Y-94502037D02*
X93019420Y-93752037D01*
X93019420Y-78252037D02*
X93019420Y-93752037D01*
X93019420Y-124432037D02*
X92479420Y-124972037D01*
X90769420Y-96752037D02*
X93019420Y-94502037D01*
X99320420Y-121701037D02*
X99019420Y-122002037D01*
X99320420Y-77053037D02*
X99320420Y-121701037D01*
X99871420Y-76502037D02*
X99320420Y-77053037D01*
X100019420Y-76502037D02*
X99871420Y-76502037D01*
X95519420Y-93502037D02*
X95519420Y-108502037D01*
X95519420Y-108502037D02*
X95019420Y-108502037D01*
X95019420Y-108502037D02*
X94769420Y-108752037D01*
X95269420Y-123252037D02*
X94769420Y-123752037D01*
X95519420Y-108502037D02*
X95519420Y-123252037D01*
X95519420Y-93502037D02*
X95019420Y-93502037D01*
X95019420Y-93502037D02*
X94769420Y-93752037D01*
X95519420Y-78002037D02*
X95519420Y-93502037D01*
X95519420Y-123252037D02*
X95269420Y-123252037D01*
D19*
X100019421Y-82851738D02*
X100019420Y-82851737D01*
X100019421Y-127703094D02*
X100019421Y-82851738D01*
X100019421Y-127703094D02*
X100019421Y-132472036D01*
X100019421Y-132472036D02*
X95489420Y-137002037D01*
X85519420Y-117603393D02*
X85519421Y-117603394D01*
X85519420Y-72752037D02*
X85519420Y-117603393D01*
X85519421Y-117603394D02*
X85519421Y-134272036D01*
X85519421Y-134272036D02*
X82789420Y-137002037D01*
X88519420Y-74252037D02*
X88519420Y-118752037D01*
X88519421Y-135112038D02*
X90409420Y-137002037D01*
X88519421Y-119103394D02*
X88519421Y-135112038D01*
X88519420Y-118752037D02*
X88519421Y-119103394D01*
X113019420Y-137002037D02*
X113269420Y-137002037D01*
X107019421Y-131203094D02*
X107019421Y-88095615D01*
X107019421Y-88095615D02*
X107019420Y-86351737D01*
X107220477Y-131203094D02*
X113019420Y-137002037D01*
X107019421Y-131203094D02*
X107220477Y-131203094D01*
X87519420Y-136652037D02*
X87869420Y-137002037D01*
X87519420Y-73752037D02*
X87519420Y-118252037D01*
X87519420Y-118603395D02*
X87519420Y-136652037D01*
X87519420Y-118252037D02*
X87519421Y-118603394D01*
X87519421Y-118603394D02*
X87519420Y-118603395D01*
X83519420Y-116603393D02*
X83519421Y-116603394D01*
X83519420Y-131192037D02*
X77709420Y-137002037D01*
X83519420Y-71752037D02*
X83519420Y-116603393D01*
X83519420Y-117252037D02*
X83519420Y-131192037D01*
X83519421Y-116603394D02*
X83519421Y-117252036D01*
X83519421Y-117252036D02*
X83519420Y-117252037D01*
X101019421Y-134012036D02*
X98029420Y-137002037D01*
X101019421Y-128203094D02*
X101019421Y-83703094D01*
X101019421Y-128203094D02*
X101019421Y-134012036D01*
X101019421Y-83703094D02*
X101019420Y-83351737D01*
X104019421Y-84851738D02*
X104019420Y-84851737D01*
X104019421Y-129703094D02*
X104019421Y-135372038D01*
X104019421Y-135372038D02*
X105649420Y-137002037D01*
X104019421Y-129703094D02*
X104019421Y-84851738D01*
X86519421Y-118103394D02*
X86519421Y-135812036D01*
X86519420Y-73252037D02*
X86519420Y-118103393D01*
X86519420Y-118103393D02*
X86519421Y-118103394D01*
X86519421Y-135812036D02*
X85329420Y-137002037D01*
X110729420Y-136962037D02*
X110729420Y-137002037D01*
X106019421Y-85851738D02*
X106019420Y-85851737D01*
X106019421Y-130703094D02*
X106019421Y-132252038D01*
X106019421Y-130703094D02*
X106019421Y-85851738D01*
X106019421Y-132252038D02*
X110729420Y-136962037D01*
X105019421Y-133832038D02*
X108189420Y-137002037D01*
X105019421Y-130203094D02*
X105019420Y-85351737D01*
X105019421Y-130203094D02*
X105019421Y-133832038D01*
X103019421Y-84351738D02*
X103019420Y-84351737D01*
X103109420Y-129293093D02*
X103109420Y-137002037D01*
X103019421Y-129203094D02*
X103109420Y-129293093D01*
X103019421Y-129203094D02*
X103019421Y-84351738D01*
X82519421Y-130252036D02*
X75769420Y-137002037D01*
X75769420Y-137002037D02*
X75169420Y-137002037D01*
X82519420Y-71252037D02*
X82519420Y-114359516D01*
X82519420Y-114359516D02*
X82519421Y-116103394D01*
X82519421Y-116103394D02*
X82519421Y-130252036D01*
X84519420Y-72252037D02*
X84519421Y-117103394D01*
X84519421Y-117103394D02*
X84519421Y-132732036D01*
X84519421Y-132732036D02*
X80249420Y-137002037D01*
X89519421Y-133572038D02*
X92949420Y-137002037D01*
X89519421Y-119603394D02*
X89519421Y-133572038D01*
X89519420Y-119603393D02*
X89519421Y-119603394D01*
X89519420Y-74752037D02*
X89519420Y-119603393D01*
X102019421Y-128703094D02*
X102019421Y-84203094D01*
X102019421Y-128703094D02*
X102019421Y-135552036D01*
X102019421Y-84203094D02*
X102019420Y-83851737D01*
X102019421Y-135552036D02*
X100569420Y-137002037D01*
G04 #@! TA.AperFunction,Conductor*
G36*
X116704178Y-60220185D02*
G01*
X116749933Y-60272989D01*
X116759877Y-60342147D01*
X116730852Y-60405703D01*
X116675457Y-60442431D01*
X116540475Y-60486288D01*
X116540472Y-60486289D01*
X116379185Y-60568471D01*
X116232750Y-60674860D01*
X116104743Y-60802867D01*
X115998354Y-60949302D01*
X115916172Y-61110589D01*
X115916171Y-61110592D01*
X115860237Y-61282743D01*
X115831920Y-61461530D01*
X115831920Y-61552037D01*
X116631920Y-61552037D01*
X116631920Y-62052037D01*
X115831920Y-62052037D01*
X115831920Y-62142543D01*
X115860237Y-62321330D01*
X115916171Y-62493481D01*
X115916172Y-62493484D01*
X115998356Y-62654776D01*
X116000898Y-62658924D01*
X115999989Y-62659480D01*
X116021747Y-62720459D01*
X116005921Y-62788512D01*
X115955815Y-62837207D01*
X115897949Y-62851537D01*
X101878097Y-62851537D01*
X101811058Y-62831852D01*
X101790416Y-62815218D01*
X101726737Y-62751539D01*
X101726735Y-62751537D01*
X101669671Y-62718591D01*
X101612608Y-62685645D01*
X101521193Y-62661151D01*
X101485313Y-62651537D01*
X101353529Y-62651537D01*
X101226233Y-62685645D01*
X101112107Y-62751537D01*
X101112104Y-62751539D01*
X101018923Y-62844720D01*
X101018921Y-62844723D01*
X100953029Y-62958849D01*
X100918921Y-63086145D01*
X100918921Y-63217928D01*
X100953029Y-63345224D01*
X100969665Y-63374038D01*
X101018921Y-63459351D01*
X101112107Y-63552537D01*
X101226235Y-63618429D01*
X101353529Y-63652537D01*
X101353531Y-63652537D01*
X101485311Y-63652537D01*
X101485313Y-63652537D01*
X101612607Y-63618429D01*
X101726735Y-63552537D01*
X101790416Y-63488856D01*
X101851739Y-63455371D01*
X101878097Y-63452537D01*
X103739512Y-63452537D01*
X103806551Y-63472222D01*
X103852306Y-63525026D01*
X103855253Y-63541700D01*
X104574058Y-64260504D01*
X104513919Y-64276619D01*
X104398080Y-64343498D01*
X104303498Y-64438080D01*
X104236619Y-64553919D01*
X104220504Y-64614057D01*
X103512254Y-63905807D01*
X103456847Y-63982069D01*
X103352147Y-64187553D01*
X103280877Y-64406897D01*
X103244800Y-64634680D01*
X103244800Y-64865319D01*
X103280877Y-65093102D01*
X103352147Y-65312446D01*
X103456850Y-65517935D01*
X103512253Y-65594191D01*
X103512254Y-65594192D01*
X104220504Y-64885941D01*
X104236619Y-64946081D01*
X104303498Y-65061920D01*
X104398080Y-65156502D01*
X104513919Y-65223381D01*
X104574057Y-65239494D01*
X103865806Y-65947744D01*
X103942067Y-66003151D01*
X104147553Y-66107852D01*
X104366897Y-66179122D01*
X104594681Y-66215200D01*
X104825319Y-66215200D01*
X105053102Y-66179122D01*
X105272446Y-66107852D01*
X105477924Y-66003155D01*
X105477930Y-66003151D01*
X105554191Y-65947744D01*
X105554192Y-65947744D01*
X104845942Y-65239495D01*
X104906081Y-65223381D01*
X105021920Y-65156502D01*
X105116502Y-65061920D01*
X105183381Y-64946081D01*
X105199495Y-64885942D01*
X105907744Y-65594192D01*
X105907744Y-65594191D01*
X105963151Y-65517930D01*
X105963155Y-65517924D01*
X106067852Y-65312446D01*
X106139122Y-65093102D01*
X106175200Y-64865319D01*
X106175200Y-64634680D01*
X106139122Y-64406897D01*
X106067852Y-64187553D01*
X105963151Y-63982067D01*
X105907744Y-63905807D01*
X105907744Y-63905806D01*
X105199494Y-64614056D01*
X105183381Y-64553919D01*
X105116502Y-64438080D01*
X105021920Y-64343498D01*
X104906081Y-64276619D01*
X104845941Y-64260504D01*
X105566625Y-63539820D01*
X105571234Y-63517887D01*
X105620286Y-63468131D01*
X105680487Y-63452537D01*
X109252241Y-63452537D01*
X109319280Y-63472222D01*
X109365035Y-63525026D01*
X109374979Y-63594184D01*
X109345954Y-63657740D01*
X109308536Y-63687022D01*
X109179039Y-63753004D01*
X109030594Y-63860856D01*
X108900856Y-63990594D01*
X108793004Y-64139039D01*
X108709704Y-64302523D01*
X108653002Y-64477030D01*
X108624300Y-64658251D01*
X108624300Y-64841748D01*
X108653002Y-65022969D01*
X108694998Y-65152217D01*
X108709703Y-65197474D01*
X108793004Y-65360960D01*
X108900854Y-65509403D01*
X109030597Y-65639146D01*
X109179040Y-65746996D01*
X109342526Y-65830297D01*
X109475034Y-65873351D01*
X109517030Y-65886997D01*
X109698252Y-65915700D01*
X109698257Y-65915700D01*
X109881748Y-65915700D01*
X110062969Y-65886997D01*
X110237474Y-65830297D01*
X110400960Y-65746996D01*
X110549403Y-65639146D01*
X110679146Y-65509403D01*
X110786996Y-65360960D01*
X110870297Y-65197474D01*
X110926997Y-65022969D01*
X110933290Y-64983239D01*
X110955700Y-64841748D01*
X110955700Y-64658251D01*
X110926997Y-64477030D01*
X110913351Y-64435034D01*
X110870297Y-64302526D01*
X110786996Y-64139040D01*
X110679146Y-63990597D01*
X110549403Y-63860854D01*
X110400960Y-63753004D01*
X110271463Y-63687021D01*
X110220668Y-63639047D01*
X110203873Y-63571226D01*
X110226411Y-63505091D01*
X110281126Y-63461640D01*
X110327759Y-63452537D01*
X113256518Y-63452537D01*
X113323557Y-63472222D01*
X113369312Y-63525026D01*
X113379687Y-63590870D01*
X113378639Y-63599870D01*
X113368920Y-63636145D01*
X113368920Y-63683394D01*
X113368089Y-63690536D01*
X113357132Y-63716345D01*
X113349235Y-63743242D01*
X113341796Y-63752472D01*
X113340787Y-63754851D01*
X113338775Y-63756221D01*
X113332601Y-63763884D01*
X109125763Y-67970721D01*
X109100085Y-67990425D01*
X109063458Y-68011572D01*
X109063449Y-68011579D01*
X108361847Y-68713181D01*
X108300524Y-68746666D01*
X108274166Y-68749500D01*
X108184108Y-68749500D01*
X108056812Y-68783608D01*
X107942686Y-68849500D01*
X107942683Y-68849502D01*
X107849502Y-68942683D01*
X107849500Y-68942686D01*
X107783608Y-69056812D01*
X107749500Y-69184108D01*
X107749500Y-69315891D01*
X107783608Y-69443187D01*
X107816554Y-69500250D01*
X107849500Y-69557314D01*
X107942686Y-69650500D01*
X108056814Y-69716392D01*
X108184108Y-69750500D01*
X108184110Y-69750500D01*
X108315890Y-69750500D01*
X108315892Y-69750500D01*
X108443186Y-69716392D01*
X108557314Y-69650500D01*
X108650500Y-69557314D01*
X108716392Y-69443186D01*
X108750500Y-69315892D01*
X108750500Y-69225832D01*
X108770185Y-69158793D01*
X108786819Y-69138151D01*
X109075470Y-68849500D01*
X109391621Y-68533348D01*
X109417300Y-68513645D01*
X109453931Y-68492497D01*
X109509880Y-68436548D01*
X113707590Y-64238836D01*
X113768911Y-64205353D01*
X113795401Y-64204310D01*
X113795401Y-64202537D01*
X113935310Y-64202537D01*
X113935312Y-64202537D01*
X114062606Y-64168429D01*
X114176734Y-64102537D01*
X114269920Y-64009351D01*
X114335812Y-63895223D01*
X114335812Y-63895220D01*
X114338920Y-63887719D01*
X114340151Y-63888228D01*
X114372112Y-63835788D01*
X114434957Y-63805255D01*
X114455527Y-63803537D01*
X116370760Y-63803537D01*
X116437799Y-63823222D01*
X116483554Y-63876026D01*
X116493498Y-63945184D01*
X116473862Y-63996428D01*
X116373579Y-64146510D01*
X116373572Y-64146523D01*
X116296310Y-64333053D01*
X116296307Y-64333062D01*
X116256920Y-64531078D01*
X116256920Y-64582037D01*
X116958853Y-64582037D01*
X116956920Y-64589250D01*
X116956920Y-65074824D01*
X116958853Y-65082037D01*
X116256920Y-65082037D01*
X116256920Y-65132995D01*
X116296307Y-65331011D01*
X116296310Y-65331020D01*
X116373572Y-65517550D01*
X116373579Y-65517563D01*
X116485749Y-65685436D01*
X116485752Y-65685440D01*
X116628516Y-65828204D01*
X116628520Y-65828207D01*
X116796393Y-65940377D01*
X116796406Y-65940384D01*
X116982936Y-66017646D01*
X116982945Y-66017649D01*
X117031920Y-66027390D01*
X117031920Y-65241655D01*
X117082366Y-65292101D01*
X117156475Y-65334888D01*
X117239133Y-65357037D01*
X117324707Y-65357037D01*
X117407365Y-65334888D01*
X117481474Y-65292101D01*
X117531920Y-65241655D01*
X117531920Y-66027389D01*
X117580894Y-66017649D01*
X117580903Y-66017646D01*
X117767433Y-65940384D01*
X117767446Y-65940377D01*
X117935319Y-65828207D01*
X117935323Y-65828204D01*
X118078087Y-65685440D01*
X118078090Y-65685436D01*
X118190260Y-65517563D01*
X118190267Y-65517550D01*
X118267529Y-65331020D01*
X118267532Y-65331011D01*
X118306919Y-65132995D01*
X118306920Y-65132992D01*
X118306920Y-65082037D01*
X117604987Y-65082037D01*
X117606920Y-65074824D01*
X117606920Y-64589250D01*
X117604987Y-64582037D01*
X118306920Y-64582037D01*
X118306920Y-64531082D01*
X118306919Y-64531078D01*
X118267532Y-64333062D01*
X118267529Y-64333053D01*
X118190267Y-64146523D01*
X118190260Y-64146510D01*
X118089978Y-63996428D01*
X118069100Y-63929751D01*
X118087584Y-63862370D01*
X118139563Y-63815680D01*
X118193080Y-63803537D01*
X121220760Y-63803537D01*
X121287799Y-63823222D01*
X121333554Y-63876026D01*
X121343498Y-63945184D01*
X121323862Y-63996428D01*
X121223579Y-64146510D01*
X121223572Y-64146523D01*
X121146310Y-64333053D01*
X121146307Y-64333062D01*
X121106920Y-64531078D01*
X121106920Y-64582037D01*
X121808853Y-64582037D01*
X121806920Y-64589250D01*
X121806920Y-65074824D01*
X121808853Y-65082037D01*
X121106920Y-65082037D01*
X121106920Y-65132995D01*
X121146307Y-65331011D01*
X121146310Y-65331020D01*
X121223572Y-65517550D01*
X121223579Y-65517563D01*
X121335749Y-65685436D01*
X121335752Y-65685440D01*
X121478516Y-65828204D01*
X121478520Y-65828207D01*
X121646393Y-65940377D01*
X121646406Y-65940384D01*
X121832936Y-66017646D01*
X121832945Y-66017649D01*
X121881920Y-66027390D01*
X121881920Y-65241655D01*
X121932366Y-65292101D01*
X122006475Y-65334888D01*
X122089133Y-65357037D01*
X122174707Y-65357037D01*
X122257365Y-65334888D01*
X122331474Y-65292101D01*
X122381920Y-65241655D01*
X122381920Y-66027389D01*
X122430894Y-66017649D01*
X122430903Y-66017646D01*
X122617433Y-65940384D01*
X122617446Y-65940377D01*
X122785319Y-65828207D01*
X122785323Y-65828204D01*
X122928087Y-65685440D01*
X122928090Y-65685436D01*
X123040260Y-65517563D01*
X123040267Y-65517550D01*
X123117529Y-65331020D01*
X123117532Y-65331011D01*
X123156919Y-65132995D01*
X123156920Y-65132992D01*
X123156920Y-65082037D01*
X122454987Y-65082037D01*
X122456920Y-65074824D01*
X122456920Y-64589250D01*
X122454987Y-64582037D01*
X123156920Y-64582037D01*
X123156920Y-64531082D01*
X123156919Y-64531078D01*
X123117532Y-64333062D01*
X123117529Y-64333053D01*
X123040267Y-64146523D01*
X123040260Y-64146510D01*
X122939978Y-63996428D01*
X122919100Y-63929751D01*
X122937584Y-63862370D01*
X122989563Y-63815680D01*
X123043080Y-63803537D01*
X123827204Y-63803537D01*
X123894243Y-63823222D01*
X123914885Y-63839856D01*
X124659540Y-64584511D01*
X124715489Y-64640460D01*
X124715491Y-64640461D01*
X124715495Y-64640464D01*
X124780801Y-64678168D01*
X124784011Y-64680021D01*
X124860438Y-64700500D01*
X127224167Y-64700500D01*
X127291206Y-64720185D01*
X127311848Y-64736819D01*
X133213181Y-70638152D01*
X133246666Y-70699475D01*
X133249500Y-70725833D01*
X133249500Y-70815892D01*
X133266554Y-70879539D01*
X133283608Y-70943187D01*
X133284495Y-70944723D01*
X133349500Y-71057314D01*
X133442686Y-71150500D01*
X133556814Y-71216392D01*
X133684108Y-71250500D01*
X133684110Y-71250500D01*
X133815890Y-71250500D01*
X133815892Y-71250500D01*
X133943186Y-71216392D01*
X134057314Y-71150500D01*
X134150500Y-71057314D01*
X134216392Y-70943186D01*
X134250500Y-70815892D01*
X134250500Y-70684108D01*
X134216392Y-70556814D01*
X134150500Y-70442686D01*
X134057314Y-70349500D01*
X134000250Y-70316554D01*
X133943187Y-70283608D01*
X133879539Y-70266554D01*
X133815892Y-70249500D01*
X133725833Y-70249500D01*
X133658794Y-70229815D01*
X133638152Y-70213181D01*
X127584512Y-64159541D01*
X127584504Y-64159535D01*
X127515995Y-64119982D01*
X127515990Y-64119979D01*
X127490513Y-64113152D01*
X127439562Y-64099500D01*
X127439560Y-64099500D01*
X125075833Y-64099500D01*
X125046392Y-64090855D01*
X125016406Y-64084332D01*
X125011390Y-64080577D01*
X125008794Y-64079815D01*
X124988152Y-64063181D01*
X124837903Y-63912932D01*
X124804418Y-63851609D01*
X124809402Y-63781917D01*
X124851274Y-63725984D01*
X124863579Y-63717866D01*
X124976734Y-63652537D01*
X125069920Y-63559351D01*
X125135812Y-63445223D01*
X125154886Y-63374038D01*
X135649500Y-63374038D01*
X135649500Y-63625962D01*
X135669537Y-63752472D01*
X135688910Y-63874785D01*
X135766760Y-64114383D01*
X135830174Y-64238838D01*
X135878183Y-64333062D01*
X135881132Y-64338848D01*
X136029201Y-64542649D01*
X136029205Y-64542654D01*
X136207345Y-64720794D01*
X136207350Y-64720798D01*
X136339597Y-64816880D01*
X136411155Y-64868870D01*
X136554184Y-64941747D01*
X136635616Y-64983239D01*
X136635618Y-64983239D01*
X136635621Y-64983241D01*
X136875215Y-65061090D01*
X137124038Y-65100500D01*
X137124039Y-65100500D01*
X137375961Y-65100500D01*
X137375962Y-65100500D01*
X137624785Y-65061090D01*
X137864379Y-64983241D01*
X138088845Y-64868870D01*
X138292656Y-64720793D01*
X138470793Y-64542656D01*
X138618870Y-64338845D01*
X138733241Y-64114379D01*
X138811090Y-63874785D01*
X138850500Y-63625962D01*
X138850500Y-63374038D01*
X138811090Y-63125215D01*
X138733241Y-62885621D01*
X138733239Y-62885618D01*
X138733239Y-62885616D01*
X138691747Y-62804184D01*
X138618870Y-62661155D01*
X138599952Y-62635117D01*
X138470798Y-62457350D01*
X138470794Y-62457345D01*
X138292654Y-62279205D01*
X138292649Y-62279201D01*
X138088848Y-62131132D01*
X138088847Y-62131131D01*
X138088845Y-62131130D01*
X138018747Y-62095413D01*
X137864383Y-62016760D01*
X137624785Y-61938910D01*
X137375962Y-61899500D01*
X137124038Y-61899500D01*
X136999626Y-61919205D01*
X136875214Y-61938910D01*
X136635616Y-62016760D01*
X136411151Y-62131132D01*
X136207350Y-62279201D01*
X136207345Y-62279205D01*
X136029205Y-62457345D01*
X136029201Y-62457350D01*
X135881132Y-62661151D01*
X135766760Y-62885616D01*
X135688910Y-63125214D01*
X135674225Y-63217929D01*
X135649500Y-63374038D01*
X125154886Y-63374038D01*
X125169920Y-63317929D01*
X125169920Y-63186145D01*
X125135812Y-63058851D01*
X125069920Y-62944723D01*
X124976734Y-62851537D01*
X124913828Y-62815218D01*
X124862607Y-62785645D01*
X124798959Y-62768591D01*
X124735312Y-62751537D01*
X124603528Y-62751537D01*
X124476234Y-62785645D01*
X124476233Y-62785645D01*
X124476231Y-62785646D01*
X124476230Y-62785646D01*
X124390880Y-62834924D01*
X124328880Y-62851537D01*
X123515891Y-62851537D01*
X123448852Y-62831852D01*
X123403097Y-62779048D01*
X123393153Y-62709890D01*
X123413660Y-62659364D01*
X123412942Y-62658924D01*
X123415483Y-62654776D01*
X123497667Y-62493484D01*
X123497668Y-62493481D01*
X123553602Y-62321330D01*
X123581920Y-62142543D01*
X123581920Y-62052037D01*
X122781920Y-62052037D01*
X122781920Y-61552037D01*
X123581920Y-61552037D01*
X123581920Y-61461530D01*
X123553602Y-61282743D01*
X123497668Y-61110592D01*
X123497667Y-61110589D01*
X123415485Y-60949302D01*
X123309096Y-60802867D01*
X123181089Y-60674860D01*
X123034654Y-60568471D01*
X122873367Y-60486289D01*
X122873364Y-60486288D01*
X122738383Y-60442431D01*
X122680708Y-60402994D01*
X122653509Y-60338635D01*
X122665423Y-60269789D01*
X122712667Y-60218313D01*
X122776701Y-60200500D01*
X140725500Y-60200500D01*
X140792539Y-60220185D01*
X140838294Y-60272989D01*
X140849500Y-60324500D01*
X140849500Y-138875500D01*
X140829815Y-138942539D01*
X140777011Y-138988294D01*
X140725500Y-138999500D01*
X65024500Y-138999500D01*
X64957461Y-138979815D01*
X64911706Y-138927011D01*
X64900500Y-138875500D01*
X64900500Y-135374038D01*
X66899500Y-135374038D01*
X66899500Y-135625962D01*
X66902917Y-135647538D01*
X66938910Y-135874785D01*
X67016760Y-136114383D01*
X67095413Y-136268747D01*
X67127835Y-136332379D01*
X67131132Y-136338848D01*
X67279201Y-136542649D01*
X67279205Y-136542654D01*
X67457345Y-136720794D01*
X67457350Y-136720798D01*
X67635117Y-136849952D01*
X67661155Y-136868870D01*
X67772249Y-136925475D01*
X67885616Y-136983239D01*
X67885618Y-136983239D01*
X67885621Y-136983241D01*
X68125215Y-137061090D01*
X68374038Y-137100500D01*
X68374039Y-137100500D01*
X68625961Y-137100500D01*
X68625962Y-137100500D01*
X68874785Y-137061090D01*
X69114379Y-136983241D01*
X69338845Y-136868870D01*
X69542656Y-136720793D01*
X69720793Y-136542656D01*
X69868870Y-136338845D01*
X69974118Y-136132284D01*
X74118920Y-136132284D01*
X74118920Y-137871789D01*
X74130551Y-137930266D01*
X74130552Y-137930267D01*
X74174867Y-137996589D01*
X74241189Y-138040904D01*
X74241190Y-138040905D01*
X74299667Y-138052536D01*
X74299670Y-138052537D01*
X74299672Y-138052537D01*
X76039170Y-138052537D01*
X76039171Y-138052536D01*
X76053988Y-138049589D01*
X76097649Y-138040905D01*
X76097649Y-138040904D01*
X76097651Y-138040904D01*
X76163972Y-137996589D01*
X76208287Y-137930268D01*
X76208287Y-137930266D01*
X76208288Y-137930266D01*
X76219919Y-137871789D01*
X76219920Y-137871787D01*
X76219920Y-136992514D01*
X76239605Y-136925475D01*
X76256239Y-136904833D01*
X76356435Y-136804637D01*
X76468308Y-136692763D01*
X76529629Y-136659280D01*
X76599320Y-136664264D01*
X76655254Y-136706135D01*
X76679671Y-136771600D01*
X76677604Y-136804637D01*
X76658920Y-136898567D01*
X76658920Y-137105506D01*
X76699288Y-137308449D01*
X76699290Y-137308457D01*
X76778478Y-137499633D01*
X76893444Y-137671694D01*
X77039762Y-137818012D01*
X77039765Y-137818014D01*
X77211822Y-137932978D01*
X77403000Y-138012167D01*
X77547472Y-138040904D01*
X77605950Y-138052536D01*
X77605954Y-138052537D01*
X77605955Y-138052537D01*
X77812886Y-138052537D01*
X77812887Y-138052536D01*
X78015840Y-138012167D01*
X78207018Y-137932978D01*
X78379075Y-137818014D01*
X78525397Y-137671692D01*
X78640361Y-137499635D01*
X78719550Y-137308457D01*
X78759920Y-137105502D01*
X78759920Y-136898572D01*
X78719550Y-136695617D01*
X78659258Y-136550061D01*
X78651790Y-136480596D01*
X78683065Y-136418117D01*
X78686110Y-136414960D01*
X83752978Y-131348095D01*
X83752978Y-131348093D01*
X83752980Y-131348092D01*
X83773949Y-131297466D01*
X83794920Y-131246837D01*
X83794920Y-131137237D01*
X83794920Y-117306838D01*
X83794921Y-117306836D01*
X83794921Y-117275176D01*
X83814607Y-117208137D01*
X83853908Y-117174083D01*
X83867410Y-117162385D01*
X83867411Y-117162384D01*
X83867412Y-117162384D01*
X83890395Y-117159080D01*
X83936568Y-117152441D01*
X83936570Y-117152442D01*
X83936571Y-117152442D01*
X83952716Y-117159815D01*
X84000124Y-117181466D01*
X84000124Y-117181467D01*
X84000126Y-117181468D01*
X84015105Y-117204777D01*
X84037898Y-117240244D01*
X84038684Y-117243044D01*
X84047294Y-117275176D01*
X84053029Y-117296581D01*
X84085975Y-117353644D01*
X84118921Y-117410708D01*
X84118923Y-117410710D01*
X84207602Y-117499389D01*
X84241087Y-117560712D01*
X84243921Y-117587070D01*
X84243921Y-132566557D01*
X84224236Y-132633596D01*
X84207602Y-132654238D01*
X80836523Y-136025316D01*
X80775200Y-136058801D01*
X80705508Y-136053817D01*
X80701401Y-136052201D01*
X80555840Y-135991907D01*
X80555832Y-135991905D01*
X80352889Y-135951537D01*
X80352885Y-135951537D01*
X80145955Y-135951537D01*
X80145950Y-135951537D01*
X79943007Y-135991905D01*
X79942999Y-135991907D01*
X79751823Y-136071095D01*
X79579762Y-136186061D01*
X79433444Y-136332379D01*
X79318478Y-136504440D01*
X79239290Y-136695616D01*
X79239288Y-136695624D01*
X79198920Y-136898567D01*
X79198920Y-137105506D01*
X79239288Y-137308449D01*
X79239290Y-137308457D01*
X79318478Y-137499633D01*
X79433444Y-137671694D01*
X79579762Y-137818012D01*
X79579765Y-137818014D01*
X79751822Y-137932978D01*
X79943000Y-138012167D01*
X80087472Y-138040904D01*
X80145950Y-138052536D01*
X80145954Y-138052537D01*
X80145955Y-138052537D01*
X80352886Y-138052537D01*
X80352887Y-138052536D01*
X80555840Y-138012167D01*
X80747018Y-137932978D01*
X80919075Y-137818014D01*
X81065397Y-137671692D01*
X81180361Y-137499635D01*
X81259550Y-137308457D01*
X81299920Y-137105502D01*
X81299920Y-136898572D01*
X81259550Y-136695617D01*
X81199259Y-136550064D01*
X81191791Y-136480596D01*
X81223066Y-136418116D01*
X81226111Y-136414960D01*
X84752978Y-132888095D01*
X84765262Y-132858436D01*
X84794921Y-132786836D01*
X84794921Y-117775179D01*
X84814606Y-117708140D01*
X84867410Y-117662385D01*
X84936568Y-117652441D01*
X85000124Y-117681466D01*
X85037898Y-117740244D01*
X85038684Y-117743044D01*
X85047295Y-117775179D01*
X85053029Y-117796581D01*
X85085975Y-117853644D01*
X85118921Y-117910708D01*
X85118923Y-117910710D01*
X85207602Y-117999389D01*
X85241087Y-118060712D01*
X85243921Y-118087070D01*
X85243921Y-134106557D01*
X85224236Y-134173596D01*
X85207602Y-134194238D01*
X83376523Y-136025316D01*
X83315200Y-136058801D01*
X83245508Y-136053817D01*
X83241401Y-136052201D01*
X83095840Y-135991907D01*
X83095832Y-135991905D01*
X82892889Y-135951537D01*
X82892885Y-135951537D01*
X82685955Y-135951537D01*
X82685950Y-135951537D01*
X82483007Y-135991905D01*
X82482999Y-135991907D01*
X82291823Y-136071095D01*
X82119762Y-136186061D01*
X81973444Y-136332379D01*
X81858478Y-136504440D01*
X81779290Y-136695616D01*
X81779288Y-136695624D01*
X81738920Y-136898567D01*
X81738920Y-137105506D01*
X81779288Y-137308449D01*
X81779290Y-137308457D01*
X81858478Y-137499633D01*
X81973444Y-137671694D01*
X82119762Y-137818012D01*
X82119765Y-137818014D01*
X82291822Y-137932978D01*
X82483000Y-138012167D01*
X82627472Y-138040904D01*
X82685950Y-138052536D01*
X82685954Y-138052537D01*
X82685955Y-138052537D01*
X82892886Y-138052537D01*
X82892887Y-138052536D01*
X83095840Y-138012167D01*
X83287018Y-137932978D01*
X83459075Y-137818014D01*
X83605397Y-137671692D01*
X83720361Y-137499635D01*
X83799550Y-137308457D01*
X83839920Y-137105502D01*
X83839920Y-136898572D01*
X83799550Y-136695617D01*
X83739259Y-136550064D01*
X83731791Y-136480596D01*
X83763066Y-136418116D01*
X83766111Y-136414960D01*
X85752978Y-134428095D01*
X85765262Y-134398436D01*
X85794921Y-134326836D01*
X85794921Y-118275179D01*
X85814606Y-118208140D01*
X85867410Y-118162385D01*
X85936568Y-118152441D01*
X86000124Y-118181466D01*
X86037898Y-118240244D01*
X86038684Y-118243044D01*
X86047295Y-118275179D01*
X86053029Y-118296581D01*
X86085975Y-118353644D01*
X86118921Y-118410708D01*
X86118923Y-118410710D01*
X86207602Y-118499389D01*
X86241087Y-118560712D01*
X86243921Y-118587070D01*
X86243921Y-135646557D01*
X86224236Y-135713596D01*
X86207602Y-135734238D01*
X85916524Y-136025316D01*
X85855201Y-136058801D01*
X85785509Y-136053817D01*
X85781390Y-136052196D01*
X85635840Y-135991907D01*
X85635832Y-135991905D01*
X85432889Y-135951537D01*
X85432885Y-135951537D01*
X85225955Y-135951537D01*
X85225950Y-135951537D01*
X85023007Y-135991905D01*
X85022999Y-135991907D01*
X84831823Y-136071095D01*
X84659762Y-136186061D01*
X84513444Y-136332379D01*
X84398478Y-136504440D01*
X84319290Y-136695616D01*
X84319288Y-136695624D01*
X84278920Y-136898567D01*
X84278920Y-137105506D01*
X84319288Y-137308449D01*
X84319290Y-137308457D01*
X84398478Y-137499633D01*
X84513444Y-137671694D01*
X84659762Y-137818012D01*
X84659765Y-137818014D01*
X84831822Y-137932978D01*
X85023000Y-138012167D01*
X85167472Y-138040904D01*
X85225950Y-138052536D01*
X85225954Y-138052537D01*
X85225955Y-138052537D01*
X85432886Y-138052537D01*
X85432887Y-138052536D01*
X85635840Y-138012167D01*
X85827018Y-137932978D01*
X85999075Y-137818014D01*
X86145397Y-137671692D01*
X86260361Y-137499635D01*
X86339550Y-137308457D01*
X86379920Y-137105502D01*
X86379920Y-136898572D01*
X86339550Y-136695617D01*
X86279259Y-136550064D01*
X86271791Y-136480596D01*
X86303066Y-136418116D01*
X86306108Y-136414963D01*
X86752979Y-135968094D01*
X86752979Y-135968092D01*
X86752981Y-135968091D01*
X86773950Y-135917465D01*
X86794921Y-135866836D01*
X86794921Y-135757236D01*
X86794921Y-118775179D01*
X86814606Y-118708140D01*
X86867410Y-118662385D01*
X86936568Y-118652441D01*
X87000124Y-118681466D01*
X87037898Y-118740244D01*
X87038684Y-118743044D01*
X87047295Y-118775179D01*
X87053029Y-118796581D01*
X87085975Y-118853644D01*
X87118921Y-118910708D01*
X87118923Y-118910710D01*
X87207601Y-118999388D01*
X87241086Y-119060711D01*
X87243920Y-119087069D01*
X87243920Y-136091175D01*
X87224235Y-136158214D01*
X87203653Y-136181333D01*
X87204072Y-136181752D01*
X87053445Y-136332378D01*
X87053444Y-136332379D01*
X86938478Y-136504440D01*
X86859290Y-136695616D01*
X86859288Y-136695624D01*
X86818920Y-136898567D01*
X86818920Y-137105506D01*
X86859288Y-137308449D01*
X86859290Y-137308457D01*
X86938478Y-137499633D01*
X87053444Y-137671694D01*
X87199762Y-137818012D01*
X87199765Y-137818014D01*
X87371822Y-137932978D01*
X87563000Y-138012167D01*
X87707472Y-138040904D01*
X87765950Y-138052536D01*
X87765954Y-138052537D01*
X87765955Y-138052537D01*
X87972886Y-138052537D01*
X87972887Y-138052536D01*
X88175840Y-138012167D01*
X88367018Y-137932978D01*
X88539075Y-137818014D01*
X88685397Y-137671692D01*
X88800361Y-137499635D01*
X88879550Y-137308457D01*
X88919920Y-137105502D01*
X88919920Y-136898572D01*
X88879550Y-136695617D01*
X88800361Y-136504439D01*
X88685397Y-136332382D01*
X88685395Y-136332379D01*
X88539077Y-136186061D01*
X88431796Y-136114379D01*
X88367018Y-136071096D01*
X88367013Y-136071094D01*
X88175840Y-135991907D01*
X88175832Y-135991905D01*
X87972889Y-135951537D01*
X87972885Y-135951537D01*
X87918920Y-135951537D01*
X87851881Y-135931852D01*
X87806126Y-135879048D01*
X87794920Y-135827537D01*
X87794920Y-119275175D01*
X87814605Y-119208136D01*
X87867409Y-119162381D01*
X87936567Y-119152437D01*
X88000123Y-119181462D01*
X88037897Y-119240240D01*
X88038681Y-119243034D01*
X88047294Y-119275175D01*
X88053029Y-119296581D01*
X88085975Y-119353644D01*
X88118921Y-119410708D01*
X88118923Y-119410710D01*
X88207602Y-119499389D01*
X88241087Y-119560712D01*
X88243921Y-119587070D01*
X88243921Y-135166838D01*
X88264277Y-135215979D01*
X88285864Y-135268096D01*
X88285865Y-135268097D01*
X89432699Y-136414932D01*
X89466184Y-136476255D01*
X89461200Y-136545947D01*
X89459579Y-136550065D01*
X89399291Y-136695612D01*
X89399288Y-136695624D01*
X89358920Y-136898567D01*
X89358920Y-137105506D01*
X89399288Y-137308449D01*
X89399290Y-137308457D01*
X89478478Y-137499633D01*
X89593444Y-137671694D01*
X89739762Y-137818012D01*
X89739765Y-137818014D01*
X89911822Y-137932978D01*
X90103000Y-138012167D01*
X90247472Y-138040904D01*
X90305950Y-138052536D01*
X90305954Y-138052537D01*
X90305955Y-138052537D01*
X90512886Y-138052537D01*
X90512887Y-138052536D01*
X90715840Y-138012167D01*
X90907018Y-137932978D01*
X91079075Y-137818014D01*
X91225397Y-137671692D01*
X91340361Y-137499635D01*
X91419550Y-137308457D01*
X91459920Y-137105502D01*
X91459920Y-136898572D01*
X91419550Y-136695617D01*
X91340361Y-136504439D01*
X91225397Y-136332382D01*
X91225395Y-136332379D01*
X91079077Y-136186061D01*
X90971796Y-136114379D01*
X90907018Y-136071096D01*
X90907013Y-136071094D01*
X90715840Y-135991907D01*
X90715832Y-135991905D01*
X90512889Y-135951537D01*
X90512885Y-135951537D01*
X90305955Y-135951537D01*
X90305950Y-135951537D01*
X90103007Y-135991905D01*
X90102995Y-135991908D01*
X89957448Y-136052196D01*
X89887979Y-136059665D01*
X89825500Y-136028390D01*
X89822315Y-136025316D01*
X88831240Y-135034241D01*
X88797755Y-134972918D01*
X88794921Y-134946560D01*
X88794921Y-119775179D01*
X88814606Y-119708140D01*
X88867410Y-119662385D01*
X88936568Y-119652441D01*
X89000124Y-119681466D01*
X89037898Y-119740244D01*
X89038684Y-119743044D01*
X89047295Y-119775179D01*
X89053029Y-119796581D01*
X89085975Y-119853644D01*
X89118921Y-119910708D01*
X89118923Y-119910710D01*
X89207602Y-119999389D01*
X89241087Y-120060712D01*
X89243921Y-120087070D01*
X89243921Y-133626838D01*
X89264277Y-133675979D01*
X89285864Y-133728096D01*
X89285865Y-133728097D01*
X91972699Y-136414932D01*
X92006184Y-136476255D01*
X92001200Y-136545947D01*
X91999579Y-136550065D01*
X91939291Y-136695612D01*
X91939288Y-136695624D01*
X91898920Y-136898567D01*
X91898920Y-137105506D01*
X91939288Y-137308449D01*
X91939290Y-137308457D01*
X92018478Y-137499633D01*
X92133444Y-137671694D01*
X92279762Y-137818012D01*
X92279765Y-137818014D01*
X92451822Y-137932978D01*
X92643000Y-138012167D01*
X92787472Y-138040904D01*
X92845950Y-138052536D01*
X92845954Y-138052537D01*
X92845955Y-138052537D01*
X93052886Y-138052537D01*
X93052887Y-138052536D01*
X93255840Y-138012167D01*
X93447018Y-137932978D01*
X93619075Y-137818014D01*
X93765397Y-137671692D01*
X93880361Y-137499635D01*
X93959550Y-137308457D01*
X93999920Y-137105502D01*
X93999920Y-136898572D01*
X93999919Y-136898567D01*
X94438920Y-136898567D01*
X94438920Y-137105506D01*
X94479288Y-137308449D01*
X94479290Y-137308457D01*
X94558478Y-137499633D01*
X94673444Y-137671694D01*
X94819762Y-137818012D01*
X94819765Y-137818014D01*
X94991822Y-137932978D01*
X95183000Y-138012167D01*
X95327472Y-138040904D01*
X95385950Y-138052536D01*
X95385954Y-138052537D01*
X95385955Y-138052537D01*
X95592886Y-138052537D01*
X95592887Y-138052536D01*
X95795840Y-138012167D01*
X95987018Y-137932978D01*
X96159075Y-137818014D01*
X96305397Y-137671692D01*
X96420361Y-137499635D01*
X96499550Y-137308457D01*
X96539920Y-137105502D01*
X96539920Y-136898572D01*
X96499550Y-136695617D01*
X96439258Y-136550061D01*
X96431790Y-136480596D01*
X96463065Y-136418117D01*
X96466111Y-136414959D01*
X100252978Y-132628094D01*
X100294921Y-132526836D01*
X100294921Y-132417236D01*
X100294921Y-128374879D01*
X100314606Y-128307840D01*
X100367410Y-128262085D01*
X100436568Y-128252141D01*
X100500124Y-128281166D01*
X100537898Y-128339944D01*
X100538684Y-128342744D01*
X100547295Y-128374879D01*
X100553029Y-128396281D01*
X100585975Y-128453344D01*
X100618921Y-128510408D01*
X100618923Y-128510410D01*
X100707602Y-128599089D01*
X100741087Y-128660412D01*
X100743921Y-128686770D01*
X100743921Y-133846558D01*
X100724236Y-133913597D01*
X100707602Y-133934239D01*
X98616524Y-136025316D01*
X98555201Y-136058801D01*
X98485509Y-136053817D01*
X98481390Y-136052196D01*
X98335840Y-135991907D01*
X98335832Y-135991905D01*
X98132889Y-135951537D01*
X98132885Y-135951537D01*
X97925955Y-135951537D01*
X97925950Y-135951537D01*
X97723007Y-135991905D01*
X97722999Y-135991907D01*
X97531823Y-136071095D01*
X97359762Y-136186061D01*
X97213444Y-136332379D01*
X97098478Y-136504440D01*
X97019290Y-136695616D01*
X97019288Y-136695624D01*
X96978920Y-136898567D01*
X96978920Y-137105506D01*
X97019288Y-137308449D01*
X97019290Y-137308457D01*
X97098478Y-137499633D01*
X97213444Y-137671694D01*
X97359762Y-137818012D01*
X97359765Y-137818014D01*
X97531822Y-137932978D01*
X97723000Y-138012167D01*
X97867472Y-138040904D01*
X97925950Y-138052536D01*
X97925954Y-138052537D01*
X97925955Y-138052537D01*
X98132886Y-138052537D01*
X98132887Y-138052536D01*
X98335840Y-138012167D01*
X98527018Y-137932978D01*
X98699075Y-137818014D01*
X98845397Y-137671692D01*
X98960361Y-137499635D01*
X99039550Y-137308457D01*
X99079920Y-137105502D01*
X99079920Y-136898572D01*
X99039550Y-136695617D01*
X98979258Y-136550061D01*
X98971790Y-136480596D01*
X99003065Y-136418117D01*
X99006110Y-136414960D01*
X101252978Y-134168094D01*
X101278061Y-134107538D01*
X101294921Y-134066836D01*
X101294921Y-128874879D01*
X101314606Y-128807840D01*
X101367410Y-128762085D01*
X101436568Y-128752141D01*
X101500124Y-128781166D01*
X101537898Y-128839944D01*
X101538684Y-128842744D01*
X101547295Y-128874879D01*
X101553029Y-128896281D01*
X101585975Y-128953344D01*
X101618921Y-129010408D01*
X101618923Y-129010410D01*
X101707602Y-129099089D01*
X101741087Y-129160412D01*
X101743921Y-129186770D01*
X101743921Y-135386557D01*
X101724236Y-135453596D01*
X101707602Y-135474238D01*
X101156524Y-136025316D01*
X101095201Y-136058801D01*
X101025509Y-136053817D01*
X101021390Y-136052196D01*
X100875840Y-135991907D01*
X100875832Y-135991905D01*
X100672889Y-135951537D01*
X100672885Y-135951537D01*
X100465955Y-135951537D01*
X100465950Y-135951537D01*
X100263007Y-135991905D01*
X100262999Y-135991907D01*
X100071823Y-136071095D01*
X99899762Y-136186061D01*
X99753444Y-136332379D01*
X99638478Y-136504440D01*
X99559290Y-136695616D01*
X99559288Y-136695624D01*
X99518920Y-136898567D01*
X99518920Y-137105506D01*
X99559288Y-137308449D01*
X99559290Y-137308457D01*
X99638478Y-137499633D01*
X99753444Y-137671694D01*
X99899762Y-137818012D01*
X99899765Y-137818014D01*
X100071822Y-137932978D01*
X100263000Y-138012167D01*
X100407472Y-138040904D01*
X100465950Y-138052536D01*
X100465954Y-138052537D01*
X100465955Y-138052537D01*
X100672886Y-138052537D01*
X100672887Y-138052536D01*
X100875840Y-138012167D01*
X101067018Y-137932978D01*
X101239075Y-137818014D01*
X101385397Y-137671692D01*
X101500361Y-137499635D01*
X101579550Y-137308457D01*
X101619920Y-137105502D01*
X101619920Y-136898572D01*
X101579550Y-136695617D01*
X101519259Y-136550064D01*
X101511791Y-136480596D01*
X101543066Y-136418116D01*
X101546110Y-136414962D01*
X102252978Y-135708095D01*
X102278061Y-135647538D01*
X102294921Y-135606836D01*
X102294921Y-129374879D01*
X102314606Y-129307840D01*
X102367410Y-129262085D01*
X102436568Y-129252141D01*
X102500124Y-129281166D01*
X102537898Y-129339944D01*
X102538684Y-129342744D01*
X102547295Y-129374879D01*
X102553029Y-129396281D01*
X102585975Y-129453344D01*
X102618921Y-129510408D01*
X102712107Y-129603594D01*
X102749213Y-129625017D01*
X102771920Y-129638127D01*
X102820136Y-129688694D01*
X102833920Y-129745514D01*
X102833920Y-135896245D01*
X102814235Y-135963284D01*
X102761431Y-136009039D01*
X102757373Y-136010806D01*
X102611824Y-136071094D01*
X102439762Y-136186061D01*
X102293444Y-136332379D01*
X102178478Y-136504440D01*
X102099290Y-136695616D01*
X102099288Y-136695624D01*
X102058920Y-136898567D01*
X102058920Y-137105506D01*
X102099288Y-137308449D01*
X102099290Y-137308457D01*
X102178478Y-137499633D01*
X102293444Y-137671694D01*
X102439762Y-137818012D01*
X102439765Y-137818014D01*
X102611822Y-137932978D01*
X102803000Y-138012167D01*
X102947472Y-138040904D01*
X103005950Y-138052536D01*
X103005954Y-138052537D01*
X103005955Y-138052537D01*
X103212886Y-138052537D01*
X103212887Y-138052536D01*
X103415840Y-138012167D01*
X103607018Y-137932978D01*
X103779075Y-137818014D01*
X103925397Y-137671692D01*
X104040361Y-137499635D01*
X104119550Y-137308457D01*
X104159920Y-137105502D01*
X104159920Y-136898572D01*
X104119550Y-136695617D01*
X104040361Y-136504439D01*
X103925397Y-136332382D01*
X103925395Y-136332379D01*
X103779077Y-136186061D01*
X103607015Y-136071094D01*
X103461467Y-136010806D01*
X103407064Y-135966965D01*
X103384999Y-135900670D01*
X103384920Y-135896245D01*
X103384920Y-130067880D01*
X103404605Y-130000841D01*
X103457409Y-129955086D01*
X103526567Y-129945142D01*
X103590123Y-129974167D01*
X103599557Y-129983257D01*
X103609222Y-129993608D01*
X103618921Y-130010408D01*
X103709122Y-130100609D01*
X103710558Y-130102147D01*
X103725329Y-130131554D01*
X103741087Y-130160412D01*
X103741430Y-130163608D01*
X103741920Y-130164583D01*
X103741729Y-130166383D01*
X103743921Y-130186770D01*
X103743921Y-135426838D01*
X103785864Y-135528096D01*
X103785865Y-135528097D01*
X104672699Y-136414932D01*
X104706184Y-136476255D01*
X104701200Y-136545947D01*
X104699579Y-136550065D01*
X104639291Y-136695612D01*
X104639288Y-136695624D01*
X104598920Y-136898567D01*
X104598920Y-137105506D01*
X104639288Y-137308449D01*
X104639290Y-137308457D01*
X104718478Y-137499633D01*
X104833444Y-137671694D01*
X104979762Y-137818012D01*
X104979765Y-137818014D01*
X105151822Y-137932978D01*
X105343000Y-138012167D01*
X105487472Y-138040904D01*
X105545950Y-138052536D01*
X105545954Y-138052537D01*
X105545955Y-138052537D01*
X105752886Y-138052537D01*
X105752887Y-138052536D01*
X105955840Y-138012167D01*
X106147018Y-137932978D01*
X106319075Y-137818014D01*
X106465397Y-137671692D01*
X106580361Y-137499635D01*
X106659550Y-137308457D01*
X106699920Y-137105502D01*
X106699920Y-136898572D01*
X106659550Y-136695617D01*
X106580361Y-136504439D01*
X106465397Y-136332382D01*
X106465395Y-136332379D01*
X106319077Y-136186061D01*
X106211796Y-136114379D01*
X106147018Y-136071096D01*
X106147013Y-136071094D01*
X105955840Y-135991907D01*
X105955832Y-135991905D01*
X105752889Y-135951537D01*
X105752885Y-135951537D01*
X105545955Y-135951537D01*
X105545950Y-135951537D01*
X105343007Y-135991905D01*
X105342995Y-135991908D01*
X105197448Y-136052196D01*
X105127979Y-136059665D01*
X105065500Y-136028390D01*
X105062315Y-136025316D01*
X104331240Y-135294241D01*
X104297755Y-135232918D01*
X104294921Y-135206560D01*
X104294921Y-130374879D01*
X104314606Y-130307840D01*
X104367410Y-130262085D01*
X104436568Y-130252141D01*
X104500124Y-130281166D01*
X104537898Y-130339944D01*
X104538684Y-130342744D01*
X104547295Y-130374879D01*
X104553029Y-130396281D01*
X104559850Y-130408095D01*
X104618921Y-130510408D01*
X104618923Y-130510410D01*
X104707602Y-130599089D01*
X104741087Y-130660412D01*
X104743921Y-130686770D01*
X104743921Y-133886838D01*
X104785864Y-133988096D01*
X104785865Y-133988097D01*
X107212699Y-136414932D01*
X107246184Y-136476255D01*
X107241200Y-136545947D01*
X107239579Y-136550065D01*
X107179291Y-136695612D01*
X107179288Y-136695624D01*
X107138920Y-136898567D01*
X107138920Y-137105506D01*
X107179288Y-137308449D01*
X107179290Y-137308457D01*
X107258478Y-137499633D01*
X107373444Y-137671694D01*
X107519762Y-137818012D01*
X107519765Y-137818014D01*
X107691822Y-137932978D01*
X107883000Y-138012167D01*
X108027472Y-138040904D01*
X108085950Y-138052536D01*
X108085954Y-138052537D01*
X108085955Y-138052537D01*
X108292886Y-138052537D01*
X108292887Y-138052536D01*
X108495840Y-138012167D01*
X108687018Y-137932978D01*
X108859075Y-137818014D01*
X109005397Y-137671692D01*
X109120361Y-137499635D01*
X109199550Y-137308457D01*
X109239920Y-137105502D01*
X109239920Y-136898572D01*
X109199550Y-136695617D01*
X109120361Y-136504439D01*
X109005397Y-136332382D01*
X109005395Y-136332379D01*
X108859077Y-136186061D01*
X108751796Y-136114379D01*
X108687018Y-136071096D01*
X108687013Y-136071094D01*
X108495840Y-135991907D01*
X108495832Y-135991905D01*
X108292889Y-135951537D01*
X108292885Y-135951537D01*
X108085955Y-135951537D01*
X108085950Y-135951537D01*
X107883007Y-135991905D01*
X107882995Y-135991908D01*
X107737448Y-136052196D01*
X107667979Y-136059665D01*
X107605500Y-136028390D01*
X107602315Y-136025316D01*
X105331240Y-133754241D01*
X105297755Y-133692918D01*
X105294921Y-133666560D01*
X105294921Y-130874879D01*
X105314606Y-130807840D01*
X105367410Y-130762085D01*
X105436568Y-130752141D01*
X105500124Y-130781166D01*
X105537898Y-130839944D01*
X105538684Y-130842744D01*
X105547295Y-130874879D01*
X105553029Y-130896281D01*
X105585975Y-130953344D01*
X105618921Y-131010408D01*
X105618923Y-131010410D01*
X105707602Y-131099089D01*
X105741087Y-131160412D01*
X105743921Y-131186770D01*
X105743921Y-132306838D01*
X105747706Y-132315975D01*
X105747709Y-132315982D01*
X105785864Y-132408096D01*
X105785865Y-132408097D01*
X109764415Y-136386648D01*
X109797900Y-136447971D01*
X109792916Y-136517663D01*
X109791295Y-136521782D01*
X109719290Y-136695616D01*
X109719288Y-136695624D01*
X109678920Y-136898567D01*
X109678920Y-137105506D01*
X109719288Y-137308449D01*
X109719290Y-137308457D01*
X109798478Y-137499633D01*
X109913444Y-137671694D01*
X110059762Y-137818012D01*
X110059765Y-137818014D01*
X110231822Y-137932978D01*
X110423000Y-138012167D01*
X110567472Y-138040904D01*
X110625950Y-138052536D01*
X110625954Y-138052537D01*
X110625955Y-138052537D01*
X110832886Y-138052537D01*
X110832887Y-138052536D01*
X111035840Y-138012167D01*
X111227018Y-137932978D01*
X111399075Y-137818014D01*
X111545397Y-137671692D01*
X111660361Y-137499635D01*
X111739550Y-137308457D01*
X111779920Y-137105502D01*
X111779920Y-136898572D01*
X111739550Y-136695617D01*
X111660361Y-136504439D01*
X111545397Y-136332382D01*
X111545395Y-136332379D01*
X111399077Y-136186061D01*
X111291796Y-136114379D01*
X111227018Y-136071096D01*
X111227013Y-136071094D01*
X111035840Y-135991907D01*
X111035832Y-135991905D01*
X110832889Y-135951537D01*
X110832885Y-135951537D01*
X110625955Y-135951537D01*
X110625950Y-135951537D01*
X110423007Y-135991905D01*
X110422995Y-135991908D01*
X110305732Y-136040480D01*
X110236263Y-136047949D01*
X110173784Y-136016673D01*
X110170599Y-136013600D01*
X106331240Y-132174241D01*
X106297755Y-132112918D01*
X106294921Y-132086560D01*
X106294921Y-131374879D01*
X106314606Y-131307840D01*
X106367410Y-131262085D01*
X106436568Y-131252141D01*
X106500124Y-131281166D01*
X106537898Y-131339944D01*
X106538684Y-131342744D01*
X106540118Y-131348094D01*
X106553029Y-131396281D01*
X106585975Y-131453344D01*
X106618921Y-131510408D01*
X106712107Y-131603594D01*
X106826235Y-131669486D01*
X106953529Y-131703594D01*
X106953531Y-131703594D01*
X107085310Y-131703594D01*
X107085313Y-131703594D01*
X107210218Y-131670126D01*
X107280063Y-131671789D01*
X107329988Y-131702220D01*
X112223057Y-136595289D01*
X112256542Y-136656612D01*
X112256993Y-136707161D01*
X112218920Y-136898567D01*
X112218920Y-137105506D01*
X112259288Y-137308449D01*
X112259290Y-137308457D01*
X112338478Y-137499633D01*
X112453444Y-137671694D01*
X112599762Y-137818012D01*
X112599765Y-137818014D01*
X112771822Y-137932978D01*
X112963000Y-138012167D01*
X113107472Y-138040904D01*
X113165950Y-138052536D01*
X113165954Y-138052537D01*
X113165955Y-138052537D01*
X113372886Y-138052537D01*
X113372887Y-138052536D01*
X113575840Y-138012167D01*
X113767018Y-137932978D01*
X113939075Y-137818014D01*
X114085397Y-137671692D01*
X114200361Y-137499635D01*
X114279550Y-137308457D01*
X114319920Y-137105502D01*
X114319920Y-136898572D01*
X114279550Y-136695617D01*
X114200361Y-136504439D01*
X114085397Y-136332382D01*
X114085395Y-136332379D01*
X113939077Y-136186061D01*
X113831796Y-136114379D01*
X113767018Y-136071096D01*
X113767013Y-136071094D01*
X113575840Y-135991907D01*
X113575832Y-135991905D01*
X113372889Y-135951537D01*
X113372885Y-135951537D01*
X113165955Y-135951537D01*
X113165950Y-135951537D01*
X112963007Y-135991905D01*
X112962999Y-135991907D01*
X112771823Y-136071095D01*
X112680357Y-136132210D01*
X112613679Y-136153087D01*
X112546299Y-136134602D01*
X112523786Y-136116788D01*
X111781036Y-135374038D01*
X135649500Y-135374038D01*
X135649500Y-135625962D01*
X135652917Y-135647538D01*
X135688910Y-135874785D01*
X135766760Y-136114383D01*
X135845413Y-136268747D01*
X135877835Y-136332379D01*
X135881132Y-136338848D01*
X136029201Y-136542649D01*
X136029205Y-136542654D01*
X136207345Y-136720794D01*
X136207350Y-136720798D01*
X136385117Y-136849952D01*
X136411155Y-136868870D01*
X136522249Y-136925475D01*
X136635616Y-136983239D01*
X136635618Y-136983239D01*
X136635621Y-136983241D01*
X136875215Y-137061090D01*
X137124038Y-137100500D01*
X137124039Y-137100500D01*
X137375961Y-137100500D01*
X137375962Y-137100500D01*
X137624785Y-137061090D01*
X137864379Y-136983241D01*
X138088845Y-136868870D01*
X138292656Y-136720793D01*
X138470793Y-136542656D01*
X138618870Y-136338845D01*
X138733241Y-136114379D01*
X138811090Y-135874785D01*
X138850500Y-135625962D01*
X138850500Y-135374038D01*
X138811090Y-135125215D01*
X138733241Y-134885621D01*
X138733239Y-134885618D01*
X138733239Y-134885616D01*
X138691747Y-134804184D01*
X138618870Y-134661155D01*
X138599952Y-134635117D01*
X138470798Y-134457350D01*
X138470794Y-134457345D01*
X138292654Y-134279205D01*
X138292649Y-134279201D01*
X138088848Y-134131132D01*
X138088847Y-134131131D01*
X138088845Y-134131130D01*
X138018747Y-134095413D01*
X137864383Y-134016760D01*
X137624785Y-133938910D01*
X137464966Y-133913597D01*
X137375962Y-133899500D01*
X137124038Y-133899500D01*
X137035034Y-133913597D01*
X136875214Y-133938910D01*
X136635616Y-134016760D01*
X136411151Y-134131132D01*
X136207350Y-134279201D01*
X136207345Y-134279205D01*
X136029205Y-134457345D01*
X136029201Y-134457350D01*
X135881132Y-134661151D01*
X135766760Y-134885616D01*
X135688910Y-135125214D01*
X135662139Y-135294241D01*
X135649500Y-135374038D01*
X111781036Y-135374038D01*
X107534528Y-131127530D01*
X107502435Y-131071943D01*
X107485813Y-131009908D01*
X107419921Y-130895780D01*
X107331240Y-130807099D01*
X107297755Y-130745776D01*
X107294921Y-130719418D01*
X107294921Y-116835412D01*
X107314606Y-116768373D01*
X107331240Y-116747731D01*
X107371573Y-116707398D01*
X107419920Y-116659051D01*
X107485812Y-116544923D01*
X107519920Y-116417629D01*
X107519920Y-116285845D01*
X107485812Y-116158551D01*
X107419920Y-116044423D01*
X107331239Y-115955742D01*
X107297755Y-115894418D01*
X107294921Y-115868061D01*
X107294921Y-101835412D01*
X107314606Y-101768373D01*
X107331240Y-101747731D01*
X107371574Y-101707397D01*
X107419920Y-101659051D01*
X107485812Y-101544923D01*
X107519920Y-101417629D01*
X107519920Y-101285845D01*
X107485812Y-101158551D01*
X107419920Y-101044423D01*
X107331239Y-100955742D01*
X107297755Y-100894418D01*
X107294921Y-100868061D01*
X107294921Y-99684108D01*
X117499500Y-99684108D01*
X117499500Y-99815891D01*
X117533608Y-99943187D01*
X117559823Y-99988591D01*
X117599500Y-100057314D01*
X117692686Y-100150500D01*
X117806814Y-100216392D01*
X117934108Y-100250500D01*
X117934110Y-100250500D01*
X118065890Y-100250500D01*
X118065892Y-100250500D01*
X118193186Y-100216392D01*
X118307314Y-100150500D01*
X118400500Y-100057314D01*
X118466392Y-99943186D01*
X118500500Y-99815892D01*
X118500500Y-99690476D01*
X118520185Y-99623437D01*
X118536819Y-99602795D01*
X119459660Y-98679955D01*
X122327977Y-95811639D01*
X122340261Y-95781980D01*
X122369920Y-95710380D01*
X122369920Y-95706014D01*
X122375673Y-95691294D01*
X122390613Y-95671969D01*
X122401932Y-95650330D01*
X122403486Y-95648748D01*
X122444382Y-95607852D01*
X122494920Y-95557314D01*
X122560812Y-95443186D01*
X122594920Y-95315892D01*
X122594920Y-95184108D01*
X122560812Y-95056814D01*
X122494920Y-94942686D01*
X122401734Y-94849500D01*
X122337555Y-94812446D01*
X122287607Y-94783608D01*
X122214894Y-94764125D01*
X122160312Y-94749500D01*
X122028528Y-94749500D01*
X121901232Y-94783608D01*
X121787106Y-94849500D01*
X121787103Y-94849502D01*
X121693922Y-94942683D01*
X121693920Y-94942686D01*
X121628028Y-95056812D01*
X121617389Y-95096518D01*
X121593920Y-95184108D01*
X121593920Y-95315892D01*
X121620663Y-95415700D01*
X121628029Y-95443188D01*
X121628029Y-95443189D01*
X121686297Y-95544111D01*
X121702770Y-95612011D01*
X121679918Y-95678038D01*
X121666591Y-95693792D01*
X118147203Y-99213181D01*
X118085880Y-99246666D01*
X118059522Y-99249500D01*
X117934108Y-99249500D01*
X117806812Y-99283608D01*
X117692686Y-99349500D01*
X117692683Y-99349502D01*
X117599502Y-99442683D01*
X117599500Y-99442686D01*
X117533608Y-99556812D01*
X117499500Y-99684108D01*
X107294921Y-99684108D01*
X107294921Y-92786145D01*
X119868890Y-92786145D01*
X119868890Y-92917928D01*
X119902998Y-93045224D01*
X119925559Y-93084300D01*
X119968890Y-93159351D01*
X119968892Y-93159353D01*
X120032571Y-93223032D01*
X120066056Y-93284355D01*
X120068890Y-93310713D01*
X120068890Y-94976740D01*
X120054821Y-95029249D01*
X120056202Y-95029821D01*
X120053092Y-95037329D01*
X120053091Y-95037331D01*
X120018983Y-95164625D01*
X120018983Y-95296409D01*
X120028063Y-95330295D01*
X120053091Y-95423704D01*
X120075706Y-95462873D01*
X120118983Y-95537831D01*
X120212169Y-95631017D01*
X120283100Y-95671969D01*
X120316571Y-95691294D01*
X120326297Y-95696909D01*
X120453591Y-95731017D01*
X120453593Y-95731017D01*
X120585373Y-95731017D01*
X120585375Y-95731017D01*
X120712669Y-95696909D01*
X120826797Y-95631017D01*
X120919983Y-95537831D01*
X120985875Y-95423703D01*
X121019983Y-95296409D01*
X121019983Y-95164625D01*
X120985875Y-95037331D01*
X120919983Y-94923203D01*
X120826797Y-94830017D01*
X120824531Y-94828708D01*
X120731889Y-94775220D01*
X120683674Y-94724653D01*
X120669890Y-94667834D01*
X120669890Y-94158251D01*
X132044300Y-94158251D01*
X132044300Y-94341748D01*
X132073002Y-94522969D01*
X132099186Y-94603553D01*
X132120072Y-94667834D01*
X132129704Y-94697476D01*
X132156212Y-94749500D01*
X132213004Y-94860960D01*
X132320854Y-95009403D01*
X132450597Y-95139146D01*
X132599040Y-95246996D01*
X132762526Y-95330297D01*
X132894827Y-95373284D01*
X132937030Y-95386997D01*
X133118252Y-95415700D01*
X133118257Y-95415700D01*
X133301748Y-95415700D01*
X133482969Y-95386997D01*
X133657474Y-95330297D01*
X133820960Y-95246996D01*
X133969403Y-95139146D01*
X134099146Y-95009403D01*
X134206996Y-94860960D01*
X134290297Y-94697474D01*
X134346997Y-94522969D01*
X134347145Y-94522037D01*
X134375700Y-94341748D01*
X134375700Y-94158254D01*
X134374268Y-94149214D01*
X134374268Y-94149212D01*
X134371966Y-94134680D01*
X136824800Y-94134680D01*
X136824800Y-94365319D01*
X136860877Y-94593102D01*
X136932147Y-94812446D01*
X137036850Y-95017935D01*
X137092253Y-95094191D01*
X137092254Y-95094192D01*
X137800504Y-94385941D01*
X137816619Y-94446081D01*
X137883498Y-94561920D01*
X137978080Y-94656502D01*
X138093919Y-94723381D01*
X138154057Y-94739494D01*
X137445806Y-95447744D01*
X137522067Y-95503151D01*
X137727553Y-95607852D01*
X137946897Y-95679122D01*
X138174681Y-95715200D01*
X138405319Y-95715200D01*
X138633102Y-95679122D01*
X138852446Y-95607852D01*
X139057924Y-95503155D01*
X139057930Y-95503151D01*
X139134191Y-95447744D01*
X139134192Y-95447744D01*
X138425942Y-94739495D01*
X138486081Y-94723381D01*
X138601920Y-94656502D01*
X138696502Y-94561920D01*
X138763381Y-94446081D01*
X138779494Y-94385942D01*
X139487744Y-95094192D01*
X139487744Y-95094191D01*
X139543151Y-95017930D01*
X139543155Y-95017924D01*
X139647852Y-94812446D01*
X139719122Y-94593102D01*
X139755200Y-94365319D01*
X139755200Y-94134680D01*
X139719122Y-93906897D01*
X139647852Y-93687553D01*
X139543151Y-93482067D01*
X139487744Y-93405807D01*
X139487744Y-93405806D01*
X138779494Y-94114056D01*
X138763381Y-94053919D01*
X138696502Y-93938080D01*
X138601920Y-93843498D01*
X138486081Y-93776619D01*
X138425941Y-93760504D01*
X139134192Y-93052254D01*
X139134191Y-93052253D01*
X139057935Y-92996850D01*
X138852446Y-92892147D01*
X138633102Y-92820877D01*
X138405319Y-92784800D01*
X138174681Y-92784800D01*
X137946897Y-92820877D01*
X137727553Y-92892147D01*
X137522069Y-92996847D01*
X137445807Y-93052254D01*
X138154058Y-93760504D01*
X138093919Y-93776619D01*
X137978080Y-93843498D01*
X137883498Y-93938080D01*
X137816619Y-94053919D01*
X137800504Y-94114057D01*
X137092254Y-93405807D01*
X137036847Y-93482069D01*
X136932147Y-93687553D01*
X136860877Y-93906897D01*
X136824800Y-94134680D01*
X134371966Y-94134680D01*
X134360035Y-94059350D01*
X134346997Y-93977031D01*
X134290297Y-93802526D01*
X134206996Y-93639040D01*
X134099146Y-93490597D01*
X133969403Y-93360854D01*
X133823219Y-93254645D01*
X133820955Y-93253000D01*
X133736560Y-93209998D01*
X133736557Y-93209998D01*
X133657476Y-93169704D01*
X133657475Y-93169703D01*
X133657474Y-93169703D01*
X133612217Y-93154998D01*
X133482969Y-93113002D01*
X133301748Y-93084300D01*
X133301743Y-93084300D01*
X133118257Y-93084300D01*
X133118252Y-93084300D01*
X132937030Y-93113002D01*
X132762523Y-93169704D01*
X132599039Y-93253004D01*
X132450594Y-93360856D01*
X132320856Y-93490594D01*
X132213004Y-93639039D01*
X132129704Y-93802523D01*
X132073002Y-93977030D01*
X132044300Y-94158251D01*
X120669890Y-94158251D01*
X120669890Y-93310713D01*
X120689575Y-93243674D01*
X120706209Y-93223032D01*
X120727704Y-93201537D01*
X120769890Y-93159351D01*
X120835782Y-93045223D01*
X120869890Y-92917929D01*
X120869890Y-92786145D01*
X120835782Y-92658851D01*
X120769890Y-92544723D01*
X120676704Y-92451537D01*
X120603643Y-92409355D01*
X120562577Y-92385645D01*
X120498929Y-92368591D01*
X120435282Y-92351537D01*
X120303498Y-92351537D01*
X120176202Y-92385645D01*
X120062076Y-92451537D01*
X120062073Y-92451539D01*
X119968892Y-92544720D01*
X119968890Y-92544723D01*
X119902998Y-92658849D01*
X119868890Y-92786145D01*
X107294921Y-92786145D01*
X107294921Y-88016153D01*
X107294920Y-88016147D01*
X107294920Y-86835413D01*
X107314605Y-86768374D01*
X107331239Y-86747732D01*
X107371574Y-86707397D01*
X107419920Y-86659051D01*
X107485812Y-86544923D01*
X107519920Y-86417629D01*
X107519920Y-86285845D01*
X107485812Y-86158551D01*
X107419920Y-86044423D01*
X107326734Y-85951237D01*
X107255670Y-85910208D01*
X107212607Y-85885345D01*
X107148959Y-85868291D01*
X107085312Y-85851237D01*
X106953528Y-85851237D01*
X106826234Y-85885345D01*
X106826233Y-85885345D01*
X106826231Y-85885346D01*
X106826230Y-85885346D01*
X106705920Y-85954808D01*
X106638020Y-85971281D01*
X106571993Y-85948429D01*
X106528802Y-85893507D01*
X106519920Y-85847421D01*
X106519920Y-85785847D01*
X106519920Y-85785845D01*
X106485812Y-85658551D01*
X106419920Y-85544423D01*
X106326734Y-85451237D01*
X106265513Y-85415891D01*
X106212607Y-85385345D01*
X106148959Y-85368291D01*
X106085312Y-85351237D01*
X105953528Y-85351237D01*
X105826234Y-85385345D01*
X105826233Y-85385345D01*
X105826231Y-85385346D01*
X105826230Y-85385346D01*
X105705920Y-85454808D01*
X105638020Y-85471281D01*
X105571993Y-85448429D01*
X105528802Y-85393507D01*
X105519920Y-85347421D01*
X105519920Y-85285847D01*
X105519920Y-85285845D01*
X105519455Y-85284108D01*
X119049500Y-85284108D01*
X119049500Y-85415892D01*
X119060377Y-85456487D01*
X119083608Y-85543187D01*
X119116554Y-85600250D01*
X119149500Y-85657314D01*
X119149502Y-85657316D01*
X119203181Y-85710995D01*
X119236666Y-85772318D01*
X119239500Y-85798676D01*
X119239500Y-88059121D01*
X119239500Y-88140879D01*
X119260660Y-88219849D01*
X119260661Y-88219850D01*
X119260661Y-88219851D01*
X119301535Y-88290648D01*
X119301539Y-88290653D01*
X119911382Y-88900497D01*
X119911384Y-88900498D01*
X119911385Y-88900499D01*
X119933558Y-88913300D01*
X119982189Y-88941377D01*
X120039998Y-88956866D01*
X120061158Y-88962537D01*
X120061159Y-88962537D01*
X120620744Y-88962537D01*
X120687783Y-88982222D01*
X120708425Y-88998856D01*
X120762106Y-89052537D01*
X120876234Y-89118429D01*
X121003528Y-89152537D01*
X121003530Y-89152537D01*
X121135310Y-89152537D01*
X121135312Y-89152537D01*
X121262606Y-89118429D01*
X121376734Y-89052537D01*
X121469920Y-88959351D01*
X121535812Y-88845223D01*
X121569920Y-88717929D01*
X121569920Y-88586145D01*
X121535812Y-88458851D01*
X121469920Y-88344723D01*
X121376734Y-88251537D01*
X121319670Y-88218591D01*
X121262607Y-88185645D01*
X121198959Y-88168591D01*
X121135312Y-88151537D01*
X121003528Y-88151537D01*
X120876232Y-88185645D01*
X120762106Y-88251537D01*
X120762103Y-88251539D01*
X120708425Y-88305218D01*
X120647102Y-88338703D01*
X120620744Y-88341537D01*
X120282013Y-88341537D01*
X120214974Y-88321852D01*
X120194332Y-88305218D01*
X119896819Y-88007705D01*
X119863334Y-87946382D01*
X119860500Y-87920024D01*
X119860500Y-86590446D01*
X119880185Y-86523407D01*
X119932989Y-86477652D01*
X120002147Y-86467708D01*
X120016575Y-86470667D01*
X120063528Y-86483248D01*
X120063531Y-86483248D01*
X120195310Y-86483248D01*
X120195312Y-86483248D01*
X120322606Y-86449140D01*
X120436734Y-86383248D01*
X120529920Y-86290062D01*
X120595812Y-86175934D01*
X120629920Y-86048640D01*
X120629920Y-85940476D01*
X120649605Y-85873437D01*
X120666233Y-85852800D01*
X120957218Y-85561817D01*
X121018540Y-85528334D01*
X121044898Y-85525500D01*
X121516324Y-85525500D01*
X121583363Y-85545185D01*
X121604004Y-85561818D01*
X121692686Y-85650500D01*
X121806814Y-85716392D01*
X121934108Y-85750500D01*
X121934110Y-85750500D01*
X122065890Y-85750500D01*
X122065892Y-85750500D01*
X122193186Y-85716392D01*
X122307314Y-85650500D01*
X122400500Y-85557314D01*
X122466392Y-85443186D01*
X122500500Y-85315892D01*
X122500500Y-85184108D01*
X122466392Y-85056814D01*
X122400500Y-84942686D01*
X122307314Y-84849500D01*
X122237263Y-84809056D01*
X122193187Y-84783608D01*
X122129539Y-84766554D01*
X122065892Y-84749500D01*
X121934108Y-84749500D01*
X121806812Y-84783608D01*
X121692686Y-84849500D01*
X121692683Y-84849502D01*
X121604005Y-84938181D01*
X121542682Y-84971666D01*
X121516324Y-84974500D01*
X120824618Y-84974500D01*
X120753019Y-85004158D01*
X120723359Y-85016443D01*
X120723358Y-85016444D01*
X120616601Y-85123202D01*
X120555278Y-85156687D01*
X120485586Y-85151703D01*
X120429653Y-85109831D01*
X120405236Y-85044367D01*
X120404920Y-85035521D01*
X120404920Y-83436057D01*
X120424605Y-83369018D01*
X120441239Y-83348376D01*
X123152796Y-80636819D01*
X123214119Y-80603334D01*
X123240477Y-80600500D01*
X123365890Y-80600500D01*
X123365892Y-80600500D01*
X123493186Y-80566392D01*
X123607314Y-80500500D01*
X123700500Y-80407314D01*
X123766392Y-80293186D01*
X123800500Y-80165892D01*
X123800500Y-80034108D01*
X123766392Y-79906814D01*
X123700500Y-79792686D01*
X123607314Y-79699500D01*
X123547936Y-79665218D01*
X123493187Y-79633608D01*
X123429539Y-79616554D01*
X123365892Y-79599500D01*
X123234108Y-79599500D01*
X123106812Y-79633608D01*
X122992686Y-79699500D01*
X122992683Y-79699502D01*
X122899502Y-79792683D01*
X122899500Y-79792686D01*
X122833608Y-79906812D01*
X122799500Y-80034108D01*
X122799500Y-80159521D01*
X122779815Y-80226560D01*
X122763181Y-80247202D01*
X119973362Y-83037023D01*
X119895864Y-83114520D01*
X119853920Y-83215779D01*
X119853920Y-84751679D01*
X119834235Y-84818718D01*
X119781431Y-84864473D01*
X119712273Y-84874417D01*
X119697827Y-84871454D01*
X119661998Y-84861854D01*
X119615892Y-84849500D01*
X119484108Y-84849500D01*
X119356812Y-84883608D01*
X119242686Y-84949500D01*
X119242683Y-84949502D01*
X119149502Y-85042683D01*
X119149500Y-85042686D01*
X119083608Y-85156812D01*
X119058040Y-85252237D01*
X119049500Y-85284108D01*
X105519455Y-85284108D01*
X105485812Y-85158551D01*
X105419920Y-85044423D01*
X105326734Y-84951237D01*
X105268523Y-84917629D01*
X105212607Y-84885345D01*
X105134710Y-84864473D01*
X105085312Y-84851237D01*
X104953528Y-84851237D01*
X104826234Y-84885345D01*
X104826233Y-84885345D01*
X104826231Y-84885346D01*
X104826230Y-84885346D01*
X104705920Y-84954808D01*
X104638020Y-84971281D01*
X104571993Y-84948429D01*
X104528802Y-84893507D01*
X104519920Y-84847421D01*
X104519920Y-84785847D01*
X104519920Y-84785845D01*
X104485812Y-84658551D01*
X104419920Y-84544423D01*
X104326734Y-84451237D01*
X104268523Y-84417629D01*
X104212607Y-84385345D01*
X104148959Y-84368291D01*
X104085312Y-84351237D01*
X103953528Y-84351237D01*
X103826234Y-84385345D01*
X103826233Y-84385345D01*
X103826231Y-84385346D01*
X103826230Y-84385346D01*
X103705920Y-84454808D01*
X103638020Y-84471281D01*
X103571993Y-84448429D01*
X103528802Y-84393507D01*
X103519920Y-84347421D01*
X103519920Y-84285847D01*
X103519920Y-84285845D01*
X103485812Y-84158551D01*
X103419920Y-84044423D01*
X103326734Y-83951237D01*
X103268523Y-83917629D01*
X103212607Y-83885345D01*
X103148959Y-83868291D01*
X103085312Y-83851237D01*
X102953528Y-83851237D01*
X102826234Y-83885345D01*
X102826233Y-83885345D01*
X102826231Y-83885346D01*
X102826230Y-83885346D01*
X102705920Y-83954808D01*
X102638020Y-83971281D01*
X102571993Y-83948429D01*
X102528802Y-83893507D01*
X102519920Y-83847421D01*
X102519920Y-83785847D01*
X102519920Y-83785845D01*
X102485812Y-83658551D01*
X102419920Y-83544423D01*
X102326734Y-83451237D01*
X102268523Y-83417629D01*
X102212607Y-83385345D01*
X102148959Y-83368291D01*
X102085312Y-83351237D01*
X101953528Y-83351237D01*
X101826234Y-83385345D01*
X101826233Y-83385345D01*
X101826231Y-83385346D01*
X101826230Y-83385346D01*
X101705920Y-83454808D01*
X101638020Y-83471281D01*
X101571993Y-83448429D01*
X101528802Y-83393507D01*
X101519920Y-83347421D01*
X101519920Y-83285847D01*
X101519920Y-83285845D01*
X101485812Y-83158551D01*
X101419920Y-83044423D01*
X101326734Y-82951237D01*
X101268523Y-82917629D01*
X101212607Y-82885345D01*
X101148959Y-82868291D01*
X101085312Y-82851237D01*
X100953528Y-82851237D01*
X100826234Y-82885345D01*
X100826233Y-82885345D01*
X100826231Y-82885346D01*
X100826230Y-82885346D01*
X100705920Y-82954808D01*
X100638020Y-82971281D01*
X100571993Y-82948429D01*
X100528802Y-82893507D01*
X100519920Y-82847421D01*
X100519920Y-82785847D01*
X100519920Y-82785845D01*
X100485812Y-82658551D01*
X100419920Y-82544423D01*
X100326734Y-82451237D01*
X100260449Y-82412967D01*
X100212607Y-82385345D01*
X100148959Y-82368291D01*
X100085312Y-82351237D01*
X99953528Y-82351237D01*
X99826231Y-82385345D01*
X99806919Y-82396496D01*
X99739019Y-82412967D01*
X99672992Y-82390115D01*
X99629802Y-82335193D01*
X99620920Y-82289108D01*
X99620920Y-77228869D01*
X99629564Y-77199428D01*
X99636088Y-77169442D01*
X99639842Y-77164426D01*
X99640605Y-77161830D01*
X99657235Y-77141192D01*
X99778580Y-77019846D01*
X99839903Y-76986362D01*
X99898353Y-76987752D01*
X99953528Y-77002537D01*
X99953530Y-77002537D01*
X100085310Y-77002537D01*
X100085312Y-77002537D01*
X100212606Y-76968429D01*
X100326734Y-76902537D01*
X100419920Y-76809351D01*
X100485812Y-76695223D01*
X100519920Y-76567929D01*
X100519920Y-76436145D01*
X100485812Y-76308851D01*
X100419920Y-76194723D01*
X100326734Y-76101537D01*
X100269670Y-76068591D01*
X100212607Y-76035645D01*
X100148959Y-76018591D01*
X100085312Y-76001537D01*
X99953528Y-76001537D01*
X99826232Y-76035645D01*
X99712106Y-76101537D01*
X99712103Y-76101539D01*
X99618922Y-76194720D01*
X99618920Y-76194723D01*
X99553029Y-76308848D01*
X99529927Y-76395065D01*
X99497833Y-76450651D01*
X99135909Y-76812577D01*
X99079961Y-76868524D01*
X99079955Y-76868532D01*
X99040402Y-76937041D01*
X99040399Y-76937046D01*
X99019920Y-77013476D01*
X99019920Y-91518360D01*
X99000235Y-91585399D01*
X98983602Y-91606041D01*
X98919920Y-91669723D01*
X98854028Y-91783849D01*
X98819920Y-91911145D01*
X98819920Y-92042928D01*
X98854028Y-92170224D01*
X98886974Y-92227287D01*
X98919920Y-92284351D01*
X98919922Y-92284353D01*
X98983601Y-92348032D01*
X99017086Y-92409355D01*
X99019920Y-92435713D01*
X99019920Y-106518360D01*
X99000235Y-106585399D01*
X98983602Y-106606041D01*
X98919920Y-106669723D01*
X98854028Y-106783849D01*
X98819920Y-106911145D01*
X98819920Y-107042928D01*
X98854028Y-107170224D01*
X98886974Y-107227287D01*
X98919920Y-107284351D01*
X98919922Y-107284353D01*
X98983601Y-107348032D01*
X99017086Y-107409355D01*
X99019920Y-107435713D01*
X99019920Y-121363599D01*
X99000235Y-121430638D01*
X98947431Y-121476393D01*
X98928016Y-121483372D01*
X98888404Y-121493986D01*
X98826232Y-121510645D01*
X98712106Y-121576537D01*
X98712103Y-121576539D01*
X98618922Y-121669720D01*
X98618920Y-121669723D01*
X98553028Y-121783849D01*
X98518920Y-121911145D01*
X98518920Y-122042928D01*
X98553028Y-122170224D01*
X98585974Y-122227287D01*
X98618920Y-122284351D01*
X98712106Y-122377537D01*
X98826234Y-122443429D01*
X98953528Y-122477537D01*
X98953530Y-122477537D01*
X99085310Y-122477537D01*
X99085312Y-122477537D01*
X99212606Y-122443429D01*
X99326734Y-122377537D01*
X99419920Y-122284351D01*
X99485812Y-122170223D01*
X99500147Y-122116723D01*
X99536511Y-122057065D01*
X99599357Y-122026535D01*
X99668733Y-122034829D01*
X99722611Y-122079314D01*
X99743886Y-122145866D01*
X99743921Y-122148818D01*
X99743921Y-127219418D01*
X99724236Y-127286457D01*
X99707602Y-127307099D01*
X99618923Y-127395777D01*
X99618921Y-127395780D01*
X99553029Y-127509906D01*
X99518921Y-127637202D01*
X99518921Y-127768985D01*
X99553029Y-127896281D01*
X99585975Y-127953344D01*
X99618921Y-128010408D01*
X99618923Y-128010410D01*
X99707602Y-128099089D01*
X99741087Y-128160412D01*
X99743921Y-128186770D01*
X99743921Y-132306558D01*
X99724236Y-132373597D01*
X99707602Y-132394239D01*
X96076524Y-136025316D01*
X96015201Y-136058801D01*
X95945509Y-136053817D01*
X95941390Y-136052196D01*
X95795840Y-135991907D01*
X95795832Y-135991905D01*
X95592889Y-135951537D01*
X95592885Y-135951537D01*
X95385955Y-135951537D01*
X95385950Y-135951537D01*
X95183007Y-135991905D01*
X95182999Y-135991907D01*
X94991823Y-136071095D01*
X94819762Y-136186061D01*
X94673444Y-136332379D01*
X94558478Y-136504440D01*
X94479290Y-136695616D01*
X94479288Y-136695624D01*
X94438920Y-136898567D01*
X93999919Y-136898567D01*
X93959550Y-136695617D01*
X93880361Y-136504439D01*
X93765397Y-136332382D01*
X93765395Y-136332379D01*
X93619077Y-136186061D01*
X93511796Y-136114379D01*
X93447018Y-136071096D01*
X93447013Y-136071094D01*
X93255840Y-135991907D01*
X93255832Y-135991905D01*
X93052889Y-135951537D01*
X93052885Y-135951537D01*
X92845955Y-135951537D01*
X92845950Y-135951537D01*
X92643007Y-135991905D01*
X92642995Y-135991908D01*
X92497448Y-136052196D01*
X92427979Y-136059665D01*
X92365500Y-136028390D01*
X92362315Y-136025316D01*
X89831240Y-133494241D01*
X89797755Y-133432918D01*
X89794921Y-133406560D01*
X89794921Y-120087070D01*
X89814606Y-120020031D01*
X89831240Y-119999389D01*
X89919921Y-119910708D01*
X89985813Y-119796580D01*
X90019921Y-119669286D01*
X90019921Y-119537502D01*
X89985813Y-119410208D01*
X89919921Y-119296080D01*
X89831238Y-119207397D01*
X89797754Y-119146073D01*
X89794920Y-119119716D01*
X89794920Y-105087071D01*
X89814605Y-105020032D01*
X89831239Y-104999390D01*
X89866519Y-104964110D01*
X89919921Y-104910708D01*
X89985813Y-104796580D01*
X90019921Y-104669286D01*
X90019921Y-104537502D01*
X89985813Y-104410208D01*
X89919921Y-104296080D01*
X89831238Y-104207397D01*
X89797754Y-104146073D01*
X89794920Y-104119716D01*
X89794920Y-90087071D01*
X89814605Y-90020032D01*
X89831239Y-89999390D01*
X89831241Y-89999388D01*
X89919921Y-89910708D01*
X89985813Y-89796580D01*
X90019921Y-89669286D01*
X90019921Y-89537502D01*
X89985813Y-89410208D01*
X89919921Y-89296080D01*
X89831238Y-89207397D01*
X89797754Y-89146073D01*
X89794920Y-89119716D01*
X89794920Y-80686145D01*
X90268920Y-80686145D01*
X90268920Y-80817928D01*
X90303028Y-80945224D01*
X90335974Y-81002287D01*
X90368920Y-81059351D01*
X90462106Y-81152537D01*
X90576234Y-81218429D01*
X90703528Y-81252537D01*
X90703530Y-81252537D01*
X90835310Y-81252537D01*
X90835312Y-81252537D01*
X90962606Y-81218429D01*
X91076734Y-81152537D01*
X91169920Y-81059351D01*
X91235812Y-80945223D01*
X91269920Y-80817929D01*
X91269920Y-80727869D01*
X91289605Y-80660830D01*
X91306239Y-80640188D01*
X91607572Y-80338856D01*
X91668895Y-80305371D01*
X91695253Y-80302537D01*
X92558981Y-80302537D01*
X92558982Y-80302537D01*
X92562822Y-80301508D01*
X92566188Y-80301587D01*
X92567039Y-80301476D01*
X92567056Y-80301608D01*
X92632671Y-80303167D01*
X92690535Y-80342327D01*
X92718042Y-80406554D01*
X92718920Y-80421281D01*
X92718920Y-94326203D01*
X92699235Y-94393242D01*
X92682601Y-94413884D01*
X90881267Y-96215218D01*
X90819944Y-96248703D01*
X90793586Y-96251537D01*
X90703528Y-96251537D01*
X90576232Y-96285645D01*
X90462106Y-96351537D01*
X90462103Y-96351539D01*
X90368922Y-96444720D01*
X90368920Y-96444723D01*
X90303028Y-96558849D01*
X90268920Y-96686145D01*
X90268920Y-96817928D01*
X90303028Y-96945224D01*
X90335974Y-97002287D01*
X90368920Y-97059351D01*
X90462106Y-97152537D01*
X90576234Y-97218429D01*
X90703528Y-97252537D01*
X90703530Y-97252537D01*
X90835310Y-97252537D01*
X90835312Y-97252537D01*
X90962606Y-97218429D01*
X91076734Y-97152537D01*
X91169920Y-97059351D01*
X91235812Y-96945223D01*
X91269920Y-96817929D01*
X91269920Y-96727869D01*
X91289605Y-96660830D01*
X91306239Y-96640188D01*
X91917631Y-96028796D01*
X92507240Y-95439186D01*
X92568562Y-95405703D01*
X92638254Y-95410687D01*
X92694187Y-95452559D01*
X92718604Y-95518023D01*
X92718920Y-95526869D01*
X92718920Y-109326203D01*
X92699235Y-109393242D01*
X92682601Y-109413884D01*
X90881267Y-111215218D01*
X90819944Y-111248703D01*
X90793586Y-111251537D01*
X90703528Y-111251537D01*
X90576232Y-111285645D01*
X90462106Y-111351537D01*
X90462103Y-111351539D01*
X90368922Y-111444720D01*
X90368920Y-111444723D01*
X90303028Y-111558849D01*
X90268920Y-111686145D01*
X90268920Y-111817928D01*
X90303028Y-111945224D01*
X90335974Y-112002287D01*
X90368920Y-112059351D01*
X90462106Y-112152537D01*
X90576234Y-112218429D01*
X90703528Y-112252537D01*
X90703530Y-112252537D01*
X90835310Y-112252537D01*
X90835312Y-112252537D01*
X90962606Y-112218429D01*
X91076734Y-112152537D01*
X91169920Y-112059351D01*
X91235812Y-111945223D01*
X91269920Y-111817929D01*
X91269920Y-111727869D01*
X91289605Y-111660830D01*
X91306239Y-111640188D01*
X91731209Y-111215218D01*
X92507240Y-110439186D01*
X92568562Y-110405703D01*
X92638254Y-110410687D01*
X92694187Y-110452559D01*
X92718604Y-110518023D01*
X92718920Y-110526869D01*
X92718920Y-124256204D01*
X92699235Y-124323243D01*
X92682601Y-124343885D01*
X92391268Y-124635218D01*
X92329945Y-124668703D01*
X92303587Y-124671537D01*
X91799858Y-124671537D01*
X91723430Y-124692015D01*
X91654909Y-124731577D01*
X91654906Y-124731579D01*
X90528961Y-125857524D01*
X90528955Y-125857532D01*
X90489402Y-125926041D01*
X90489399Y-125926046D01*
X90468920Y-126002476D01*
X90468920Y-126293360D01*
X90449235Y-126360399D01*
X90432602Y-126381041D01*
X90368920Y-126444723D01*
X90303028Y-126558849D01*
X90268920Y-126686145D01*
X90268920Y-126817928D01*
X90303028Y-126945224D01*
X90335974Y-127002287D01*
X90368920Y-127059351D01*
X90462106Y-127152537D01*
X90576234Y-127218429D01*
X90703528Y-127252537D01*
X90703530Y-127252537D01*
X90835310Y-127252537D01*
X90835312Y-127252537D01*
X90962606Y-127218429D01*
X91076734Y-127152537D01*
X91169920Y-127059351D01*
X91235812Y-126945223D01*
X91269920Y-126817929D01*
X91269920Y-126686145D01*
X91235812Y-126558851D01*
X91169920Y-126444723D01*
X91106238Y-126381041D01*
X91091533Y-126354110D01*
X91074943Y-126328295D01*
X91074051Y-126322092D01*
X91072754Y-126319717D01*
X91069920Y-126293360D01*
X91069920Y-126217870D01*
X91089605Y-126150831D01*
X91106239Y-126130189D01*
X91927572Y-125308856D01*
X91988895Y-125275371D01*
X92015253Y-125272537D01*
X92518980Y-125272537D01*
X92518982Y-125272537D01*
X92595409Y-125252058D01*
X92663931Y-125212497D01*
X92719880Y-125156548D01*
X93259880Y-124616548D01*
X93299441Y-124548026D01*
X93319920Y-124471599D01*
X93319920Y-94712475D01*
X93319920Y-93712475D01*
X93319920Y-93686145D01*
X94268920Y-93686145D01*
X94268920Y-93817929D01*
X94275771Y-93843498D01*
X94303028Y-93945224D01*
X94321392Y-93977030D01*
X94368920Y-94059351D01*
X94462106Y-94152537D01*
X94576234Y-94218429D01*
X94703528Y-94252537D01*
X94703530Y-94252537D01*
X94835310Y-94252537D01*
X94835312Y-94252537D01*
X94962606Y-94218429D01*
X95032920Y-94177832D01*
X95100819Y-94161360D01*
X95166846Y-94184212D01*
X95210037Y-94239133D01*
X95218920Y-94285220D01*
X95218920Y-108077537D01*
X95199235Y-108144576D01*
X95146431Y-108190331D01*
X95094920Y-108201537D01*
X94979858Y-108201537D01*
X94941644Y-108211776D01*
X94903429Y-108222016D01*
X94881074Y-108234924D01*
X94819073Y-108251537D01*
X94703528Y-108251537D01*
X94576232Y-108285645D01*
X94462106Y-108351537D01*
X94462103Y-108351539D01*
X94368922Y-108444720D01*
X94368920Y-108444723D01*
X94303028Y-108558849D01*
X94268920Y-108686145D01*
X94268920Y-108817928D01*
X94303028Y-108945224D01*
X94335974Y-109002287D01*
X94368920Y-109059351D01*
X94462106Y-109152537D01*
X94576234Y-109218429D01*
X94703528Y-109252537D01*
X94703530Y-109252537D01*
X94835310Y-109252537D01*
X94835312Y-109252537D01*
X94962606Y-109218429D01*
X95032920Y-109177832D01*
X95100819Y-109161360D01*
X95166846Y-109184212D01*
X95210037Y-109239133D01*
X95218920Y-109285220D01*
X95218920Y-122862613D01*
X95199235Y-122929652D01*
X95156921Y-122969999D01*
X95084915Y-123011572D01*
X95084906Y-123011579D01*
X94881267Y-123215218D01*
X94819944Y-123248703D01*
X94793586Y-123251537D01*
X94703528Y-123251537D01*
X94576232Y-123285645D01*
X94462106Y-123351537D01*
X94462103Y-123351539D01*
X94368922Y-123444720D01*
X94368920Y-123444723D01*
X94303028Y-123558849D01*
X94268920Y-123686145D01*
X94268920Y-123817928D01*
X94303028Y-123945224D01*
X94335974Y-124002287D01*
X94368920Y-124059351D01*
X94462106Y-124152537D01*
X94576234Y-124218429D01*
X94703528Y-124252537D01*
X94703530Y-124252537D01*
X94835310Y-124252537D01*
X94835312Y-124252537D01*
X94962606Y-124218429D01*
X95076734Y-124152537D01*
X95169920Y-124059351D01*
X95235812Y-123945223D01*
X95269920Y-123817929D01*
X95269920Y-123727870D01*
X95278564Y-123698432D01*
X95285088Y-123668442D01*
X95288842Y-123663426D01*
X95289605Y-123660831D01*
X95306240Y-123640188D01*
X95357574Y-123588855D01*
X95418897Y-123555371D01*
X95445254Y-123552537D01*
X95558980Y-123552537D01*
X95558982Y-123552537D01*
X95635409Y-123532058D01*
X95703931Y-123492497D01*
X95759880Y-123436548D01*
X95799441Y-123368026D01*
X95819920Y-123291599D01*
X95819920Y-108462475D01*
X95819920Y-93462475D01*
X95819920Y-78460713D01*
X95839605Y-78393674D01*
X95856239Y-78373032D01*
X95868440Y-78360831D01*
X95919920Y-78309351D01*
X95985812Y-78195223D01*
X96019920Y-78067929D01*
X96019920Y-77936145D01*
X95985812Y-77808851D01*
X95919920Y-77694723D01*
X95826734Y-77601537D01*
X95769670Y-77568591D01*
X95712607Y-77535645D01*
X95648959Y-77518591D01*
X95585312Y-77501537D01*
X95453528Y-77501537D01*
X95326232Y-77535645D01*
X95212106Y-77601537D01*
X95212103Y-77601539D01*
X95118922Y-77694720D01*
X95118920Y-77694723D01*
X95053028Y-77808849D01*
X95018920Y-77936145D01*
X95018920Y-78067928D01*
X95053028Y-78195224D01*
X95062988Y-78212475D01*
X95118920Y-78309351D01*
X95118922Y-78309353D01*
X95182601Y-78373032D01*
X95216086Y-78434355D01*
X95218920Y-78460713D01*
X95218920Y-93077537D01*
X95199235Y-93144576D01*
X95146431Y-93190331D01*
X95094920Y-93201537D01*
X94979858Y-93201537D01*
X94948282Y-93209998D01*
X94903429Y-93222016D01*
X94881074Y-93234924D01*
X94819073Y-93251537D01*
X94703528Y-93251537D01*
X94576232Y-93285645D01*
X94462106Y-93351537D01*
X94462103Y-93351539D01*
X94368922Y-93444720D01*
X94368920Y-93444723D01*
X94303028Y-93558849D01*
X94268920Y-93686145D01*
X93319920Y-93686145D01*
X93319920Y-78427870D01*
X93339605Y-78360831D01*
X93356239Y-78340189D01*
X97148880Y-74547548D01*
X97210203Y-74514063D01*
X97236561Y-74511229D01*
X97326619Y-74511229D01*
X97326621Y-74511229D01*
X97453915Y-74477121D01*
X97568043Y-74411229D01*
X97661229Y-74318043D01*
X97727121Y-74203915D01*
X97761229Y-74076621D01*
X97761229Y-73944837D01*
X97727121Y-73817543D01*
X97661229Y-73703415D01*
X97568043Y-73610229D01*
X97510979Y-73577283D01*
X97453916Y-73544337D01*
X97390268Y-73527283D01*
X97326621Y-73510229D01*
X97194837Y-73510229D01*
X97067541Y-73544337D01*
X96953415Y-73610229D01*
X96953412Y-73610231D01*
X96860231Y-73703412D01*
X96860229Y-73703415D01*
X96794337Y-73817541D01*
X96760229Y-73944837D01*
X96760229Y-74034894D01*
X96740544Y-74101933D01*
X96723910Y-74122575D01*
X92778961Y-78067524D01*
X92778955Y-78067532D01*
X92739402Y-78136041D01*
X92739399Y-78136046D01*
X92725746Y-78186999D01*
X92723543Y-78195224D01*
X92718920Y-78212476D01*
X92718920Y-79326204D01*
X92699235Y-79393243D01*
X92682601Y-79413885D01*
X92431268Y-79665218D01*
X92369945Y-79698703D01*
X92343587Y-79701537D01*
X91479858Y-79701537D01*
X91449287Y-79709728D01*
X91403428Y-79722016D01*
X91403427Y-79722017D01*
X91367958Y-79742496D01*
X91334912Y-79761574D01*
X91334907Y-79761578D01*
X90881267Y-80215218D01*
X90819944Y-80248703D01*
X90793586Y-80251537D01*
X90703528Y-80251537D01*
X90576232Y-80285645D01*
X90462106Y-80351537D01*
X90462103Y-80351539D01*
X90368922Y-80444720D01*
X90368920Y-80444723D01*
X90303028Y-80558849D01*
X90268920Y-80686145D01*
X89794920Y-80686145D01*
X89794920Y-75235713D01*
X89814605Y-75168674D01*
X89831239Y-75148032D01*
X89919920Y-75059351D01*
X89985812Y-74945223D01*
X90019920Y-74817929D01*
X90019920Y-74686145D01*
X89985812Y-74558851D01*
X89919920Y-74444723D01*
X89826734Y-74351537D01*
X89756571Y-74311028D01*
X89712607Y-74285645D01*
X89648959Y-74268591D01*
X89585312Y-74251537D01*
X89453528Y-74251537D01*
X89326234Y-74285645D01*
X89326233Y-74285645D01*
X89326231Y-74285646D01*
X89326230Y-74285646D01*
X89205920Y-74355108D01*
X89138020Y-74371581D01*
X89071993Y-74348729D01*
X89028802Y-74293807D01*
X89019920Y-74247721D01*
X89019920Y-74186147D01*
X89019920Y-74186145D01*
X88985812Y-74058851D01*
X88919920Y-73944723D01*
X88826734Y-73851537D01*
X88756571Y-73811028D01*
X88712607Y-73785645D01*
X88648959Y-73768591D01*
X88585312Y-73751537D01*
X88453528Y-73751537D01*
X88326234Y-73785645D01*
X88326233Y-73785645D01*
X88326231Y-73785646D01*
X88326230Y-73785646D01*
X88205920Y-73855108D01*
X88138020Y-73871581D01*
X88071993Y-73848729D01*
X88028802Y-73793807D01*
X88019920Y-73747721D01*
X88019920Y-73686147D01*
X88019920Y-73686145D01*
X87985812Y-73558851D01*
X87919920Y-73444723D01*
X87826734Y-73351537D01*
X87756571Y-73311028D01*
X87712607Y-73285645D01*
X87648959Y-73268591D01*
X87585312Y-73251537D01*
X87453528Y-73251537D01*
X87326234Y-73285645D01*
X87326233Y-73285645D01*
X87326231Y-73285646D01*
X87326230Y-73285646D01*
X87205920Y-73355108D01*
X87138020Y-73371581D01*
X87071993Y-73348729D01*
X87028802Y-73293807D01*
X87019920Y-73247721D01*
X87019920Y-73186147D01*
X87019920Y-73186145D01*
X86985812Y-73058851D01*
X86919920Y-72944723D01*
X86826734Y-72851537D01*
X86756571Y-72811028D01*
X86712607Y-72785645D01*
X86648959Y-72768591D01*
X86585312Y-72751537D01*
X86453528Y-72751537D01*
X86326234Y-72785645D01*
X86326233Y-72785645D01*
X86326231Y-72785646D01*
X86326230Y-72785646D01*
X86205920Y-72855108D01*
X86138020Y-72871581D01*
X86071993Y-72848729D01*
X86028802Y-72793807D01*
X86019920Y-72747721D01*
X86019920Y-72686147D01*
X86019920Y-72686145D01*
X85985812Y-72558851D01*
X85919920Y-72444723D01*
X85826734Y-72351537D01*
X85756571Y-72311028D01*
X85712607Y-72285645D01*
X85648959Y-72268591D01*
X85585312Y-72251537D01*
X85453528Y-72251537D01*
X85326234Y-72285645D01*
X85326233Y-72285645D01*
X85326231Y-72285646D01*
X85326230Y-72285646D01*
X85205920Y-72355108D01*
X85138020Y-72371581D01*
X85071993Y-72348729D01*
X85028802Y-72293807D01*
X85019920Y-72247721D01*
X85019920Y-72186147D01*
X85019920Y-72186145D01*
X84985812Y-72058851D01*
X84919920Y-71944723D01*
X84826734Y-71851537D01*
X84756571Y-71811028D01*
X84712607Y-71785645D01*
X84648959Y-71768591D01*
X84585312Y-71751537D01*
X84453528Y-71751537D01*
X84326234Y-71785645D01*
X84326233Y-71785645D01*
X84326231Y-71785646D01*
X84326230Y-71785646D01*
X84205920Y-71855108D01*
X84138020Y-71871581D01*
X84071993Y-71848729D01*
X84028802Y-71793807D01*
X84019920Y-71747721D01*
X84019920Y-71686147D01*
X84019920Y-71686145D01*
X83985812Y-71558851D01*
X83919920Y-71444723D01*
X83826734Y-71351537D01*
X83768522Y-71317928D01*
X83712607Y-71285645D01*
X83648959Y-71268591D01*
X83585312Y-71251537D01*
X83453528Y-71251537D01*
X83326234Y-71285645D01*
X83326233Y-71285645D01*
X83326231Y-71285646D01*
X83326230Y-71285646D01*
X83205920Y-71355108D01*
X83138020Y-71371581D01*
X83071993Y-71348729D01*
X83028802Y-71293807D01*
X83019920Y-71247721D01*
X83019920Y-71186147D01*
X83019920Y-71186145D01*
X82985812Y-71058851D01*
X82919920Y-70944723D01*
X82826734Y-70851537D01*
X82764995Y-70815892D01*
X82712607Y-70785645D01*
X82648959Y-70768591D01*
X82585312Y-70751537D01*
X82453528Y-70751537D01*
X82326232Y-70785645D01*
X82212106Y-70851537D01*
X82212103Y-70851539D01*
X82118922Y-70944720D01*
X82118920Y-70944723D01*
X82053028Y-71058849D01*
X82018920Y-71186145D01*
X82018920Y-71317928D01*
X82053028Y-71445224D01*
X82085974Y-71502287D01*
X82118920Y-71559351D01*
X82118922Y-71559353D01*
X82207601Y-71648032D01*
X82241086Y-71709355D01*
X82243920Y-71735713D01*
X82243920Y-85619718D01*
X82224235Y-85686757D01*
X82207602Y-85707399D01*
X82118921Y-85796080D01*
X82053029Y-85910206D01*
X82031266Y-85991429D01*
X82018921Y-86037502D01*
X82018921Y-86169286D01*
X82020703Y-86175935D01*
X82053029Y-86296581D01*
X82060232Y-86309056D01*
X82118921Y-86410708D01*
X82118923Y-86410710D01*
X82207601Y-86499388D01*
X82241086Y-86560711D01*
X82243920Y-86587069D01*
X82243920Y-100619718D01*
X82224235Y-100686757D01*
X82207602Y-100707399D01*
X82118921Y-100796080D01*
X82053029Y-100910206D01*
X82018921Y-101037502D01*
X82018921Y-101169285D01*
X82053029Y-101296581D01*
X82060232Y-101309056D01*
X82118921Y-101410708D01*
X82118923Y-101410710D01*
X82207601Y-101499388D01*
X82241086Y-101560711D01*
X82243920Y-101587069D01*
X82243920Y-115619718D01*
X82224235Y-115686757D01*
X82207602Y-115707399D01*
X82118921Y-115796080D01*
X82053029Y-115910206D01*
X82018921Y-116037502D01*
X82018921Y-116169285D01*
X82053029Y-116296581D01*
X82060232Y-116309056D01*
X82118921Y-116410708D01*
X82118923Y-116410710D01*
X82207602Y-116499389D01*
X82241087Y-116560712D01*
X82243921Y-116587070D01*
X82243921Y-130086559D01*
X82224236Y-130153598D01*
X82207602Y-130174240D01*
X76355080Y-136026761D01*
X76293757Y-136060246D01*
X76224065Y-136055262D01*
X76168132Y-136013390D01*
X76164296Y-136007970D01*
X76163971Y-136007484D01*
X76097650Y-135963169D01*
X76097649Y-135963168D01*
X76039172Y-135951537D01*
X76039168Y-135951537D01*
X74299672Y-135951537D01*
X74299667Y-135951537D01*
X74241190Y-135963168D01*
X74241189Y-135963169D01*
X74174867Y-136007484D01*
X74130552Y-136073806D01*
X74130551Y-136073807D01*
X74118920Y-136132284D01*
X69974118Y-136132284D01*
X69983241Y-136114379D01*
X70061090Y-135874785D01*
X70100500Y-135625962D01*
X70100500Y-135374038D01*
X70061090Y-135125215D01*
X69983241Y-134885621D01*
X69983239Y-134885618D01*
X69983239Y-134885616D01*
X69941747Y-134804184D01*
X69868870Y-134661155D01*
X69849952Y-134635117D01*
X69720798Y-134457350D01*
X69720794Y-134457345D01*
X69542654Y-134279205D01*
X69542649Y-134279201D01*
X69338848Y-134131132D01*
X69338847Y-134131131D01*
X69338845Y-134131130D01*
X69268747Y-134095413D01*
X69114383Y-134016760D01*
X68874785Y-133938910D01*
X68714966Y-133913597D01*
X68625962Y-133899500D01*
X68374038Y-133899500D01*
X68285034Y-133913597D01*
X68125214Y-133938910D01*
X67885616Y-134016760D01*
X67661151Y-134131132D01*
X67457350Y-134279201D01*
X67457345Y-134279205D01*
X67279205Y-134457345D01*
X67279201Y-134457350D01*
X67131132Y-134661151D01*
X67016760Y-134885616D01*
X66938910Y-135125214D01*
X66912139Y-135294241D01*
X66899500Y-135374038D01*
X64900500Y-135374038D01*
X64900500Y-108673984D01*
X68519420Y-108673984D01*
X68519420Y-108910089D01*
X68556354Y-109143284D01*
X68629317Y-109367839D01*
X68736507Y-109578211D01*
X68796758Y-109661141D01*
X68796760Y-109661142D01*
X69536457Y-108921445D01*
X69553495Y-108985030D01*
X69619321Y-109099044D01*
X69712413Y-109192136D01*
X69826427Y-109257962D01*
X69890010Y-109274999D01*
X69150313Y-110014695D01*
X69233248Y-110074951D01*
X69443617Y-110182139D01*
X69668172Y-110255102D01*
X69668171Y-110255102D01*
X69901368Y-110292037D01*
X70137472Y-110292037D01*
X70370667Y-110255102D01*
X70595222Y-110182139D01*
X70805583Y-110074955D01*
X70805589Y-110074951D01*
X70888524Y-110014695D01*
X70888525Y-110014695D01*
X70148828Y-109274999D01*
X70212413Y-109257962D01*
X70326427Y-109192136D01*
X70419519Y-109099044D01*
X70485345Y-108985030D01*
X70502382Y-108921446D01*
X71242078Y-109661142D01*
X71242078Y-109661141D01*
X71302334Y-109578206D01*
X71302338Y-109578200D01*
X71409522Y-109367839D01*
X71482485Y-109143284D01*
X71519420Y-108910089D01*
X71519420Y-108677550D01*
X76318920Y-108677550D01*
X76318920Y-108866523D01*
X76348479Y-109053155D01*
X76406874Y-109232873D01*
X76488587Y-109393242D01*
X76492660Y-109401236D01*
X76603730Y-109554110D01*
X76737347Y-109687727D01*
X76890221Y-109798797D01*
X76969767Y-109839327D01*
X77058583Y-109884582D01*
X77058585Y-109884582D01*
X77058588Y-109884584D01*
X77154917Y-109915883D01*
X77238301Y-109942977D01*
X77424934Y-109972537D01*
X77424939Y-109972537D01*
X77613906Y-109972537D01*
X77800538Y-109942977D01*
X77980252Y-109884584D01*
X78148619Y-109798797D01*
X78301493Y-109687727D01*
X78435110Y-109554110D01*
X78546180Y-109401236D01*
X78631967Y-109232869D01*
X78690360Y-109053155D01*
X78702821Y-108974480D01*
X78719920Y-108866523D01*
X78719920Y-108677550D01*
X78690360Y-108490918D01*
X78645072Y-108351537D01*
X78631967Y-108311205D01*
X78631965Y-108311202D01*
X78631965Y-108311200D01*
X78583577Y-108216234D01*
X78546180Y-108142838D01*
X78435110Y-107989964D01*
X78301493Y-107856347D01*
X78148619Y-107745277D01*
X77980256Y-107659491D01*
X77800538Y-107601096D01*
X77613906Y-107571537D01*
X77613901Y-107571537D01*
X77424939Y-107571537D01*
X77424934Y-107571537D01*
X77238301Y-107601096D01*
X77058583Y-107659491D01*
X76890220Y-107745277D01*
X76802999Y-107808647D01*
X76737347Y-107856347D01*
X76737345Y-107856349D01*
X76737344Y-107856349D01*
X76603732Y-107989961D01*
X76603732Y-107989962D01*
X76603730Y-107989964D01*
X76592176Y-108005867D01*
X76492660Y-108142837D01*
X76406874Y-108311200D01*
X76348479Y-108490918D01*
X76318920Y-108677550D01*
X71519420Y-108677550D01*
X71519420Y-108673984D01*
X71482485Y-108440789D01*
X71409522Y-108216234D01*
X71302334Y-108005865D01*
X71242078Y-107922931D01*
X71242078Y-107922930D01*
X70502382Y-108662627D01*
X70485345Y-108599044D01*
X70419519Y-108485030D01*
X70326427Y-108391938D01*
X70212413Y-108326112D01*
X70148829Y-108309074D01*
X70888525Y-107569377D01*
X70888524Y-107569375D01*
X70805594Y-107509124D01*
X70595222Y-107401934D01*
X70370667Y-107328971D01*
X70370668Y-107328971D01*
X70137472Y-107292037D01*
X69901368Y-107292037D01*
X69668172Y-107328971D01*
X69443617Y-107401934D01*
X69233250Y-107509121D01*
X69150314Y-107569377D01*
X69890011Y-108309074D01*
X69826427Y-108326112D01*
X69712413Y-108391938D01*
X69619321Y-108485030D01*
X69553495Y-108599044D01*
X69536457Y-108662628D01*
X68796760Y-107922931D01*
X68736504Y-108005867D01*
X68629317Y-108216234D01*
X68556354Y-108440789D01*
X68519420Y-108673984D01*
X64900500Y-108673984D01*
X64900500Y-104083984D01*
X68519420Y-104083984D01*
X68519420Y-104320089D01*
X68556354Y-104553284D01*
X68629317Y-104777839D01*
X68736507Y-104988211D01*
X68796758Y-105071141D01*
X68796760Y-105071142D01*
X69536457Y-104331445D01*
X69553495Y-104395030D01*
X69619321Y-104509044D01*
X69712413Y-104602136D01*
X69826427Y-104667962D01*
X69890010Y-104684999D01*
X69150313Y-105424695D01*
X69233248Y-105484951D01*
X69443617Y-105592139D01*
X69668172Y-105665102D01*
X69668171Y-105665102D01*
X69901368Y-105702037D01*
X70137472Y-105702037D01*
X70370667Y-105665102D01*
X70595222Y-105592139D01*
X70805583Y-105484955D01*
X70805589Y-105484951D01*
X70888524Y-105424695D01*
X70888525Y-105424695D01*
X70148828Y-104684999D01*
X70212413Y-104667962D01*
X70326427Y-104602136D01*
X70419519Y-104509044D01*
X70485345Y-104395030D01*
X70502382Y-104331446D01*
X71242078Y-105071142D01*
X71242078Y-105071141D01*
X71302334Y-104988206D01*
X71302338Y-104988200D01*
X71409522Y-104777839D01*
X71482485Y-104553284D01*
X71519420Y-104320089D01*
X71519420Y-104087550D01*
X76318920Y-104087550D01*
X76318920Y-104276523D01*
X76348479Y-104463155D01*
X76406874Y-104642873D01*
X76464865Y-104756685D01*
X76492660Y-104811236D01*
X76603730Y-104964110D01*
X76737347Y-105097727D01*
X76890221Y-105208797D01*
X76969767Y-105249327D01*
X77058583Y-105294582D01*
X77058585Y-105294582D01*
X77058588Y-105294584D01*
X77154917Y-105325883D01*
X77238301Y-105352977D01*
X77424934Y-105382537D01*
X77424939Y-105382537D01*
X77613906Y-105382537D01*
X77800538Y-105352977D01*
X77980252Y-105294584D01*
X78148619Y-105208797D01*
X78301493Y-105097727D01*
X78435110Y-104964110D01*
X78546180Y-104811236D01*
X78631967Y-104642869D01*
X78690360Y-104463155D01*
X78719920Y-104276523D01*
X78719920Y-104087550D01*
X78690360Y-103900918D01*
X78656458Y-103796580D01*
X78631967Y-103721205D01*
X78631965Y-103721202D01*
X78631965Y-103721200D01*
X78580256Y-103619716D01*
X78546180Y-103552838D01*
X78435110Y-103399964D01*
X78301493Y-103266347D01*
X78148619Y-103155277D01*
X78130555Y-103146073D01*
X77980256Y-103069491D01*
X77800538Y-103011096D01*
X77613906Y-102981537D01*
X77613901Y-102981537D01*
X77424939Y-102981537D01*
X77424934Y-102981537D01*
X77238301Y-103011096D01*
X77058583Y-103069491D01*
X76890220Y-103155277D01*
X76849963Y-103184526D01*
X76737347Y-103266347D01*
X76737345Y-103266349D01*
X76737344Y-103266349D01*
X76603732Y-103399961D01*
X76603732Y-103399962D01*
X76603730Y-103399964D01*
X76592176Y-103415867D01*
X76492660Y-103552837D01*
X76406874Y-103721200D01*
X76348479Y-103900918D01*
X76318920Y-104087550D01*
X71519420Y-104087550D01*
X71519420Y-104083984D01*
X71482485Y-103850789D01*
X71409522Y-103626234D01*
X71302334Y-103415865D01*
X71242078Y-103332931D01*
X71242078Y-103332930D01*
X70502382Y-104072627D01*
X70485345Y-104009044D01*
X70419519Y-103895030D01*
X70326427Y-103801938D01*
X70212413Y-103736112D01*
X70148829Y-103719074D01*
X70888525Y-102979377D01*
X70888524Y-102979375D01*
X70805594Y-102919124D01*
X70595222Y-102811934D01*
X70370667Y-102738971D01*
X70370668Y-102738971D01*
X70137472Y-102702037D01*
X69901368Y-102702037D01*
X69668172Y-102738971D01*
X69443617Y-102811934D01*
X69233250Y-102919121D01*
X69150314Y-102979377D01*
X69890011Y-103719074D01*
X69826427Y-103736112D01*
X69712413Y-103801938D01*
X69619321Y-103895030D01*
X69553495Y-104009044D01*
X69536457Y-104072628D01*
X68796760Y-103332931D01*
X68736504Y-103415867D01*
X68629317Y-103626234D01*
X68556354Y-103850789D01*
X68519420Y-104083984D01*
X64900500Y-104083984D01*
X64900500Y-99493984D01*
X68519420Y-99493984D01*
X68519420Y-99730089D01*
X68556354Y-99963284D01*
X68629317Y-100187839D01*
X68736507Y-100398211D01*
X68796758Y-100481141D01*
X68796760Y-100481142D01*
X69536457Y-99741445D01*
X69553495Y-99805030D01*
X69619321Y-99919044D01*
X69712413Y-100012136D01*
X69826427Y-100077962D01*
X69890010Y-100094999D01*
X69150313Y-100834695D01*
X69233248Y-100894951D01*
X69443617Y-101002139D01*
X69668172Y-101075102D01*
X69668171Y-101075102D01*
X69901368Y-101112037D01*
X70137472Y-101112037D01*
X70370667Y-101075102D01*
X70595222Y-101002139D01*
X70805583Y-100894955D01*
X70805589Y-100894951D01*
X70888524Y-100834695D01*
X70888525Y-100834695D01*
X70148828Y-100094999D01*
X70212413Y-100077962D01*
X70326427Y-100012136D01*
X70419519Y-99919044D01*
X70485345Y-99805030D01*
X70502382Y-99741446D01*
X71242078Y-100481142D01*
X71242078Y-100481141D01*
X71302334Y-100398206D01*
X71302338Y-100398200D01*
X71409522Y-100187839D01*
X71482485Y-99963284D01*
X71519420Y-99730089D01*
X71519420Y-99497550D01*
X76318920Y-99497550D01*
X76318920Y-99686523D01*
X76348479Y-99873155D01*
X76406874Y-100052873D01*
X76460975Y-100159051D01*
X76492660Y-100221236D01*
X76603730Y-100374110D01*
X76737347Y-100507727D01*
X76890221Y-100618797D01*
X76968239Y-100658549D01*
X77058583Y-100704582D01*
X77058585Y-100704582D01*
X77058588Y-100704584D01*
X77154917Y-100735883D01*
X77238301Y-100762977D01*
X77424934Y-100792537D01*
X77424939Y-100792537D01*
X77613906Y-100792537D01*
X77800538Y-100762977D01*
X77833592Y-100752237D01*
X77980252Y-100704584D01*
X78148619Y-100618797D01*
X78301493Y-100507727D01*
X78435110Y-100374110D01*
X78546180Y-100221236D01*
X78631967Y-100052869D01*
X78690360Y-99873155D01*
X78696338Y-99835414D01*
X78719920Y-99686523D01*
X78719920Y-99497550D01*
X78690360Y-99310918D01*
X78640852Y-99158551D01*
X78631967Y-99131205D01*
X78631965Y-99131202D01*
X78631965Y-99131200D01*
X78560750Y-98991433D01*
X78546180Y-98962838D01*
X78435110Y-98809964D01*
X78301493Y-98676347D01*
X78148619Y-98565277D01*
X78107691Y-98544423D01*
X77980256Y-98479491D01*
X77800538Y-98421096D01*
X77613906Y-98391537D01*
X77613901Y-98391537D01*
X77424939Y-98391537D01*
X77424934Y-98391537D01*
X77238301Y-98421096D01*
X77058583Y-98479491D01*
X76890220Y-98565277D01*
X76802999Y-98628647D01*
X76737347Y-98676347D01*
X76737345Y-98676349D01*
X76737344Y-98676349D01*
X76603732Y-98809961D01*
X76603732Y-98809962D01*
X76603730Y-98809964D01*
X76561520Y-98868061D01*
X76492660Y-98962837D01*
X76406874Y-99131200D01*
X76348479Y-99310918D01*
X76318920Y-99497550D01*
X71519420Y-99497550D01*
X71519420Y-99493984D01*
X71482485Y-99260789D01*
X71409522Y-99036234D01*
X71302334Y-98825865D01*
X71242078Y-98742931D01*
X71242078Y-98742930D01*
X70502382Y-99482627D01*
X70485345Y-99419044D01*
X70419519Y-99305030D01*
X70326427Y-99211938D01*
X70212413Y-99146112D01*
X70148829Y-99129074D01*
X70888525Y-98389377D01*
X70888524Y-98389375D01*
X70805594Y-98329124D01*
X70595222Y-98221934D01*
X70370667Y-98148971D01*
X70370668Y-98148971D01*
X70137472Y-98112037D01*
X69901368Y-98112037D01*
X69668172Y-98148971D01*
X69443617Y-98221934D01*
X69233250Y-98329121D01*
X69150314Y-98389377D01*
X69890011Y-99129074D01*
X69826427Y-99146112D01*
X69712413Y-99211938D01*
X69619321Y-99305030D01*
X69553495Y-99419044D01*
X69536457Y-99482628D01*
X68796760Y-98742931D01*
X68736504Y-98825867D01*
X68629317Y-99036234D01*
X68556354Y-99260789D01*
X68519420Y-99493984D01*
X64900500Y-99493984D01*
X64900500Y-94903984D01*
X68519420Y-94903984D01*
X68519420Y-95140089D01*
X68556354Y-95373284D01*
X68629317Y-95597839D01*
X68736507Y-95808211D01*
X68796758Y-95891141D01*
X68796760Y-95891142D01*
X69536457Y-95151445D01*
X69553495Y-95215030D01*
X69619321Y-95329044D01*
X69712413Y-95422136D01*
X69826427Y-95487962D01*
X69890010Y-95504999D01*
X69150313Y-96244695D01*
X69233248Y-96304951D01*
X69443617Y-96412139D01*
X69668172Y-96485102D01*
X69668171Y-96485102D01*
X69901368Y-96522037D01*
X70137472Y-96522037D01*
X70370667Y-96485102D01*
X70595222Y-96412139D01*
X70805583Y-96304955D01*
X70805589Y-96304951D01*
X70888524Y-96244695D01*
X70888525Y-96244695D01*
X70148828Y-95504999D01*
X70212413Y-95487962D01*
X70326427Y-95422136D01*
X70419519Y-95329044D01*
X70485345Y-95215030D01*
X70502382Y-95151446D01*
X71242078Y-95891142D01*
X71242078Y-95891141D01*
X71302334Y-95808206D01*
X71302338Y-95808200D01*
X71409522Y-95597839D01*
X71482485Y-95373284D01*
X71519420Y-95140089D01*
X71519420Y-94907550D01*
X76318920Y-94907550D01*
X76318920Y-95096523D01*
X76348479Y-95283155D01*
X76406874Y-95462873D01*
X76454994Y-95557313D01*
X76492660Y-95631236D01*
X76603730Y-95784110D01*
X76737347Y-95917727D01*
X76890221Y-96028797D01*
X76969767Y-96069327D01*
X77058583Y-96114582D01*
X77058585Y-96114582D01*
X77058588Y-96114584D01*
X77154917Y-96145883D01*
X77238301Y-96172977D01*
X77424934Y-96202537D01*
X77424939Y-96202537D01*
X77613906Y-96202537D01*
X77800538Y-96172977D01*
X77980252Y-96114584D01*
X78148619Y-96028797D01*
X78301493Y-95917727D01*
X78435110Y-95784110D01*
X78546180Y-95631236D01*
X78631967Y-95462869D01*
X78690360Y-95283155D01*
X78706047Y-95184110D01*
X78719920Y-95096523D01*
X78719920Y-94907550D01*
X78690360Y-94720918D01*
X78648829Y-94593102D01*
X78631967Y-94541205D01*
X78631965Y-94541202D01*
X78631965Y-94541200D01*
X78546179Y-94372837D01*
X78540717Y-94365319D01*
X78435110Y-94219964D01*
X78301493Y-94086347D01*
X78148619Y-93975277D01*
X78147055Y-93974480D01*
X77980256Y-93889491D01*
X77800538Y-93831096D01*
X77613906Y-93801537D01*
X77613901Y-93801537D01*
X77424939Y-93801537D01*
X77424934Y-93801537D01*
X77238301Y-93831096D01*
X77058583Y-93889491D01*
X76890220Y-93975277D01*
X76796065Y-94043685D01*
X76737347Y-94086347D01*
X76737344Y-94086349D01*
X76603732Y-94219961D01*
X76603732Y-94219962D01*
X76603730Y-94219964D01*
X76592176Y-94235867D01*
X76492660Y-94372837D01*
X76406874Y-94541200D01*
X76348479Y-94720918D01*
X76318920Y-94907550D01*
X71519420Y-94907550D01*
X71519420Y-94903984D01*
X71482485Y-94670789D01*
X71409522Y-94446234D01*
X71302334Y-94235865D01*
X71242078Y-94152931D01*
X71242078Y-94152930D01*
X70502382Y-94892627D01*
X70485345Y-94829044D01*
X70419519Y-94715030D01*
X70326427Y-94621938D01*
X70212413Y-94556112D01*
X70148829Y-94539074D01*
X70888525Y-93799377D01*
X70888524Y-93799375D01*
X70805594Y-93739124D01*
X70595222Y-93631934D01*
X70370667Y-93558971D01*
X70370668Y-93558971D01*
X70137472Y-93522037D01*
X69901368Y-93522037D01*
X69668172Y-93558971D01*
X69443617Y-93631934D01*
X69233250Y-93739121D01*
X69150314Y-93799377D01*
X69890011Y-94539074D01*
X69826427Y-94556112D01*
X69712413Y-94621938D01*
X69619321Y-94715030D01*
X69553495Y-94829044D01*
X69536457Y-94892628D01*
X68796760Y-94152931D01*
X68736504Y-94235867D01*
X68629317Y-94446234D01*
X68556354Y-94670789D01*
X68519420Y-94903984D01*
X64900500Y-94903984D01*
X64900500Y-65429613D01*
X95045392Y-65429613D01*
X95150651Y-65473213D01*
X95150659Y-65473215D01*
X95295546Y-65502035D01*
X95295550Y-65502036D01*
X95443288Y-65502036D01*
X95443291Y-65502035D01*
X95588178Y-65473216D01*
X95588187Y-65473213D01*
X95721966Y-65417801D01*
X95791435Y-65410332D01*
X95816870Y-65417801D01*
X95950648Y-65473213D01*
X95950657Y-65473216D01*
X96095544Y-65502035D01*
X96095548Y-65502036D01*
X96243286Y-65502036D01*
X96243289Y-65502035D01*
X96388176Y-65473215D01*
X96388184Y-65473213D01*
X96493442Y-65429613D01*
X96080322Y-65016493D01*
X96046837Y-64955170D01*
X96051821Y-64885478D01*
X96080322Y-64841130D01*
X96097574Y-64823878D01*
X96111865Y-64838169D01*
X96149208Y-64853637D01*
X96189626Y-64853637D01*
X96226969Y-64838169D01*
X96255549Y-64809589D01*
X96271017Y-64772246D01*
X96271017Y-64752036D01*
X96522969Y-64752036D01*
X96522969Y-64752038D01*
X96846993Y-65076062D01*
X96890593Y-64970804D01*
X96890595Y-64970796D01*
X96919415Y-64825909D01*
X96919416Y-64825906D01*
X96919416Y-64678168D01*
X96919415Y-64678164D01*
X96914610Y-64654005D01*
X96890595Y-64533277D01*
X96890593Y-64533269D01*
X96846993Y-64428010D01*
X96522969Y-64752036D01*
X96271017Y-64752036D01*
X96271017Y-64731828D01*
X96255549Y-64694485D01*
X96226969Y-64665905D01*
X96189626Y-64650437D01*
X96149208Y-64650437D01*
X96111865Y-64665905D01*
X96097575Y-64680195D01*
X96080321Y-64662941D01*
X96046836Y-64601618D01*
X96051820Y-64531926D01*
X96080321Y-64487579D01*
X96493441Y-64074458D01*
X96388185Y-64030860D01*
X96388176Y-64030857D01*
X96243289Y-64002038D01*
X96095544Y-64002038D01*
X95950657Y-64030857D01*
X95950657Y-64030858D01*
X95816870Y-64086273D01*
X95747400Y-64093741D01*
X95721966Y-64086273D01*
X95588178Y-64030858D01*
X95588178Y-64030857D01*
X95443291Y-64002038D01*
X95295546Y-64002038D01*
X95150659Y-64030857D01*
X95150655Y-64030859D01*
X95045393Y-64074459D01*
X95458514Y-64487580D01*
X95491999Y-64548903D01*
X95487015Y-64618595D01*
X95458514Y-64662942D01*
X95441261Y-64680195D01*
X95426971Y-64665905D01*
X95389628Y-64650437D01*
X95349210Y-64650437D01*
X95311867Y-64665905D01*
X95283287Y-64694485D01*
X95267819Y-64731828D01*
X95267819Y-64772246D01*
X95283287Y-64809589D01*
X95311867Y-64838169D01*
X95349210Y-64853637D01*
X95389628Y-64853637D01*
X95426971Y-64838169D01*
X95441261Y-64823879D01*
X95458513Y-64841131D01*
X95491998Y-64902454D01*
X95487014Y-64972146D01*
X95458513Y-65016493D01*
X95045392Y-65429613D01*
X64900500Y-65429613D01*
X64900500Y-63374038D01*
X66899500Y-63374038D01*
X66899500Y-63625962D01*
X66919537Y-63752472D01*
X66938910Y-63874785D01*
X67016760Y-64114383D01*
X67080174Y-64238838D01*
X67128183Y-64333062D01*
X67131132Y-64338848D01*
X67279201Y-64542649D01*
X67279205Y-64542654D01*
X67457345Y-64720794D01*
X67457350Y-64720798D01*
X67589597Y-64816880D01*
X67661155Y-64868870D01*
X67804184Y-64941747D01*
X67885616Y-64983239D01*
X67885618Y-64983239D01*
X67885621Y-64983241D01*
X68125215Y-65061090D01*
X68374038Y-65100500D01*
X68374039Y-65100500D01*
X68625961Y-65100500D01*
X68625962Y-65100500D01*
X68874785Y-65061090D01*
X69114379Y-64983241D01*
X69338845Y-64868870D01*
X69542656Y-64720793D01*
X69585285Y-64678164D01*
X94619420Y-64678164D01*
X94619420Y-64825909D01*
X94648239Y-64970796D01*
X94648242Y-64970805D01*
X94691840Y-65076061D01*
X95015867Y-64752037D01*
X94691841Y-64428011D01*
X94648241Y-64533273D01*
X94648239Y-64533277D01*
X94619420Y-64678164D01*
X69585285Y-64678164D01*
X69720793Y-64542656D01*
X69868870Y-64338845D01*
X69983241Y-64114379D01*
X70038216Y-63945184D01*
X70061089Y-63874789D01*
X70061089Y-63874788D01*
X70061090Y-63874785D01*
X70100500Y-63625962D01*
X70100500Y-63374038D01*
X70061090Y-63125215D01*
X70060046Y-63122004D01*
X70058205Y-63116334D01*
X70058204Y-63116333D01*
X69983239Y-62885616D01*
X69941747Y-62804184D01*
X69868870Y-62661155D01*
X69849952Y-62635117D01*
X69720798Y-62457350D01*
X69720794Y-62457345D01*
X69542654Y-62279205D01*
X69542649Y-62279201D01*
X69338848Y-62131132D01*
X69338847Y-62131131D01*
X69338845Y-62131130D01*
X69268747Y-62095413D01*
X69114383Y-62016760D01*
X68874785Y-61938910D01*
X68625962Y-61899500D01*
X68374038Y-61899500D01*
X68249626Y-61919205D01*
X68125214Y-61938910D01*
X67885616Y-62016760D01*
X67661151Y-62131132D01*
X67457350Y-62279201D01*
X67457345Y-62279205D01*
X67279205Y-62457345D01*
X67279201Y-62457350D01*
X67131132Y-62661151D01*
X67016760Y-62885616D01*
X66938910Y-63125214D01*
X66924225Y-63217929D01*
X66899500Y-63374038D01*
X64900500Y-63374038D01*
X64900500Y-60324500D01*
X64920185Y-60257461D01*
X64972989Y-60211706D01*
X65024500Y-60200500D01*
X116637139Y-60200500D01*
X116704178Y-60220185D01*
G37*
G04 #@! TD.AperFunction*
G04 #@! TA.AperFunction,Conductor*
G36*
X122154178Y-60220185D02*
G01*
X122199933Y-60272989D01*
X122209877Y-60342147D01*
X122180852Y-60405703D01*
X122125457Y-60442431D01*
X121990475Y-60486288D01*
X121990472Y-60486289D01*
X121829185Y-60568471D01*
X121682750Y-60674860D01*
X121554743Y-60802867D01*
X121448354Y-60949302D01*
X121366172Y-61110589D01*
X121366171Y-61110592D01*
X121310237Y-61282743D01*
X121281920Y-61461530D01*
X121281920Y-61552037D01*
X122081920Y-61552037D01*
X122081920Y-62052037D01*
X121281920Y-62052037D01*
X121281920Y-62142543D01*
X121310237Y-62321330D01*
X121366171Y-62493481D01*
X121366172Y-62493484D01*
X121448356Y-62654776D01*
X121450898Y-62658924D01*
X121449989Y-62659480D01*
X121471747Y-62720459D01*
X121455921Y-62788512D01*
X121405815Y-62837207D01*
X121347949Y-62851537D01*
X118065891Y-62851537D01*
X117998852Y-62831852D01*
X117953097Y-62779048D01*
X117943153Y-62709890D01*
X117963660Y-62659364D01*
X117962942Y-62658924D01*
X117965483Y-62654776D01*
X118047667Y-62493484D01*
X118047668Y-62493481D01*
X118103602Y-62321330D01*
X118131920Y-62142543D01*
X118131920Y-62052037D01*
X117331920Y-62052037D01*
X117331920Y-61552037D01*
X118131920Y-61552037D01*
X118131920Y-61461530D01*
X118103602Y-61282743D01*
X118047668Y-61110592D01*
X118047667Y-61110589D01*
X117965485Y-60949302D01*
X117859096Y-60802867D01*
X117731089Y-60674860D01*
X117584654Y-60568471D01*
X117423367Y-60486289D01*
X117423364Y-60486288D01*
X117288383Y-60442431D01*
X117230708Y-60402994D01*
X117203509Y-60338635D01*
X117215423Y-60269789D01*
X117262667Y-60218313D01*
X117326701Y-60200500D01*
X122087139Y-60200500D01*
X122154178Y-60220185D01*
G37*
G04 #@! TD.AperFunction*
M02*
