G04 #@! TF.GenerationSoftware,KiCad,Pcbnew,9.0.7*
G04 #@! TF.CreationDate,2026-06-04T16:29:51-05:00*
G04 #@! TF.ProjectId,RP2040_minimal_r2,52503230-3430-45f6-9d69-6e696d616c5f,REV2*
G04 #@! TF.SameCoordinates,Original*
G04 #@! TF.FileFunction,Paste,Top*
G04 #@! TF.FilePolarity,Positive*
%FSLAX46Y46*%
G04 Gerber Fmt 4.6, Leading zero omitted, Abs format (unit mm)*
G04 Created by KiCad (PCBNEW 9.0.7) date 2026-06-04 16:29:51*
%MOMM*%
%LPD*%
G01*
G04 APERTURE LIST*
G04 Aperture macros list*
%AMRoundRect*
0 Rectangle with rounded corners*
0 $1 Rounding radius*
0 $2 $3 $4 $5 $6 $7 $8 $9 X,Y pos of 4 corners*
0 Add a 4 corners polygon primitive as box body*
4,1,4,$2,$3,$4,$5,$6,$7,$8,$9,$2,$3,0*
0 Add four circle primitives for the rounded corners*
1,1,$1+$1,$2,$3*
1,1,$1+$1,$4,$5*
1,1,$1+$1,$6,$7*
1,1,$1+$1,$8,$9*
0 Add four rect primitives between the rounded corners*
20,1,$1+$1,$2,$3,$4,$5,0*
20,1,$1+$1,$4,$5,$6,$7,0*
20,1,$1+$1,$6,$7,$8,$9,0*
20,1,$1+$1,$8,$9,$2,$3,0*%
G04 Aperture macros list end*
%ADD10C,0.000000*%
%ADD11RoundRect,0.250000X-0.250000X-0.475000X0.250000X-0.475000X0.250000X0.475000X-0.250000X0.475000X0*%
%ADD12RoundRect,0.250000X-0.475000X0.250000X-0.475000X-0.250000X0.475000X-0.250000X0.475000X0.250000X0*%
%ADD13RoundRect,0.250000X0.475000X-0.250000X0.475000X0.250000X-0.475000X0.250000X-0.475000X-0.250000X0*%
%ADD14RoundRect,0.250000X-0.450000X0.262500X-0.450000X-0.262500X0.450000X-0.262500X0.450000X0.262500X0*%
%ADD15RoundRect,0.250000X-0.262500X-0.450000X0.262500X-0.450000X0.262500X0.450000X-0.262500X0.450000X0*%
%ADD16RoundRect,0.250000X0.450000X-0.262500X0.450000X0.262500X-0.450000X0.262500X-0.450000X-0.262500X0*%
%ADD17RoundRect,0.250000X0.250000X0.475000X-0.250000X0.475000X-0.250000X-0.475000X0.250000X-0.475000X0*%
%ADD18R,0.400000X1.750000*%
%ADD19R,1.825000X0.700000*%
%ADD20R,2.000000X1.460000*%
%ADD21RoundRect,0.384800X0.265200X1.240200X-0.265200X1.240200X-0.265200X-1.240200X0.265200X-1.240200X0*%
%ADD22R,1.425000X2.400000*%
%ADD23R,1.500000X2.000000*%
%ADD24R,3.800000X2.000000*%
%ADD25RoundRect,0.162500X-0.650000X-0.162500X0.650000X-0.162500X0.650000X0.162500X-0.650000X0.162500X0*%
%ADD26RoundRect,0.250000X-0.292217X-0.292217X0.292217X-0.292217X0.292217X0.292217X-0.292217X0.292217X0*%
%ADD27RoundRect,0.050000X-0.387500X-0.050000X0.387500X-0.050000X0.387500X0.050000X-0.387500X0.050000X0*%
%ADD28RoundRect,0.050000X-0.050000X-0.387500X0.050000X-0.387500X0.050000X0.387500X-0.050000X0.387500X0*%
%ADD29R,0.249999X0.499999*%
%ADD30R,1.599999X0.900001*%
%ADD31R,1.400000X1.200000*%
%ADD32R,0.254000X0.812800*%
%ADD33R,0.812800X0.254000*%
%ADD34R,3.251200X3.251200*%
%ADD35RoundRect,0.250000X0.262500X0.450000X-0.262500X0.450000X-0.262500X-0.450000X0.262500X-0.450000X0*%
G04 APERTURE END LIST*
D10*
G36*
X96502421Y-65179036D02*
G01*
X95036422Y-65179036D01*
X95036422Y-64325038D01*
X96502421Y-64325038D01*
X96502421Y-65179036D01*
G37*
G36*
X94669420Y-123652037D02*
G01*
X93243820Y-123652037D01*
X93243820Y-122226437D01*
X94669420Y-122226437D01*
X94669420Y-123652037D01*
G37*
G36*
X94669420Y-125277637D02*
G01*
X93243820Y-125277637D01*
X93243820Y-123852037D01*
X94669420Y-123852037D01*
X94669420Y-125277637D01*
G37*
G36*
X96295020Y-123652037D02*
G01*
X94869420Y-123652037D01*
X94869420Y-122226437D01*
X96295020Y-122226437D01*
X96295020Y-123652037D01*
G37*
G36*
X96295020Y-125277637D02*
G01*
X94869420Y-125277637D01*
X94869420Y-123852037D01*
X96295020Y-123852037D01*
X96295020Y-125277637D01*
G37*
G36*
X94669420Y-108652037D02*
G01*
X93243820Y-108652037D01*
X93243820Y-107226437D01*
X94669420Y-107226437D01*
X94669420Y-108652037D01*
G37*
G36*
X94669420Y-110277637D02*
G01*
X93243820Y-110277637D01*
X93243820Y-108852037D01*
X94669420Y-108852037D01*
X94669420Y-110277637D01*
G37*
G36*
X96295020Y-108652037D02*
G01*
X94869420Y-108652037D01*
X94869420Y-107226437D01*
X96295020Y-107226437D01*
X96295020Y-108652037D01*
G37*
G36*
X96295020Y-110277637D02*
G01*
X94869420Y-110277637D01*
X94869420Y-108852037D01*
X96295020Y-108852037D01*
X96295020Y-110277637D01*
G37*
G36*
X94669420Y-78652037D02*
G01*
X93243820Y-78652037D01*
X93243820Y-77226437D01*
X94669420Y-77226437D01*
X94669420Y-78652037D01*
G37*
G36*
X94669420Y-80277637D02*
G01*
X93243820Y-80277637D01*
X93243820Y-78852037D01*
X94669420Y-78852037D01*
X94669420Y-80277637D01*
G37*
G36*
X96295020Y-78652037D02*
G01*
X94869420Y-78652037D01*
X94869420Y-77226437D01*
X96295020Y-77226437D01*
X96295020Y-78652037D01*
G37*
G36*
X96295020Y-80277637D02*
G01*
X94869420Y-80277637D01*
X94869420Y-78852037D01*
X96295020Y-78852037D01*
X96295020Y-80277637D01*
G37*
G36*
X94669420Y-93652037D02*
G01*
X93243820Y-93652037D01*
X93243820Y-92226437D01*
X94669420Y-92226437D01*
X94669420Y-93652037D01*
G37*
G36*
X94669420Y-95277637D02*
G01*
X93243820Y-95277637D01*
X93243820Y-93852037D01*
X94669420Y-93852037D01*
X94669420Y-95277637D01*
G37*
G36*
X96295020Y-93652037D02*
G01*
X94869420Y-93652037D01*
X94869420Y-92226437D01*
X96295020Y-92226437D01*
X96295020Y-93652037D01*
G37*
G36*
X96295020Y-95277637D02*
G01*
X94869420Y-95277637D01*
X94869420Y-93852037D01*
X96295020Y-93852037D01*
X96295020Y-95277637D01*
G37*
D11*
X124550000Y-78700000D03*
X126450000Y-78700000D03*
D12*
X125500000Y-99450000D03*
X125500000Y-97550000D03*
D13*
X125000000Y-84950000D03*
X125000000Y-83050000D03*
X127250000Y-85700000D03*
X127250000Y-83800000D03*
X122750000Y-82300000D03*
X122750000Y-84200000D03*
X119500000Y-82300000D03*
X119500000Y-84200000D03*
D14*
X119500000Y-79162500D03*
X119500000Y-77337500D03*
X121750000Y-79162500D03*
X121750000Y-77337500D03*
D15*
X130087500Y-90500000D03*
X131912500Y-90500000D03*
D14*
X120750000Y-98587500D03*
X120750000Y-100412500D03*
X106750000Y-72337500D03*
X106750000Y-74162500D03*
D16*
X109500000Y-74162500D03*
X109500000Y-72337500D03*
D11*
X130800000Y-86000000D03*
X132700000Y-86000000D03*
D12*
X123250000Y-99050000D03*
X123250000Y-100950000D03*
D17*
X110550000Y-93100000D03*
X108650000Y-93100000D03*
D11*
X125304420Y-91952037D03*
X127204420Y-91952037D03*
D17*
X113950000Y-86250000D03*
X112050000Y-86250000D03*
D11*
X115004420Y-73582037D03*
X116904420Y-73582037D03*
X125430580Y-105767963D03*
X127330580Y-105767963D03*
D17*
X123580580Y-105767963D03*
X121680580Y-105767963D03*
D11*
X134550000Y-81750000D03*
X136450000Y-81750000D03*
D18*
X121006920Y-64627037D03*
X120356920Y-64627037D03*
X119706920Y-64627037D03*
X119056920Y-64627037D03*
X118406920Y-64627037D03*
D19*
X122694420Y-63502037D03*
D20*
X122606920Y-64832037D03*
D21*
X122431920Y-62227037D03*
D22*
X120669420Y-61602037D03*
X118744420Y-61602037D03*
D21*
X116981920Y-62227037D03*
D20*
X116806920Y-64832037D03*
D19*
X116719420Y-63502037D03*
D23*
X136050000Y-72350000D03*
X133750000Y-72350000D03*
D24*
X133750000Y-78650000D03*
D23*
X131450000Y-72350000D03*
D25*
X109231920Y-76122037D03*
X109231920Y-77392037D03*
X109231920Y-78662037D03*
X109231920Y-79932037D03*
X116406920Y-79932037D03*
X116406920Y-78662037D03*
X116406920Y-77392037D03*
X116406920Y-76122037D03*
D11*
X132737500Y-69150000D03*
X134637500Y-69150000D03*
D26*
X119131920Y-90114537D03*
X119131920Y-91389537D03*
X120406920Y-90114537D03*
X120406920Y-91389537D03*
D27*
X116331920Y-88152037D03*
X116331920Y-88552037D03*
X116331920Y-88952037D03*
X116331920Y-89352037D03*
X116331920Y-89752037D03*
X116331920Y-90152037D03*
X116331920Y-90552037D03*
X116331920Y-90952037D03*
X116331920Y-91352037D03*
X116331920Y-91752037D03*
X116331920Y-92152037D03*
X116331920Y-92552037D03*
X116331920Y-92952037D03*
X116331920Y-93352037D03*
D28*
X117169420Y-94189537D03*
X117569420Y-94189537D03*
X117969420Y-94189537D03*
X118369420Y-94189537D03*
X118769420Y-94189537D03*
X119169420Y-94189537D03*
X119569420Y-94189537D03*
X119969420Y-94189537D03*
X120369420Y-94189537D03*
X120769420Y-94189537D03*
X121169420Y-94189537D03*
X121569420Y-94189537D03*
X121969420Y-94189537D03*
X122369420Y-94189537D03*
D27*
X123206920Y-93352037D03*
X123206920Y-92952037D03*
X123206920Y-92552037D03*
X123206920Y-92152037D03*
X123206920Y-91752037D03*
X123206920Y-91352037D03*
X123206920Y-90952037D03*
X123206920Y-90552037D03*
X123206920Y-90152037D03*
X123206920Y-89752037D03*
X123206920Y-89352037D03*
X123206920Y-88952037D03*
X123206920Y-88552037D03*
X123206920Y-88152037D03*
D28*
X122369420Y-87314537D03*
X121969420Y-87314537D03*
X121569420Y-87314537D03*
X121169420Y-87314537D03*
X120769420Y-87314537D03*
X120369420Y-87314537D03*
X119969420Y-87314537D03*
X119569420Y-87314537D03*
X119169420Y-87314537D03*
X118769420Y-87314537D03*
X118369420Y-87314537D03*
X117969420Y-87314537D03*
X117569420Y-87314537D03*
X117169420Y-87314537D03*
D29*
X96519419Y-63802036D03*
X96019420Y-63802036D03*
X95519418Y-63802036D03*
X95019420Y-63802036D03*
X95019420Y-65702038D03*
X95519418Y-65702038D03*
X96019420Y-65702038D03*
X96519419Y-65702038D03*
D30*
X95769421Y-64752037D03*
D12*
X99719421Y-64452037D03*
X99719421Y-66352037D03*
X90769420Y-113102037D03*
X90769420Y-115002037D03*
X90459420Y-106072037D03*
X90459420Y-107972037D03*
D17*
X91519421Y-63652037D03*
X89619421Y-63652037D03*
D11*
X97519420Y-68752037D03*
X99419420Y-68752037D03*
D12*
X90399420Y-76132037D03*
X90399420Y-78032037D03*
D15*
X91596921Y-66552037D03*
X93421921Y-66552037D03*
D12*
X90769420Y-98002037D03*
X90769420Y-99902037D03*
D31*
X123300000Y-109700000D03*
X125500000Y-109700000D03*
X125500000Y-108000000D03*
X123300000Y-108000000D03*
D32*
X93019421Y-126152337D03*
X93519420Y-126152337D03*
X94019419Y-126152337D03*
X94519420Y-126152337D03*
X95019420Y-126152337D03*
X95519421Y-126152337D03*
X96019420Y-126152337D03*
X96519419Y-126152337D03*
D33*
X97169720Y-125502036D03*
X97169720Y-125002037D03*
X97169720Y-124502038D03*
X97169720Y-124002037D03*
X97169720Y-123502037D03*
X97169720Y-123002036D03*
X97169720Y-122502037D03*
X97169720Y-122002038D03*
D32*
X96519419Y-121351737D03*
X96019420Y-121351737D03*
X95519421Y-121351737D03*
X95019420Y-121351737D03*
X94519420Y-121351737D03*
X94019419Y-121351737D03*
X93519420Y-121351737D03*
X93019421Y-121351737D03*
D33*
X92369120Y-122002038D03*
X92369120Y-122502037D03*
X92369120Y-123002036D03*
X92369120Y-123502037D03*
X92369120Y-124002037D03*
X92369120Y-124502038D03*
X92369120Y-125002037D03*
X92369120Y-125502036D03*
D34*
X94769420Y-123752037D03*
D12*
X90419420Y-91112037D03*
X90419420Y-93012037D03*
X90769420Y-128302037D03*
X90769420Y-130202037D03*
D11*
X93019421Y-61252037D03*
X94919421Y-61252037D03*
D32*
X93019421Y-111152337D03*
X93519420Y-111152337D03*
X94019419Y-111152337D03*
X94519420Y-111152337D03*
X95019420Y-111152337D03*
X95519421Y-111152337D03*
X96019420Y-111152337D03*
X96519419Y-111152337D03*
D33*
X97169720Y-110502036D03*
X97169720Y-110002037D03*
X97169720Y-109502038D03*
X97169720Y-109002037D03*
X97169720Y-108502037D03*
X97169720Y-108002036D03*
X97169720Y-107502037D03*
X97169720Y-107002038D03*
D32*
X96519419Y-106351737D03*
X96019420Y-106351737D03*
X95519421Y-106351737D03*
X95019420Y-106351737D03*
X94519420Y-106351737D03*
X94019419Y-106351737D03*
X93519420Y-106351737D03*
X93019421Y-106351737D03*
D33*
X92369120Y-107002038D03*
X92369120Y-107502037D03*
X92369120Y-108002036D03*
X92369120Y-108502037D03*
X92369120Y-109002037D03*
X92369120Y-109502038D03*
X92369120Y-110002037D03*
X92369120Y-110502036D03*
D34*
X94769420Y-108752037D03*
D12*
X90769420Y-83002037D03*
X90769420Y-84902037D03*
D35*
X93431921Y-69052037D03*
X91606921Y-69052037D03*
D32*
X93019421Y-81152337D03*
X93519420Y-81152337D03*
X94019419Y-81152337D03*
X94519420Y-81152337D03*
X95019420Y-81152337D03*
X95519421Y-81152337D03*
X96019420Y-81152337D03*
X96519419Y-81152337D03*
D33*
X97169720Y-80502036D03*
X97169720Y-80002037D03*
X97169720Y-79502038D03*
X97169720Y-79002037D03*
X97169720Y-78502037D03*
X97169720Y-78002036D03*
X97169720Y-77502037D03*
X97169720Y-77002038D03*
D32*
X96519419Y-76351737D03*
X96019420Y-76351737D03*
X95519421Y-76351737D03*
X95019420Y-76351737D03*
X94519420Y-76351737D03*
X94019419Y-76351737D03*
X93519420Y-76351737D03*
X93019421Y-76351737D03*
D33*
X92369120Y-77002038D03*
X92369120Y-77502037D03*
X92369120Y-78002036D03*
X92369120Y-78502037D03*
X92369120Y-79002037D03*
X92369120Y-79502038D03*
X92369120Y-80002037D03*
X92369120Y-80502036D03*
D34*
X94769420Y-78752037D03*
D32*
X93019421Y-96152337D03*
X93519420Y-96152337D03*
X94019419Y-96152337D03*
X94519420Y-96152337D03*
X95019420Y-96152337D03*
X95519421Y-96152337D03*
X96019420Y-96152337D03*
X96519419Y-96152337D03*
D33*
X97169720Y-95502036D03*
X97169720Y-95002037D03*
X97169720Y-94502038D03*
X97169720Y-94002037D03*
X97169720Y-93502037D03*
X97169720Y-93002036D03*
X97169720Y-92502037D03*
X97169720Y-92002038D03*
D32*
X96519419Y-91351737D03*
X96019420Y-91351737D03*
X95519421Y-91351737D03*
X95019420Y-91351737D03*
X94519420Y-91351737D03*
X94019419Y-91351737D03*
X93519420Y-91351737D03*
X93019421Y-91351737D03*
D33*
X92369120Y-92002038D03*
X92369120Y-92502037D03*
X92369120Y-93002036D03*
X92369120Y-93502037D03*
X92369120Y-94002037D03*
X92369120Y-94502038D03*
X92369120Y-95002037D03*
X92369120Y-95502036D03*
D34*
X94769420Y-93752037D03*
D12*
X90389420Y-121032037D03*
X90389420Y-122932037D03*
M02*
